<?xml version="1.0" standalone="yes"?><!DOCTYPE svg PUBLIC "-//W3C//DTD SVG 1.1//EN" "http://www.w3.org/Graphics/SVG/1.1/DTD/svg11.dtd"[
<!ENTITY E6 'stroke:none;opacity:1;fill:rgb(255,255,255);'><!ENTITY E2 'matrix(1.00 0.00 0.00 1.00 84.00 4.00 ) '><!ENTITY E12 'stroke:rgb(169,169,169);fill:none;stroke-linecap:butt;stroke-miterlimit:9;opacity:1;stroke-width:2;stroke-linejoin:miter;'><!ENTITY E13 'matrix(1.00 0.00 0.00 1.00 4.00 4.00 ) '><!ENTITY E8 'matrix(1.00 0.00 0.00 1.00 0.00 0.00 ) '>
]><svg width="144.7624" height="80.47558" id="SvgGdi_output" xmlns="http://www.w3.org/2000/svg" xmlns:xlink="http://www.w3.org/1999/xlink"><rect id="background" height="100.00%" style="fill:rgb(255,255,255);" width="100.00%" y="0.00" x="0.00" /><g style="shape-rendering:auto;" id="root_group"><line y1="19.00" id="42" x2="80.00" y2="19.00" x1="38.00" style="stroke:rgb(169,169,169);fill:none;stroke-linecap:butt;stroke-miterlimit:9;opacity:1;stroke-width:1;stroke-linejoin:miter;" /><ellipse id="43" cy="15.00" cx="15.00" transform="&E2;" rx="15.00" ry="15.00" style="stroke:none;opacity:1;fill:rgb(238,192,75);" /><path transform="&E2;" id="44" style="stroke:rgb(255,255,255);fill:none;stroke-linecap:butt;stroke-miterlimit:9;opacity:1;stroke-width:2.5;stroke-linejoin:miter;" d="M 11.061 10.763 C 11.061 9.349799 12.2452 7.7226 13.7798 7.4008 15.4144 6.98898 17.2874 7.88198 17.9084 9.4683 18.47393 10.8026 17.97233 12.4332 16.8453 13.3125 16.16579 13.95364 15.1393 14.28144 14.7641 15.2029 14.48171 16.1142 14.56073 17.1532 14.56319 18.0326 " /><ellipse id="45" cy="21.60" cx="14.68" transform="&E2;" rx="1.81" ry="1.81" style="&E6;" /><text id="46" transform="&E8;" x="84.00px" y="39.00px" style="stroke:none;clip-path:url(#48_text_clipper);font-family:Microsoft Sans Serif;fill:rgb(0,0,0);font-size:8.25pt;opacity:1;"><tspan dy="8.25pt" id="50">Device.</tspan></text><text id="52" transform="&E8;" x="84.00px" y="51.45px" style="stroke:none;clip-path:url(#54_text_clipper);font-family:Microsoft Sans Serif;fill:rgb(0,0,0);font-size:8.25pt;opacity:1;"><tspan dy="8.25pt" id="56">Timestamp</tspan></text><text id="58" transform="&E8;" x="84.00px" y="63.90px" style="stroke:none;clip-path:url(#60_text_clipper);font-family:Microsoft Sans Serif;fill:rgb(0,0,0);font-size:8.25pt;opacity:1;"><tspan dy="8.25pt" id="62">Seconds</tspan></text><path style="&E12;" transform="&E13;" id="64" d="M 31.179 5.2 C 34.9985 11.0918 34.9814 18.682 31.13552 24.557 " /><ellipse id="65" cy="15.00" cx="15.00" transform="&E13;" rx="15.00" ry="15.00" style="stroke:none;opacity:1;fill:rgb(91,178,126);" /><path transform="&E13;" id="66" d="M 11.529 25.444 20.7834 12.908 16.3203 12.908 18.355 4.7687 9.100601 17.3047 13.5637 17.3047 z " style="stroke:none;fill-rule:evenodd;opacity:1;fill:rgb(255,255,255);" /><ellipse id="67" cy="19.00" cx="4.00" rx="3.00" ry="3.00" style="&E12;" /><ellipse id="68" cy="19.00" cx="4.00" rx="3.00" ry="3.00" style="&E6;" /><text id="69" transform="&E8;" x="4.00px" y="39.00px" style="stroke:none;clip-path:url(#71_text_clipper);font-family:Microsoft Sans Serif;fill:rgb(0,0,0);font-size:8.25pt;opacity:1;"><tspan dy="8.25pt" id="73">Device</tspan></text></g><defs id="clips_hatches_and_gradients"><clipPath id="48_text_clipper"><rect x="84.00" y="39.00" width="59.76" height="41.48" id="49" /></clipPath><clipPath id="54_text_clipper"><rect x="84.00" y="51.45" width="59.76" height="41.48" id="55" /></clipPath><clipPath id="60_text_clipper"><rect x="84.00" y="63.90" width="59.76" height="41.48" id="61" /></clipPath><clipPath id="71_text_clipper"><rect x="4.00" y="39.00" width="38.36" height="13.83" id="72" /></clipPath></defs></svg>