<?xml version="1.0" standalone="yes"?><!DOCTYPE svg PUBLIC "-//W3C//DTD SVG 1.1//EN" "http://www.w3.org/Graphics/SVG/1.1/DTD/svg11.dtd"[
<!ENTITY E1 'matrix(1.00 0.00 0.00 1.00 4.00 4.00 ) '><!ENTITY E9 'matrix(1.00 0.00 0.00 1.00 0.00 0.00 ) '>
]><svg width="64.76236" height="80.47558" id="SvgGdi_output" xmlns="http://www.w3.org/2000/svg" xmlns:xlink="http://www.w3.org/1999/xlink"><rect id="background" height="100.00%" style="fill:rgb(255,255,255);" width="100.00%" y="0.00" x="0.00" /><g style="shape-rendering:auto;" id="root_group"><ellipse id="42" cy="15.00" cx="15.00" transform="&E1;" rx="15.00" ry="15.00" style="stroke:none;opacity:1;fill:rgb(238,192,75);" /><path transform="&E1;" id="43" d="M 11.061 10.763 C 11.061 9.349799 12.2452 7.7226 13.7798 7.4008 15.4144 6.98898 17.2874 7.88198 17.9084 9.4683 18.47393 10.8026 17.97233 12.4332 16.8453 13.3125 16.16579 13.95364 15.1393 14.28144 14.7641 15.2029 14.48171 16.1142 14.56073 17.1532 14.56319 18.0326 " style="stroke:rgb(255,255,255);fill:none;stroke-linecap:butt;stroke-miterlimit:9;opacity:1;stroke-width:2.5;stroke-linejoin:miter;" /><ellipse id="44" cy="21.60" cx="14.68" transform="&E1;" rx="1.81" ry="1.81" style="stroke:none;opacity:1;fill:rgb(255,255,255);" /><ellipse id="45" cy="19.00" cx="4.00" rx="3.00" ry="3.00" style="stroke:rgb(169,169,169);fill:none;stroke-linecap:butt;stroke-miterlimit:9;opacity:1;stroke-width:2;stroke-linejoin:miter;" /><ellipse id="46" cy="19.00" cx="4.00" rx="3.00" ry="3.00" style="stroke:none;opacity:1;fill:rgb(0,0,0);" /><text id="47" transform="&E9;" x="4.00px" y="39.00px" style="stroke:none;clip-path:url(#49_text_clipper);font-family:Microsoft Sans Serif;fill:rgb(0,0,0);font-size:8.25pt;opacity:1;"><tspan dy="8.25pt" id="51">Device.</tspan></text><text id="53" transform="&E9;" x="4.00px" y="51.45px" style="stroke:none;clip-path:url(#55_text_clipper);font-family:Microsoft Sans Serif;fill:rgb(0,0,0);font-size:8.25pt;opacity:1;"><tspan dy="8.25pt" id="57">Timestamp</tspan></text><text id="59" transform="&E9;" x="4.00px" y="63.90px" style="stroke:none;clip-path:url(#61_text_clipper);font-family:Microsoft Sans Serif;fill:rgb(0,0,0);font-size:8.25pt;opacity:1;"><tspan dy="8.25pt" id="63">Seconds</tspan></text></g><defs id="clips_hatches_and_gradients"><clipPath id="49_text_clipper"><rect x="4.00" y="39.00" width="59.76" height="41.48" id="50" /></clipPath><clipPath id="55_text_clipper"><rect x="4.00" y="51.45" width="59.76" height="41.48" id="56" /></clipPath><clipPath id="61_text_clipper"><rect x="4.00" y="63.90" width="59.76" height="41.48" id="62" /></clipPath></defs></svg>