<?xml version="1.0" standalone="yes"?><!DOCTYPE svg PUBLIC "-//W3C//DTD SVG 1.1//EN" "http://www.w3.org/Graphics/SVG/1.1/DTD/svg11.dtd"[
<!ENTITY E7 'stroke:none;opacity:1;fill:rgb(255,255,255);'><!ENTITY E2 'matrix(1.00 0.00 0.00 1.00 84.00 4.00 ) '><!ENTITY E4 'stroke:rgb(169,169,169);fill:none;stroke-linecap:butt;stroke-miterlimit:9;opacity:1;stroke-width:2;stroke-linejoin:miter;'><!ENTITY E12 'matrix(1.00 0.00 0.00 1.00 4.00 4.00 ) '><!ENTITY E9 'matrix(1.00 0.00 0.00 1.00 0.00 0.00 ) '>
]><svg width="157.3629" height="66.65038" id="SvgGdi_output" xmlns="http://www.w3.org/2000/svg" xmlns:xlink="http://www.w3.org/1999/xlink"><rect id="background" height="100.00%" style="fill:rgb(255,255,255);" width="100.00%" y="0.00" x="0.00" /><g style="shape-rendering:auto;" id="root_group"><line y1="19.00" id="336" x2="80.00" y2="19.00" x1="38.00" style="stroke:rgb(169,169,169);fill:none;stroke-linecap:butt;stroke-miterlimit:9;opacity:1;stroke-width:1;stroke-linejoin:miter;" /><ellipse id="337" cy="15.00" cx="15.00" transform="&E2;" rx="15.00" ry="15.00" style="stroke:none;opacity:1;fill:rgb(238,192,75);" /><ellipse id="338" cy="15.00" cx="15.00" transform="&E2;" rx="15.00" ry="15.00" style="&E4;" /><path transform="&E2;" id="339" style="stroke:rgb(255,255,255);fill:none;stroke-linecap:butt;stroke-miterlimit:9;opacity:1;stroke-width:2.5;stroke-linejoin:miter;" d="M 11.061 10.763 C 11.061 9.349799 12.2452 7.7226 13.7798 7.4008 15.4144 6.98898 17.2874 7.88198 17.9084 9.4683 18.47393 10.8026 17.97233 12.4332 16.8453 13.3125 16.16579 13.95364 15.1393 14.28144 14.7641 15.2029 14.48171 16.1142 14.56073 17.1532 14.56319 18.0326 " /><ellipse id="340" cy="21.60" cx="14.68" transform="&E2;" rx="1.81" ry="1.81" style="&E7;" /><text id="341" transform="&E9;" x="84.00px" y="39.00px" style="stroke:none;clip-path:url(#343_text_clipper);font-family:Microsoft Sans Serif;fill:rgb(0,0,0);font-size:8.25pt;opacity:1;"><tspan dy="8.25pt" id="345">Filter</tspan></text><text id="347" transform="&E9;" x="84.00px" y="51.45px" style="stroke:none;clip-path:url(#349_text_clipper);font-family:Microsoft Sans Serif;fill:rgb(0,0,0);font-size:8.25pt;opacity:1;"><tspan dy="8.25pt" id="351">Timestamped</tspan></text><path style="&E4;" transform="&E12;" id="353" d="M 31.179 5.2 C 34.9985 11.0918 34.9814 18.682 31.13552 24.557 " /><ellipse id="354" cy="15.00" cx="15.00" transform="&E12;" rx="15.00" ry="15.00" style="stroke:none;opacity:1;fill:rgb(91,178,126);" /><path transform="&E12;" id="355" style="stroke:none;fill-rule:evenodd;opacity:1;fill:rgb(255,255,255);" d="M 11.529 25.444 20.7834 12.908 16.3203 12.908 18.355 4.7687 9.100601 17.3047 13.5637 17.3047 z " /><ellipse id="356" cy="19.00" cx="4.00" rx="3.00" ry="3.00" style="&E4;" /><ellipse id="357" cy="19.00" cx="4.00" rx="3.00" ry="3.00" style="&E7;" /><text id="358" transform="&E9;" x="4.00px" y="39.00px" style="stroke:none;clip-path:url(#360_text_clipper);font-family:Microsoft Sans Serif;fill:rgb(0,0,0);font-size:8.25pt;opacity:1;"><tspan dy="8.25pt" id="362">Device</tspan></text></g><defs id="clips_hatches_and_gradients"><clipPath id="343_text_clipper"><rect x="84.00" y="39.00" width="72.36" height="27.65" id="344" /></clipPath><clipPath id="349_text_clipper"><rect x="84.00" y="51.45" width="72.36" height="27.65" id="350" /></clipPath><clipPath id="360_text_clipper"><rect x="4.00" y="39.00" width="38.36" height="13.83" id="361" /></clipPath></defs></svg>