<?xml version="1.0" standalone="yes"?>
<!DOCTYPE svg PUBLIC "-//W3C//DTD SVG 1.1//EN" "http://www.w3.org/Graphics/SVG/1.1/DTD/svg11.dtd"[
<!ENTITY E57 'matrix(1.00 0.00 0.00 1.00 164.00 4.00 ) '><!ENTITY E37 'stroke:none;opacity:1;fill:rgb(91,178,126);'><!ENTITY E14 'stroke:none;fill-rule:evenodd;opacity:1;fill:rgb(255,255,255);'><!ENTITY E33 'matrix(1.00 0.00 0.00 1.00 484.00 84.00 ) '><!ENTITY E3 'stroke:rgb(169,169,169);fill:none;stroke-linecap:butt;stroke-miterlimit:9;opacity:1;stroke-width:2;stroke-linejoin:miter;'><!ENTITY E10 'matrix(1.00 0.00 0.00 1.00 0.00 0.00 ) '><!ENTITY E69 'M 10.482 12.156 C 9.063601 9.8878 10.57304 6.5688 13.2149 6.1474 15.8164 5.52346 18.4832 8.0098 18.0432 10.6485 L 17.97693 11.02591 '><!ENTITY E31 'M 5.5001 19.484 10.6493 19.484 16.2743 10.2485 19.3728 10.2485 M 14.6769 17.1481 16.3089 19.4828 19.2202 19.4828 M 5.500199 10.2437 10.7586 10.2437 12.1652 12.8707 '><!ENTITY E46 'matrix(1.00 0.00 0.00 1.00 324.00 4.00 ) '><!ENTITY E1 'stroke:rgb(169,169,169);fill:none;stroke-linecap:butt;stroke-miterlimit:9;opacity:1;stroke-width:1;stroke-linejoin:miter;'><!ENTITY E4 'matrix(1.00 0.00 0.00 1.00 804.00 4.00 ) '><!ENTITY E24 'matrix(1.00 0.00 0.00 1.00 564.00 4.00 ) '><!ENTITY E47 'M 11.529 25.444 20.7834 12.908 16.3203 12.908 18.355 4.7687 9.100601 17.3047 13.5637 17.3047 z '><!ENTITY E26 'matrix(1.00 0.00 0.00 1.00 564.00 164.00 ) '><!ENTITY E7 'stroke:rgb(255,255,255);fill:none;stroke-linecap:butt;stroke-miterlimit:9;opacity:1;stroke-width:2;stroke-linejoin:miter;'><!ENTITY E11 'matrix(1.00 0.00 0.00 1.00 724.00 4.00 ) '><!ENTITY E29 'M 19.156 13.888 19.156 10.3647 19.156 6.841399 25.2585 10.3647 22.2072 12.1264 z '><!ENTITY E19 'matrix(1.00 0.00 0.00 1.00 644.00 4.00 ) '><!ENTITY E28 'matrix(1.00 0.00 0.00 1.00 484.00 4.00 ) '><!ENTITY E30 'M 19.156 22.97 19.156 19.4467 19.156 15.9234 25.2585 19.4467 22.2072 21.2084 z '><!ENTITY E42 'matrix(1.00 0.00 0.00 1.00 404.00 164.00 ) '><!ENTITY E67 'matrix(1.00 0.00 0.00 1.00 4.00 4.00 ) '><!ENTITY E22 'stroke:none;opacity:1;fill:rgb(255,255,255);'><!ENTITY E38 'M 16.849 10.062 23.4027 10.062 M 16.6038 19.6084 23.3505 19.6084 M 12.3075 17.1615 7.5719 21.8971 M 7.577335 17.152 12.31704 21.8917 M 6.564136 10.0047 13.30904 10.0047 M 9.936636 6.6288 9.936636 13.3806 '><!ENTITY E71 'matrix(1.00 0.00 0.00 1.00 4.00 84.00 ) '><!ENTITY E59 'matrix(1.00 0.00 0.00 1.00 84.00 4.00 ) '><!ENTITY E44 'matrix(1.00 0.00 0.00 1.00 404.00 244.00 ) '><!ENTITY E36 'matrix(1.00 0.00 0.00 1.00 484.00 164.00 ) '><!ENTITY E21 'M 12.246 6.0137 12.246 6.019559 C 12.05806 6.020259 11.89471 6.040434 11.76748 6.066434 10.86869 6.352735 10.89631 6.934374 9.87688 7.685534 8.863379 8.264335 8.35338 7.819914 7.61518 8.419914 6.87845 9.015514 7.39292 10.38251 7.08393 10.64841 6.77722 11.18001 5.82553 11.65471 5.65233 12.32611 5.50916 13.18481 6.04191 13.79701 6.02147 14.53311 6.08287 15.14641 5.41127 15.49489 5.5078 15.99211 5.79702 16.80421 6.35438 17.29221 6.6172 17.51751 6.663351 17.54951 6.700028 17.5985 6.714856 17.6015 6.790713 17.792 6.858586 17.98645 6.955086 18.16595 6.949606 18.13995 6.948576 18.11382 6.943367 18.08782 6.998228 18.30542 7.055077 18.52401 7.132816 18.73821 8.683116 22.09901 12.81412 24.68611 17.34182 24.11711 19.54102 23.84771 22.82442 22.33171 24.16602 18.73821 23.22044 19.58671 21.53152 20.32421 20.77732 20.38081 23.33002 19.10511 24.70712 16.93741 24.32031 13.97461 23.79154 15.23341 23.09341 16.20131 22.22071 16.86521 24.07451 13.97551 23.75691 12.48131 22.38478 10.83981 23.36615 13.53881 22.09719 16.53431 19.33208 18.66401 20.45238 18.78541 21.51657 18.51614 22.50198 17.71284 21.01318 19.37354 19.14968 20.20834 17.01368 20.43554 18.03358 21.30254 19.01818 21.69454 19.95898 21.52734 17.34458 22.24884 15.15478 21.45428 12.49018 18.80074 12.3507 19.51504 13.10514 20.62754 13.88278 21.33784 9.373278 19.38284 8.976177 13.29584 14.46872 11.79294 14.47202 11.79294 14.47518 11.79384 14.47848 11.79294 17.74978 13.70674 21.86528 13.58084 22.05078 12.34372 22.50885 10.86082 19.96508 7.805223 16.16208 7.007823 15.4618 6.871123 14.79228 6.817344 14.15428 6.835943 14.16706 6.835943 14.17858 6.836182 14.19139 6.826178 13.58399 6.177278 12.80989 6.011678 12.24609 6.013678 z M 17.17769 9.046878 C 17.72373 9.046878 18.22259 9.543848 18.22259 10.08988 18.22259 10.63598 17.72371 11.13288 17.17769 11.13288 16.63165 11.13288 16.13469 10.63601 16.13469 10.08988 16.13474 9.543879 16.63162 9.046778 17.17769 9.046878 z '><!ENTITY E35 'M 31.179 5.2 C 34.9985 11.0918 34.9814 18.682 31.13552 24.557 '><!ENTITY E68 'M 8.5404 18.526 C 8.154759 18.14036 8.426559 17.3734 8.7512 17.0487 9.0693 16.7306 9.8857 16.65478 10.3397 17.03595 L 12.5301 18.80525 12.82094 9.664146 C 12.82094 9.305857 13.42471 8.739877 14.05254 8.739877 14.79871 8.739877 15.36764 9.316096 15.36764 9.695367 L 15.5586 15.04327 20.0645 16.74627 C 20.25033 16.81 20.49544 16.99536 20.49518 17.22225 L 20.49808 21.04985 19.11318 23.37955 19.11318 24.51755 13.23218 24.51755 13.23218 23.37955 z '><!ENTITY E63 'matrix(1.00 0.00 0.00 1.00 84.00 84.00 ) '><!ENTITY E40 'matrix(1.00 0.00 0.00 1.00 484.00 244.00 ) '><!ENTITY E12 'stroke:none;opacity:1;fill:rgb(68,154,223);'><!ENTITY E51 'matrix(1.00 0.00 0.00 1.00 324.00 84.00 ) '><!ENTITY E20 'stroke:none;opacity:1;fill:rgb(238,192,75);'><!ENTITY E55 'matrix(1.00 0.00 0.00 1.00 244.00 4.00 ) '>
]>
<svg width="858.4459" height="292.8252" id="SvgGdi_output" xmlns="http://www.w3.org/2000/svg" xmlns:xlink="http://www.w3.org/1999/xlink">
  <style>text { fill: #000; } @media (prefers-color-scheme: dark) { text { fill: #eee; } }</style>
  <rect id="background" height="100.00%" style="fill:none;" width="100.00%" y="0.00" x="0.00" />
  <g style="shape-rendering:auto;" id="root_group">
    <line y1="19.00" style="stroke:rgb(169,169,169);fill:none;stroke-linecap:butt;stroke-miterlimit:9;opacity:1;stroke-width:1;stroke-linejoin:miter;" id="2" x2="800.00" y2="19.00" x1="758.00" />
    <line y1="19.00" style="stroke:rgb(169,169,169);fill:none;stroke-linecap:butt;stroke-miterlimit:9;opacity:1;stroke-width:1;stroke-linejoin:miter;" id="3" x2="720.00" y2="19.00" x1="678.00" />
    <line y1="19.00" style="stroke:rgb(169,169,169);fill:none;stroke-linecap:butt;stroke-miterlimit:9;opacity:1;stroke-width:1;stroke-linejoin:miter;" id="4" x2="640.00" y2="19.00" x1="598.00" />
    <line y1="179.00" style="stroke:rgb(169,169,169);fill:none;stroke-linecap:butt;stroke-miterlimit:9;opacity:1;stroke-width:1;stroke-linejoin:miter;" id="5" x2="640.00" y2="19.00" x1="598.00" />
    <line y1="19.00" style="stroke:rgb(169,169,169);fill:none;stroke-linecap:butt;stroke-miterlimit:9;opacity:1;stroke-width:1;stroke-linejoin:miter;" id="6" x2="560.00" y2="19.00" x1="518.00" />
    <line y1="99.00" style="stroke:rgb(169,169,169);fill:none;stroke-linecap:butt;stroke-miterlimit:9;opacity:1;stroke-width:1;stroke-linejoin:miter;" id="7" x2="560.00" y2="19.00" x1="518.00" />
    <line y1="179.00" style="stroke:rgb(169,169,169);fill:none;stroke-linecap:butt;stroke-miterlimit:9;opacity:1;stroke-width:1;stroke-linejoin:miter;" id="8" x2="560.00" y2="179.00" x1="518.00" />
    <line y1="259.00" style="stroke:rgb(169,169,169);fill:none;stroke-linecap:butt;stroke-miterlimit:9;opacity:1;stroke-width:1;stroke-linejoin:miter;" id="9" x2="560.00" y2="179.00" x1="518.00" />
    <line y1="19.00" style="stroke:rgb(169,169,169);fill:none;stroke-linecap:butt;stroke-miterlimit:9;opacity:1;stroke-width:1;stroke-linejoin:miter;" id="10" x2="480.00" y2="19.00" x1="438.00" />
    <line y1="99.00" style="stroke:rgb(169,169,169);fill:none;stroke-linecap:butt;stroke-miterlimit:9;opacity:1;stroke-width:1;stroke-linejoin:miter;" id="11" x2="480.00" y2="99.00" x1="438.00" />
    <line y1="179.00" style="stroke:rgb(169,169,169);fill:none;stroke-linecap:butt;stroke-miterlimit:9;opacity:1;stroke-width:1;stroke-linejoin:miter;" id="12" x2="480.00" y2="179.00" x1="438.00" />
    <line y1="259.00" style="stroke:rgb(169,169,169);fill:none;stroke-linecap:butt;stroke-miterlimit:9;opacity:1;stroke-width:1;stroke-linejoin:miter;" id="13" x2="480.00" y2="259.00" x1="438.00" />
    <line y1="19.00" style="stroke:rgb(169,169,169);fill:none;stroke-linecap:butt;stroke-miterlimit:9;opacity:1;stroke-width:1;stroke-linejoin:miter;" id="14" x2="400.00" y2="19.00" x1="358.00" />
    <line y1="19.00" style="stroke:rgb(169,169,169);fill:none;stroke-linecap:butt;stroke-miterlimit:9;opacity:1;stroke-width:1;stroke-linejoin:miter;" id="15" x2="400.00" y2="179.00" x1="358.00" />
    <line y1="99.00" style="stroke:rgb(169,169,169);fill:none;stroke-linecap:butt;stroke-miterlimit:9;opacity:1;stroke-width:1;stroke-linejoin:miter;" id="16" x2="400.00" y2="99.00" x1="358.00" />
    <line y1="99.00" style="stroke:rgb(169,169,169);fill:none;stroke-linecap:butt;stroke-miterlimit:9;opacity:1;stroke-width:1;stroke-linejoin:miter;" id="17" x2="400.00" y2="259.00" x1="358.00" />
    <line y1="19.00" style="stroke:rgb(169,169,169);fill:none;stroke-linecap:butt;stroke-miterlimit:9;opacity:1;stroke-width:1;stroke-linejoin:miter;" id="18" x2="320.00" y2="19.00" x1="278.00" />
    <line y1="19.00" style="stroke:rgb(169,169,169);fill:none;stroke-linecap:butt;stroke-miterlimit:9;opacity:1;stroke-width:1;stroke-linejoin:miter;" id="19" x2="320.00" y2="99.00" x1="278.00" />
    <line y1="19.00" style="stroke:rgb(169,169,169);fill:none;stroke-linecap:butt;stroke-miterlimit:9;opacity:1;stroke-width:1;stroke-linejoin:miter;" id="20" x2="240.00" y2="19.00" x1="198.00" />
    <line y1="19.00" style="stroke:rgb(169,169,169);fill:none;stroke-linecap:butt;stroke-miterlimit:9;opacity:1;stroke-width:1;stroke-linejoin:miter;" id="21" x2="160.00" y2="19.00" x1="118.00" />
    <line y1="99.00" style="stroke:rgb(169,169,169);fill:none;stroke-linecap:butt;stroke-miterlimit:9;opacity:1;stroke-width:1;stroke-linejoin:miter;" id="22" x2="160.00" y2="19.00" x1="118.00" />
    <line y1="19.00" style="stroke:rgb(169,169,169);fill:none;stroke-linecap:butt;stroke-miterlimit:9;opacity:1;stroke-width:1;stroke-linejoin:miter;" id="23" x2="80.00" y2="19.00" x1="38.00" />
    <line y1="99.00" style="stroke:rgb(169,169,169);fill:none;stroke-linecap:butt;stroke-miterlimit:9;opacity:1;stroke-width:1;stroke-linejoin:miter;" id="24" x2="80.00" y2="99.00" x1="38.00" />
    <path style="stroke:rgb(169,169,169);fill:none;stroke-linecap:butt;stroke-miterlimit:9;opacity:1;stroke-width:2;stroke-linejoin:miter;" transform="matrix(1.00 0.00 0.00 1.00 804.00 4.00 ) " id="58" d="M 10.158 33.2 C 3.4054 31.7591 -1.861 26.4692 -3.271 19.71 " />
    <ellipse id="59" cy="15.00" cx="15.00" transform="matrix(1.00 0.00 0.00 1.00 804.00 4.00 ) " rx="15.00" ry="15.00" style="stroke:none;opacity:1;fill:rgb(155,91,179);" />
    <path style="stroke:rgb(255,255,255);fill:none;stroke-linecap:butt;stroke-miterlimit:9;opacity:1;stroke-width:2;stroke-linejoin:miter;" transform="matrix(1.00 0.00 0.00 1.00 804.00 4.00 ) " id="65" d="M 7.3965 19.566 7.3965 10.8433 " />
    <path style="stroke:rgb(255,255,255);fill:none;stroke-linecap:butt;stroke-miterlimit:9;opacity:1;stroke-width:2;stroke-linejoin:miter;" transform="matrix(1.00 0.00 0.00 1.00 804.00 4.00 ) " id="66" d="M 11.085 22.137 14.2178 8.273999 " />
    <ellipse id="67" cy="15.15" cx="20.49" transform="matrix(1.00 0.00 0.00 1.00 804.00 4.00 ) " rx="4.18" ry="4.18" style="stroke:rgb(255,255,255);fill:none;stroke-linecap:butt;stroke-miterlimit:9;opacity:1;stroke-width:2;stroke-linejoin:miter;" />
    <text id="68" transform="matrix(1.00 0.00 0.00 1.00 0.00 0.00 ) " x="804.00px" y="39.00px" style="stroke:none;clip-path:url(#70_text_clipper);font-family:Microsoft Sans Serif;font-size:8.25pt;opacity:1;">
      <tspan dy="8.25pt" id="72">CsvWriter</tspan>
    </text>
    <ellipse id="76" cy="15.00" cx="15.00" transform="matrix(1.00 0.00 0.00 1.00 724.00 4.00 ) " rx="15.00" ry="15.00" style="stroke:none;opacity:1;fill:rgb(68,154,223);" />
    <path style="stroke:none;fill-rule:evenodd;opacity:1;fill:rgb(255,255,255);" transform="matrix(1.00 0.00 0.00 1.00 724.00 4.00 ) " id="82" d="M 10.824 9.4752 3.5613 15.0588 10.824 20.6107 10.81521 18.3247 6.519011 15.0267 10.82391 11.7422 z " />
    <path style="stroke:none;fill-rule:evenodd;opacity:1;fill:rgb(255,255,255);" transform="matrix(1.00 0.00 0.00 1.00 724.00 4.00 ) " id="83" d="M 15.365 7.2336 C 15.34647 7.33547 15.32125 7.4371 15.31422 7.5375 14.41077 12.6441 13.49692 17.7495 12.59942 22.8575 12.59508 22.88635 12.6018 22.91223 12.59942 22.94062 L 14.62872 22.94062 C 14.70348 22.53324 14.73679 22.1026 14.8377 21.71462 15.68204 16.94102 16.5365 12.17012 17.3748 7.394619 17.38163 7.340435 17.37866 7.287239 17.3787 7.233579 z " />
    <path style="stroke:none;fill-rule:evenodd;opacity:1;fill:rgb(255,255,255);" transform="matrix(1.00 0.00 0.00 1.00 724.00 4.00 ) " id="84" d="M 19.044 9.4746 26.3067 15.0582 19.044 20.6101 19.05279 18.3241 23.34899 15.0261 19.04409 11.7416 z " />
    <text id="85" transform="matrix(1.00 0.00 0.00 1.00 0.00 0.00 ) " x="724.00px" y="39.00px" style="stroke:none;clip-path:url(#87_text_clipper);font-family:Microsoft Sans Serif;font-size:8.25pt;opacity:1;">
      <tspan dy="8.25pt" id="89">Expression</tspan>
    </text>
    <text id="91" transform="matrix(1.00 0.00 0.00 1.00 0.00 0.00 ) " x="724.00px" y="51.45px" style="stroke:none;clip-path:url(#93_text_clipper);font-family:Microsoft Sans Serif;font-size:8.25pt;opacity:1;">
      <tspan dy="8.25pt" id="95">Transform</tspan>
    </text>
    <ellipse id="99" cy="15.00" cx="15.00" transform="matrix(1.00 0.00 0.00 1.00 644.00 4.00 ) " rx="15.00" ry="15.00" style="stroke:none;opacity:1;fill:rgb(238,192,75);" />
    <path d="M 12.246 6.0137 12.246 6.019559 C 12.05806 6.020259 11.89471 6.040434 11.76748 6.066434 10.86869 6.352735 10.89631 6.934374 9.87688 7.685534 8.863379 8.264335 8.35338 7.819914 7.61518 8.419914 6.87845 9.015514 7.39292 10.38251 7.08393 10.64841 6.77722 11.18001 5.82553 11.65471 5.65233 12.32611 5.50916 13.18481 6.04191 13.79701 6.02147 14.53311 6.08287 15.14641 5.41127 15.49489 5.5078 15.99211 5.79702 16.80421 6.35438 17.29221 6.6172 17.51751 6.663351 17.54951 6.700028 17.5985 6.714856 17.6015 6.790713 17.792 6.858586 17.98645 6.955086 18.16595 6.949606 18.13995 6.948576 18.11382 6.943367 18.08782 6.998228 18.30542 7.055077 18.52401 7.132816 18.73821 8.683116 22.09901 12.81412 24.68611 17.34182 24.11711 19.54102 23.84771 22.82442 22.33171 24.16602 18.73821 23.22044 19.58671 21.53152 20.32421 20.77732 20.38081 23.33002 19.10511 24.70712 16.93741 24.32031 13.97461 23.79154 15.23341 23.09341 16.20131 22.22071 16.86521 24.07451 13.97551 23.75691 12.48131 22.38478 10.83981 23.36615 13.53881 22.09719 16.53431 19.33208 18.66401 20.45238 18.78541 21.51657 18.51614 22.50198 17.71284 21.01318 19.37354 19.14968 20.20834 17.01368 20.43554 18.03358 21.30254 19.01818 21.69454 19.95898 21.52734 17.34458 22.24884 15.15478 21.45428 12.49018 18.80074 12.3507 19.51504 13.10514 20.62754 13.88278 21.33784 9.373278 19.38284 8.976177 13.29584 14.46872 11.79294 14.47202 11.79294 14.47518 11.79384 14.47848 11.79294 17.74978 13.70674 21.86528 13.58084 22.05078 12.34372 22.50885 10.86082 19.96508 7.805223 16.16208 7.007823 15.4618 6.871123 14.79228 6.817344 14.15428 6.835943 14.16706 6.835943 14.17858 6.836182 14.19139 6.826178 13.58399 6.177278 12.80989 6.011678 12.24609 6.013678 z M 17.17769 9.046878 C 17.72373 9.046878 18.22259 9.543848 18.22259 10.08988 18.22259 10.63598 17.72371 11.13288 17.17769 11.13288 16.63165 11.13288 16.13469 10.63601 16.13469 10.08988 16.13474 9.543879 16.63162 9.046778 17.17769 9.046878 z " style="stroke:none;fill-rule:evenodd;opacity:1;fill:rgb(255,255,255);" transform="matrix(1.00 0.00 0.00 1.00 644.00 4.00 ) " id="102" />
    <ellipse id="103" cy="19.00" cx="644.00" rx="3.00" ry="3.00" style="stroke:rgb(169,169,169);fill:none;stroke-linecap:butt;stroke-miterlimit:9;opacity:1;stroke-width:2;stroke-linejoin:miter;" />
    <ellipse id="104" cy="19.00" cx="644.00" rx="3.00" ry="3.00" style="stroke:none;opacity:1;fill:rgb(255,255,255);" />
    <text id="105" transform="matrix(1.00 0.00 0.00 1.00 0.00 0.00 ) " x="644.00px" y="39.00px" style="stroke:none;clip-path:url(#107_text_clipper);font-family:Microsoft Sans Serif;font-size:8.25pt;opacity:1;">
      <tspan dy="8.25pt" id="109">Zip</tspan>
    </text>
    <ellipse id="111" cy="15.00" cx="15.00" transform="matrix(1.00 0.00 0.00 1.00 564.00 4.00 ) " rx="15.00" ry="15.00" style="stroke:none;opacity:1;fill:rgb(238,192,75);" />
    <path d="M 12.246 6.0137 12.246 6.019559 C 12.05806 6.020259 11.89471 6.040434 11.76748 6.066434 10.86869 6.352735 10.89631 6.934374 9.87688 7.685534 8.863379 8.264335 8.35338 7.819914 7.61518 8.419914 6.87845 9.015514 7.39292 10.38251 7.08393 10.64841 6.77722 11.18001 5.82553 11.65471 5.65233 12.32611 5.50916 13.18481 6.04191 13.79701 6.02147 14.53311 6.08287 15.14641 5.41127 15.49489 5.5078 15.99211 5.79702 16.80421 6.35438 17.29221 6.6172 17.51751 6.663351 17.54951 6.700028 17.5985 6.714856 17.6015 6.790713 17.792 6.858586 17.98645 6.955086 18.16595 6.949606 18.13995 6.948576 18.11382 6.943367 18.08782 6.998228 18.30542 7.055077 18.52401 7.132816 18.73821 8.683116 22.09901 12.81412 24.68611 17.34182 24.11711 19.54102 23.84771 22.82442 22.33171 24.16602 18.73821 23.22044 19.58671 21.53152 20.32421 20.77732 20.38081 23.33002 19.10511 24.70712 16.93741 24.32031 13.97461 23.79154 15.23341 23.09341 16.20131 22.22071 16.86521 24.07451 13.97551 23.75691 12.48131 22.38478 10.83981 23.36615 13.53881 22.09719 16.53431 19.33208 18.66401 20.45238 18.78541 21.51657 18.51614 22.50198 17.71284 21.01318 19.37354 19.14968 20.20834 17.01368 20.43554 18.03358 21.30254 19.01818 21.69454 19.95898 21.52734 17.34458 22.24884 15.15478 21.45428 12.49018 18.80074 12.3507 19.51504 13.10514 20.62754 13.88278 21.33784 9.373278 19.38284 8.976177 13.29584 14.46872 11.79294 14.47202 11.79294 14.47518 11.79384 14.47848 11.79294 17.74978 13.70674 21.86528 13.58084 22.05078 12.34372 22.50885 10.86082 19.96508 7.805223 16.16208 7.007823 15.4618 6.871123 14.79228 6.817344 14.15428 6.835943 14.16706 6.835943 14.17858 6.836182 14.19139 6.826178 13.58399 6.177278 12.80989 6.011678 12.24609 6.013678 z M 17.17769 9.046878 C 17.72373 9.046878 18.22259 9.543848 18.22259 10.08988 18.22259 10.63598 17.72371 11.13288 17.17769 11.13288 16.63165 11.13288 16.13469 10.63601 16.13469 10.08988 16.13474 9.543879 16.63162 9.046778 17.17769 9.046878 z " style="stroke:none;fill-rule:evenodd;opacity:1;fill:rgb(255,255,255);" transform="matrix(1.00 0.00 0.00 1.00 564.00 4.00 ) " id="112" />
    <ellipse id="113" cy="19.00" cx="564.00" rx="3.00" ry="3.00" style="stroke:rgb(169,169,169);fill:none;stroke-linecap:butt;stroke-miterlimit:9;opacity:1;stroke-width:2;stroke-linejoin:miter;" />
    <ellipse id="114" cy="19.00" cx="564.00" rx="3.00" ry="3.00" style="stroke:none;opacity:1;fill:rgb(255,255,255);" />
    <text id="115" transform="matrix(1.00 0.00 0.00 1.00 0.00 0.00 ) " x="564.00px" y="39.00px" style="stroke:none;clip-path:url(#117_text_clipper);font-family:Microsoft Sans Serif;font-size:8.25pt;opacity:1;">
      <tspan dy="8.25pt" id="119">Merge</tspan>
    </text>
    <ellipse id="121" cy="15.00" cx="15.00" transform="matrix(1.00 0.00 0.00 1.00 564.00 164.00 ) " rx="15.00" ry="15.00" style="stroke:none;opacity:1;fill:rgb(238,192,75);" />
    <path d="M 12.246 6.0137 12.246 6.019559 C 12.05806 6.020259 11.89471 6.040434 11.76748 6.066434 10.86869 6.352735 10.89631 6.934374 9.87688 7.685534 8.863379 8.264335 8.35338 7.819914 7.61518 8.419914 6.87845 9.015514 7.39292 10.38251 7.08393 10.64841 6.77722 11.18001 5.82553 11.65471 5.65233 12.32611 5.50916 13.18481 6.04191 13.79701 6.02147 14.53311 6.08287 15.14641 5.41127 15.49489 5.5078 15.99211 5.79702 16.80421 6.35438 17.29221 6.6172 17.51751 6.663351 17.54951 6.700028 17.5985 6.714856 17.6015 6.790713 17.792 6.858586 17.98645 6.955086 18.16595 6.949606 18.13995 6.948576 18.11382 6.943367 18.08782 6.998228 18.30542 7.055077 18.52401 7.132816 18.73821 8.683116 22.09901 12.81412 24.68611 17.34182 24.11711 19.54102 23.84771 22.82442 22.33171 24.16602 18.73821 23.22044 19.58671 21.53152 20.32421 20.77732 20.38081 23.33002 19.10511 24.70712 16.93741 24.32031 13.97461 23.79154 15.23341 23.09341 16.20131 22.22071 16.86521 24.07451 13.97551 23.75691 12.48131 22.38478 10.83981 23.36615 13.53881 22.09719 16.53431 19.33208 18.66401 20.45238 18.78541 21.51657 18.51614 22.50198 17.71284 21.01318 19.37354 19.14968 20.20834 17.01368 20.43554 18.03358 21.30254 19.01818 21.69454 19.95898 21.52734 17.34458 22.24884 15.15478 21.45428 12.49018 18.80074 12.3507 19.51504 13.10514 20.62754 13.88278 21.33784 9.373278 19.38284 8.976177 13.29584 14.46872 11.79294 14.47202 11.79294 14.47518 11.79384 14.47848 11.79294 17.74978 13.70674 21.86528 13.58084 22.05078 12.34372 22.50885 10.86082 19.96508 7.805223 16.16208 7.007823 15.4618 6.871123 14.79228 6.817344 14.15428 6.835943 14.16706 6.835943 14.17858 6.836182 14.19139 6.826178 13.58399 6.177278 12.80989 6.011678 12.24609 6.013678 z M 17.17769 9.046878 C 17.72373 9.046878 18.22259 9.543848 18.22259 10.08988 18.22259 10.63598 17.72371 11.13288 17.17769 11.13288 16.63165 11.13288 16.13469 10.63601 16.13469 10.08988 16.13474 9.543879 16.63162 9.046778 17.17769 9.046878 z " style="stroke:none;fill-rule:evenodd;opacity:1;fill:rgb(255,255,255);" transform="matrix(1.00 0.00 0.00 1.00 564.00 164.00 ) " id="122" />
    <ellipse id="123" cy="179.00" cx="564.00" rx="3.00" ry="3.00" style="stroke:rgb(169,169,169);fill:none;stroke-linecap:butt;stroke-miterlimit:9;opacity:1;stroke-width:2;stroke-linejoin:miter;" />
    <ellipse id="124" cy="179.00" cx="564.00" rx="3.00" ry="3.00" style="stroke:none;opacity:1;fill:rgb(255,255,255);" />
    <text id="125" transform="matrix(1.00 0.00 0.00 1.00 0.00 0.00 ) " x="564.00px" y="199.00px" style="stroke:none;clip-path:url(#127_text_clipper);font-family:Microsoft Sans Serif;font-size:8.25pt;opacity:1;">
      <tspan dy="8.25pt" id="129">Merge</tspan>
    </text>
    <ellipse id="131" cy="15.00" cx="15.00" transform="matrix(1.00 0.00 0.00 1.00 484.00 4.00 ) " rx="15.00" ry="15.00" style="stroke:none;opacity:1;fill:rgb(68,154,223);" />
    <path d="M 19.156 13.888 19.156 10.3647 19.156 6.841399 25.2585 10.3647 22.2072 12.1264 z " style="stroke:none;fill-rule:evenodd;opacity:1;fill:rgb(255,255,255);" transform="matrix(1.00 0.00 0.00 1.00 484.00 4.00 ) " id="136" />
    <path d="M 19.156 22.97 19.156 19.4467 19.156 15.9234 25.2585 19.4467 22.2072 21.2084 z " style="stroke:none;fill-rule:evenodd;opacity:1;fill:rgb(255,255,255);" transform="matrix(1.00 0.00 0.00 1.00 484.00 4.00 ) " id="137" />
    <path d="M 5.5001 19.484 10.6493 19.484 16.2743 10.2485 19.3728 10.2485 M 14.6769 17.1481 16.3089 19.4828 19.2202 19.4828 M 5.500199 10.2437 10.7586 10.2437 12.1652 12.8707 " style="stroke:rgb(255,255,255);fill:none;stroke-linecap:butt;stroke-miterlimit:9;opacity:1;stroke-width:2;stroke-linejoin:miter;" transform="matrix(1.00 0.00 0.00 1.00 484.00 4.00 ) " id="138" />
    <text id="139" transform="matrix(1.00 0.00 0.00 1.00 0.00 0.00 ) " x="484.00px" y="39.00px" style="stroke:none;clip-path:url(#141_text_clipper);font-family:Microsoft Sans Serif;font-size:8.25pt;opacity:1;">
      <tspan dy="8.25pt" id="143">Seconds</tspan>
    </text>
    <ellipse id="145" cy="15.00" cx="15.00" transform="matrix(1.00 0.00 0.00 1.00 484.00 84.00 ) " rx="15.00" ry="15.00" style="stroke:none;opacity:1;fill:rgb(68,154,223);" />
    <path d="M 19.156 13.888 19.156 10.3647 19.156 6.841399 25.2585 10.3647 22.2072 12.1264 z " style="stroke:none;fill-rule:evenodd;opacity:1;fill:rgb(255,255,255);" transform="matrix(1.00 0.00 0.00 1.00 484.00 84.00 ) " id="146" />
    <path d="M 19.156 22.97 19.156 19.4467 19.156 15.9234 25.2585 19.4467 22.2072 21.2084 z " style="stroke:none;fill-rule:evenodd;opacity:1;fill:rgb(255,255,255);" transform="matrix(1.00 0.00 0.00 1.00 484.00 84.00 ) " id="147" />
    <path d="M 5.5001 19.484 10.6493 19.484 16.2743 10.2485 19.3728 10.2485 M 14.6769 17.1481 16.3089 19.4828 19.2202 19.4828 M 5.500199 10.2437 10.7586 10.2437 12.1652 12.8707 " style="stroke:rgb(255,255,255);fill:none;stroke-linecap:butt;stroke-miterlimit:9;opacity:1;stroke-width:2;stroke-linejoin:miter;" transform="matrix(1.00 0.00 0.00 1.00 484.00 84.00 ) " id="148" />
    <text id="149" transform="matrix(1.00 0.00 0.00 1.00 0.00 0.00 ) " x="484.00px" y="119.00px" style="stroke:none;clip-path:url(#151_text_clipper);font-family:Microsoft Sans Serif;font-size:8.25pt;opacity:1;">
      <tspan dy="8.25pt" id="153">Seconds</tspan>
    </text>
    <path d="M 31.179 5.2 C 34.9985 11.0918 34.9814 18.682 31.13552 24.557 " style="stroke:rgb(169,169,169);fill:none;stroke-linecap:butt;stroke-miterlimit:9;opacity:1;stroke-width:2;stroke-linejoin:miter;" transform="matrix(1.00 0.00 0.00 1.00 484.00 164.00 ) " id="158" />
    <ellipse id="159" cy="15.00" cx="15.00" transform="matrix(1.00 0.00 0.00 1.00 484.00 164.00 ) " rx="15.00" ry="15.00" style="stroke:none;opacity:1;fill:rgb(91,178,126);" />
    <path d="M 16.849 10.062 23.4027 10.062 M 16.6038 19.6084 23.3505 19.6084 M 12.3075 17.1615 7.5719 21.8971 M 7.577335 17.152 12.31704 21.8917 M 6.564136 10.0047 13.30904 10.0047 M 9.936636 6.6288 9.936636 13.3806 " style="stroke:rgb(255,255,255);fill:none;stroke-linecap:butt;stroke-miterlimit:9;opacity:1;stroke-width:2;stroke-linejoin:miter;" transform="matrix(1.00 0.00 0.00 1.00 484.00 164.00 ) " id="164" />
    <ellipse id="165" cy="16.33" cx="19.93" transform="matrix(1.00 0.00 0.00 1.00 484.00 164.00 ) " rx="1.30" ry="1.30" style="stroke:none;opacity:1;fill:rgb(255,255,255);" />
    <ellipse id="166" cy="22.83" cx="19.93" transform="matrix(1.00 0.00 0.00 1.00 484.00 164.00 ) " rx="1.30" ry="1.30" style="stroke:none;opacity:1;fill:rgb(255,255,255);" />
    <text id="167" transform="matrix(1.00 0.00 0.00 1.00 0.00 0.00 ) " x="484.00px" y="199.00px" style="stroke:none;clip-path:url(#169_text_clipper);font-family:Microsoft Sans Serif;font-size:8.25pt;opacity:1;">
      <tspan dy="8.25pt" id="171">Boolean</tspan>
    </text>
    <path d="M 31.179 5.2 C 34.9985 11.0918 34.9814 18.682 31.13552 24.557 " style="stroke:rgb(169,169,169);fill:none;stroke-linecap:butt;stroke-miterlimit:9;opacity:1;stroke-width:2;stroke-linejoin:miter;" transform="matrix(1.00 0.00 0.00 1.00 484.00 244.00 ) " id="173" />
    <ellipse id="174" cy="15.00" cx="15.00" transform="matrix(1.00 0.00 0.00 1.00 484.00 244.00 ) " rx="15.00" ry="15.00" style="stroke:none;opacity:1;fill:rgb(91,178,126);" />
    <path d="M 16.849 10.062 23.4027 10.062 M 16.6038 19.6084 23.3505 19.6084 M 12.3075 17.1615 7.5719 21.8971 M 7.577335 17.152 12.31704 21.8917 M 6.564136 10.0047 13.30904 10.0047 M 9.936636 6.6288 9.936636 13.3806 " style="stroke:rgb(255,255,255);fill:none;stroke-linecap:butt;stroke-miterlimit:9;opacity:1;stroke-width:2;stroke-linejoin:miter;" transform="matrix(1.00 0.00 0.00 1.00 484.00 244.00 ) " id="175" />
    <ellipse id="176" cy="16.33" cx="19.93" transform="matrix(1.00 0.00 0.00 1.00 484.00 244.00 ) " rx="1.30" ry="1.30" style="stroke:none;opacity:1;fill:rgb(255,255,255);" />
    <ellipse id="177" cy="22.83" cx="19.93" transform="matrix(1.00 0.00 0.00 1.00 484.00 244.00 ) " rx="1.30" ry="1.30" style="stroke:none;opacity:1;fill:rgb(255,255,255);" />
    <text id="178" transform="matrix(1.00 0.00 0.00 1.00 0.00 0.00 ) " x="484.00px" y="279.00px" style="stroke:none;clip-path:url(#180_text_clipper);font-family:Microsoft Sans Serif;font-size:8.25pt;opacity:1;">
      <tspan dy="8.25pt" id="182">Boolean</tspan>
    </text>
    <line y1="19.00" style="stroke:rgb(169,169,169);fill:none;stroke-linecap:butt;stroke-miterlimit:9;opacity:1;stroke-width:1;stroke-linejoin:miter;" id="184" x2="438.00" y2="19.00" x1="400.00" />
    <line y1="99.00" style="stroke:rgb(169,169,169);fill:none;stroke-linecap:butt;stroke-miterlimit:9;opacity:1;stroke-width:1;stroke-linejoin:miter;" id="185" x2="438.00" y2="99.00" x1="400.00" />
    <ellipse id="186" cy="15.00" cx="15.00" transform="matrix(1.00 0.00 0.00 1.00 404.00 164.00 ) " rx="15.00" ry="15.00" style="stroke:none;opacity:1;fill:rgb(68,154,223);" />
    <path d="M 19.156 13.888 19.156 10.3647 19.156 6.841399 25.2585 10.3647 22.2072 12.1264 z " style="stroke:none;fill-rule:evenodd;opacity:1;fill:rgb(255,255,255);" transform="matrix(1.00 0.00 0.00 1.00 404.00 164.00 ) " id="187" />
    <path d="M 19.156 22.97 19.156 19.4467 19.156 15.9234 25.2585 19.4467 22.2072 21.2084 z " style="stroke:none;fill-rule:evenodd;opacity:1;fill:rgb(255,255,255);" transform="matrix(1.00 0.00 0.00 1.00 404.00 164.00 ) " id="188" />
    <path d="M 5.5001 19.484 10.6493 19.484 16.2743 10.2485 19.3728 10.2485 M 14.6769 17.1481 16.3089 19.4828 19.2202 19.4828 M 5.500199 10.2437 10.7586 10.2437 12.1652 12.8707 " style="stroke:rgb(255,255,255);fill:none;stroke-linecap:butt;stroke-miterlimit:9;opacity:1;stroke-width:2;stroke-linejoin:miter;" transform="matrix(1.00 0.00 0.00 1.00 404.00 164.00 ) " id="189" />
    <text id="190" transform="matrix(1.00 0.00 0.00 1.00 0.00 0.00 ) " x="404.00px" y="199.00px" style="stroke:none;clip-path:url(#192_text_clipper);font-family:Microsoft Sans Serif;font-size:8.25pt;opacity:1;">
      <tspan dy="8.25pt" id="194">Value</tspan>
    </text>
    <ellipse id="196" cy="15.00" cx="15.00" transform="matrix(1.00 0.00 0.00 1.00 404.00 244.00 ) " rx="15.00" ry="15.00" style="stroke:none;opacity:1;fill:rgb(68,154,223);" />
    <path d="M 19.156 13.888 19.156 10.3647 19.156 6.841399 25.2585 10.3647 22.2072 12.1264 z " style="stroke:none;fill-rule:evenodd;opacity:1;fill:rgb(255,255,255);" transform="matrix(1.00 0.00 0.00 1.00 404.00 244.00 ) " id="197" />
    <path d="M 19.156 22.97 19.156 19.4467 19.156 15.9234 25.2585 19.4467 22.2072 21.2084 z " style="stroke:none;fill-rule:evenodd;opacity:1;fill:rgb(255,255,255);" transform="matrix(1.00 0.00 0.00 1.00 404.00 244.00 ) " id="198" />
    <path d="M 5.5001 19.484 10.6493 19.484 16.2743 10.2485 19.3728 10.2485 M 14.6769 17.1481 16.3089 19.4828 19.2202 19.4828 M 5.500199 10.2437 10.7586 10.2437 12.1652 12.8707 " style="stroke:rgb(255,255,255);fill:none;stroke-linecap:butt;stroke-miterlimit:9;opacity:1;stroke-width:2;stroke-linejoin:miter;" transform="matrix(1.00 0.00 0.00 1.00 404.00 244.00 ) " id="199" />
    <text id="200" transform="matrix(1.00 0.00 0.00 1.00 0.00 0.00 ) " x="404.00px" y="279.00px" style="stroke:none;clip-path:url(#202_text_clipper);font-family:Microsoft Sans Serif;font-size:8.25pt;opacity:1;">
      <tspan dy="8.25pt" id="204">Value</tspan>
    </text>
    <ellipse id="206" cy="15.00" cx="15.00" transform="matrix(1.00 0.00 0.00 1.00 324.00 4.00 ) " rx="15.00" ry="15.00" style="stroke:none;opacity:1;fill:rgb(238,192,75);" />
    <path d="M 11.529 25.444 20.7834 12.908 16.3203 12.908 18.355 4.7687 9.100601 17.3047 13.5637 17.3047 z " style="stroke:none;fill-rule:evenodd;opacity:1;fill:rgb(255,255,255);" transform="matrix(1.00 0.00 0.00 1.00 324.00 4.00 ) " id="209" />
    <text id="210" transform="matrix(1.00 0.00 0.00 1.00 0.00 0.00 ) " x="324.00px" y="39.00px" style="stroke:none;clip-path:url(#212_text_clipper);font-family:Microsoft Sans Serif;font-size:8.25pt;opacity:1;">
      <tspan dy="8.25pt" id="214">Hobgoblin.</tspan>
    </text>
    <text id="216" transform="matrix(1.00 0.00 0.00 1.00 0.00 0.00 ) " x="324.00px" y="51.45px" style="stroke:none;clip-path:url(#218_text_clipper);font-family:Microsoft Sans Serif;font-size:8.25pt;opacity:1;">
      <tspan dy="8.25pt" id="220">Timestamped</tspan>
    </text>
    <text id="222" transform="matrix(1.00 0.00 0.00 1.00 0.00 0.00 ) " x="324.00px" y="63.90px" style="stroke:none;clip-path:url(#224_text_clipper);font-family:Microsoft Sans Serif;font-size:8.25pt;opacity:1;">
      <tspan dy="8.25pt" id="226">DigitalOutputS</tspan>
    </text>
    <ellipse id="228" cy="15.00" cx="15.00" transform="matrix(1.00 0.00 0.00 1.00 324.00 84.00 ) " rx="15.00" ry="15.00" style="stroke:none;opacity:1;fill:rgb(238,192,75);" />
    <path d="M 11.529 25.444 20.7834 12.908 16.3203 12.908 18.355 4.7687 9.100601 17.3047 13.5637 17.3047 z " style="stroke:none;fill-rule:evenodd;opacity:1;fill:rgb(255,255,255);" transform="matrix(1.00 0.00 0.00 1.00 324.00 84.00 ) " id="229" />
    <text id="230" transform="matrix(1.00 0.00 0.00 1.00 0.00 0.00 ) " x="324.00px" y="119.00px" style="stroke:none;clip-path:url(#232_text_clipper);font-family:Microsoft Sans Serif;font-size:8.25pt;opacity:1;">
      <tspan dy="8.25pt" id="234">Hobgoblin.</tspan>
    </text>
    <text id="236" transform="matrix(1.00 0.00 0.00 1.00 0.00 0.00 ) " x="324.00px" y="131.45px" style="stroke:none;clip-path:url(#238_text_clipper);font-family:Microsoft Sans Serif;font-size:8.25pt;opacity:1;">
      <tspan dy="8.25pt" id="240">Timestamped</tspan>
    </text>
    <text id="242" transform="matrix(1.00 0.00 0.00 1.00 0.00 0.00 ) " x="324.00px" y="143.90px" style="stroke:none;clip-path:url(#244_text_clipper);font-family:Microsoft Sans Serif;font-size:8.25pt;opacity:1;">
      <tspan dy="8.25pt" id="246">DigitalOutputCl</tspan>
    </text>
    <path d="M 31.179 5.2 C 34.9985 11.0918 34.9814 18.682 31.13552 24.557 " style="stroke:rgb(169,169,169);fill:none;stroke-linecap:butt;stroke-miterlimit:9;opacity:1;stroke-width:2;stroke-linejoin:miter;" transform="matrix(1.00 0.00 0.00 1.00 244.00 4.00 ) " id="248" />
    <ellipse id="249" cy="15.00" cx="15.00" transform="matrix(1.00 0.00 0.00 1.00 244.00 4.00 ) " rx="15.00" ry="15.00" style="stroke:none;opacity:1;fill:rgb(91,178,126);" />
    <path d="M 11.529 25.444 20.7834 12.908 16.3203 12.908 18.355 4.7687 9.100601 17.3047 13.5637 17.3047 z " style="stroke:none;fill-rule:evenodd;opacity:1;fill:rgb(255,255,255);" transform="matrix(1.00 0.00 0.00 1.00 244.00 4.00 ) " id="250" />
    <text id="251" transform="matrix(1.00 0.00 0.00 1.00 0.00 0.00 ) " x="244.00px" y="39.00px" style="stroke:none;clip-path:url(#253_text_clipper);font-family:Microsoft Sans Serif;font-size:8.25pt;opacity:1;">
      <tspan dy="8.25pt" id="255">Hobgoblin</tspan>
    </text>
    <ellipse id="257" cy="15.00" cx="15.00" transform="matrix(1.00 0.00 0.00 1.00 164.00 4.00 ) " rx="15.00" ry="15.00" style="stroke:none;opacity:1;fill:rgb(238,192,75);" />
    <path d="M 12.246 6.0137 12.246 6.019559 C 12.05806 6.020259 11.89471 6.040434 11.76748 6.066434 10.86869 6.352735 10.89631 6.934374 9.87688 7.685534 8.863379 8.264335 8.35338 7.819914 7.61518 8.419914 6.87845 9.015514 7.39292 10.38251 7.08393 10.64841 6.77722 11.18001 5.82553 11.65471 5.65233 12.32611 5.50916 13.18481 6.04191 13.79701 6.02147 14.53311 6.08287 15.14641 5.41127 15.49489 5.5078 15.99211 5.79702 16.80421 6.35438 17.29221 6.6172 17.51751 6.663351 17.54951 6.700028 17.5985 6.714856 17.6015 6.790713 17.792 6.858586 17.98645 6.955086 18.16595 6.949606 18.13995 6.948576 18.11382 6.943367 18.08782 6.998228 18.30542 7.055077 18.52401 7.132816 18.73821 8.683116 22.09901 12.81412 24.68611 17.34182 24.11711 19.54102 23.84771 22.82442 22.33171 24.16602 18.73821 23.22044 19.58671 21.53152 20.32421 20.77732 20.38081 23.33002 19.10511 24.70712 16.93741 24.32031 13.97461 23.79154 15.23341 23.09341 16.20131 22.22071 16.86521 24.07451 13.97551 23.75691 12.48131 22.38478 10.83981 23.36615 13.53881 22.09719 16.53431 19.33208 18.66401 20.45238 18.78541 21.51657 18.51614 22.50198 17.71284 21.01318 19.37354 19.14968 20.20834 17.01368 20.43554 18.03358 21.30254 19.01818 21.69454 19.95898 21.52734 17.34458 22.24884 15.15478 21.45428 12.49018 18.80074 12.3507 19.51504 13.10514 20.62754 13.88278 21.33784 9.373278 19.38284 8.976177 13.29584 14.46872 11.79294 14.47202 11.79294 14.47518 11.79384 14.47848 11.79294 17.74978 13.70674 21.86528 13.58084 22.05078 12.34372 22.50885 10.86082 19.96508 7.805223 16.16208 7.007823 15.4618 6.871123 14.79228 6.817344 14.15428 6.835943 14.16706 6.835943 14.17858 6.836182 14.19139 6.826178 13.58399 6.177278 12.80989 6.011678 12.24609 6.013678 z M 17.17769 9.046878 C 17.72373 9.046878 18.22259 9.543848 18.22259 10.08988 18.22259 10.63598 17.72371 11.13288 17.17769 11.13288 16.63165 11.13288 16.13469 10.63601 16.13469 10.08988 16.13474 9.543879 16.63162 9.046778 17.17769 9.046878 z " style="stroke:none;fill-rule:evenodd;opacity:1;fill:rgb(255,255,255);" transform="matrix(1.00 0.00 0.00 1.00 164.00 4.00 ) " id="258" />
    <ellipse id="259" cy="19.00" cx="164.00" rx="3.00" ry="3.00" style="stroke:rgb(169,169,169);fill:none;stroke-linecap:butt;stroke-miterlimit:9;opacity:1;stroke-width:2;stroke-linejoin:miter;" />
    <ellipse id="260" cy="19.00" cx="164.00" rx="3.00" ry="3.00" style="stroke:none;opacity:1;fill:rgb(255,255,255);" />
    <text id="261" transform="matrix(1.00 0.00 0.00 1.00 0.00 0.00 ) " x="164.00px" y="39.00px" style="stroke:none;clip-path:url(#263_text_clipper);font-family:Microsoft Sans Serif;font-size:8.25pt;opacity:1;">
      <tspan dy="8.25pt" id="265">Merge</tspan>
    </text>
    <path d="M 31.179 5.2 C 34.9985 11.0918 34.9814 18.682 31.13552 24.557 " style="stroke:rgb(169,169,169);fill:none;stroke-linecap:butt;stroke-miterlimit:9;opacity:1;stroke-width:2;stroke-linejoin:miter;" transform="matrix(1.00 0.00 0.00 1.00 84.00 4.00 ) " id="267" />
    <ellipse id="268" cy="15.00" cx="15.00" transform="matrix(1.00 0.00 0.00 1.00 84.00 4.00 ) " rx="15.00" ry="15.00" style="stroke:none;opacity:1;fill:rgb(91,178,126);" />
    <path d="M 11.529 25.444 20.7834 12.908 16.3203 12.908 18.355 4.7687 9.100601 17.3047 13.5637 17.3047 z " style="stroke:none;fill-rule:evenodd;opacity:1;fill:rgb(255,255,255);" transform="matrix(1.00 0.00 0.00 1.00 84.00 4.00 ) " id="269" />
    <text id="270" transform="matrix(1.00 0.00 0.00 1.00 0.00 0.00 ) " x="84.00px" y="39.00px" style="stroke:none;clip-path:url(#272_text_clipper);font-family:Microsoft Sans Serif;font-size:8.25pt;opacity:1;">
      <tspan dy="8.25pt" id="274">Hobgoblin.</tspan>
    </text>
    <text id="276" transform="matrix(1.00 0.00 0.00 1.00 0.00 0.00 ) " x="84.00px" y="51.45px" style="stroke:none;clip-path:url(#278_text_clipper);font-family:Microsoft Sans Serif;font-size:8.25pt;opacity:1;">
      <tspan dy="8.25pt" id="280">DigitalOutput</tspan>
    </text>
    <text id="282" transform="matrix(1.00 0.00 0.00 1.00 0.00 0.00 ) " x="84.00px" y="63.90px" style="stroke:none;clip-path:url(#284_text_clipper);font-family:Microsoft Sans Serif;font-size:8.25pt;opacity:1;">
      <tspan dy="8.25pt" id="286">SetPayload</tspan>
    </text>
    <path d="M 31.179 5.2 C 34.9985 11.0918 34.9814 18.682 31.13552 24.557 " style="stroke:rgb(169,169,169);fill:none;stroke-linecap:butt;stroke-miterlimit:9;opacity:1;stroke-width:2;stroke-linejoin:miter;" transform="matrix(1.00 0.00 0.00 1.00 84.00 84.00 ) " id="288" />
    <ellipse id="289" cy="15.00" cx="15.00" transform="matrix(1.00 0.00 0.00 1.00 84.00 84.00 ) " rx="15.00" ry="15.00" style="stroke:none;opacity:1;fill:rgb(91,178,126);" />
    <path d="M 11.529 25.444 20.7834 12.908 16.3203 12.908 18.355 4.7687 9.100601 17.3047 13.5637 17.3047 z " style="stroke:none;fill-rule:evenodd;opacity:1;fill:rgb(255,255,255);" transform="matrix(1.00 0.00 0.00 1.00 84.00 84.00 ) " id="290" />
    <text id="291" transform="matrix(1.00 0.00 0.00 1.00 0.00 0.00 ) " x="84.00px" y="119.00px" style="stroke:none;clip-path:url(#293_text_clipper);font-family:Microsoft Sans Serif;font-size:8.25pt;opacity:1;">
      <tspan dy="8.25pt" id="295">Hobgoblin.</tspan>
    </text>
    <text id="297" transform="matrix(1.00 0.00 0.00 1.00 0.00 0.00 ) " x="84.00px" y="131.45px" style="stroke:none;clip-path:url(#299_text_clipper);font-family:Microsoft Sans Serif;font-size:8.25pt;opacity:1;">
      <tspan dy="8.25pt" id="301">DigitalOutput</tspan>
    </text>
    <text id="303" transform="matrix(1.00 0.00 0.00 1.00 0.00 0.00 ) " x="84.00px" y="143.90px" style="stroke:none;clip-path:url(#305_text_clipper);font-family:Microsoft Sans Serif;font-size:8.25pt;opacity:1;">
      <tspan dy="8.25pt" id="307">ClearPayload</tspan>
    </text>
    <path d="M 31.179 5.2 C 34.9985 11.0918 34.9814 18.682 31.13552 24.557 " style="stroke:rgb(169,169,169);fill:none;stroke-linecap:butt;stroke-miterlimit:9;opacity:1;stroke-width:2;stroke-linejoin:miter;" transform="matrix(1.00 0.00 0.00 1.00 4.00 4.00 ) " id="309" />
    <ellipse id="310" cy="15.00" cx="15.00" transform="matrix(1.00 0.00 0.00 1.00 4.00 4.00 ) " rx="15.00" ry="15.00" style="stroke:none;opacity:1;fill:rgb(91,178,126);" />
    <path d="M 8.5404 18.526 C 8.154759 18.14036 8.426559 17.3734 8.7512 17.0487 9.0693 16.7306 9.8857 16.65478 10.3397 17.03595 L 12.5301 18.80525 12.82094 9.664146 C 12.82094 9.305857 13.42471 8.739877 14.05254 8.739877 14.79871 8.739877 15.36764 9.316096 15.36764 9.695367 L 15.5586 15.04327 20.0645 16.74627 C 20.25033 16.81 20.49544 16.99536 20.49518 17.22225 L 20.49808 21.04985 19.11318 23.37955 19.11318 24.51755 13.23218 24.51755 13.23218 23.37955 z " style="stroke:none;fill-rule:evenodd;opacity:1;fill:rgb(255,255,255);" transform="matrix(1.00 0.00 0.00 1.00 4.00 4.00 ) " id="314" />
    <path d="M 10.482 12.156 C 9.063601 9.8878 10.57304 6.5688 13.2149 6.1474 15.8164 5.52346 18.4832 8.0098 18.0432 10.6485 L 17.97693 11.02591 " style="stroke:rgb(255,255,255);fill:none;stroke-linecap:butt;stroke-miterlimit:9;opacity:1;stroke-width:2;stroke-linejoin:miter;" transform="matrix(1.00 0.00 0.00 1.00 4.00 4.00 ) " id="315" />
    <text id="316" transform="matrix(1.00 0.00 0.00 1.00 0.00 0.00 ) " x="4.00px" y="39.00px" style="stroke:none;clip-path:url(#318_text_clipper);font-family:Microsoft Sans Serif;font-size:8.25pt;opacity:1;">
      <tspan dy="8.25pt" id="320">KeyDown</tspan>
    </text>
    <path d="M 31.179 5.2 C 34.9985 11.0918 34.9814 18.682 31.13552 24.557 " style="stroke:rgb(169,169,169);fill:none;stroke-linecap:butt;stroke-miterlimit:9;opacity:1;stroke-width:2;stroke-linejoin:miter;" transform="matrix(1.00 0.00 0.00 1.00 4.00 84.00 ) " id="322" />
    <ellipse id="323" cy="15.00" cx="15.00" transform="matrix(1.00 0.00 0.00 1.00 4.00 84.00 ) " rx="15.00" ry="15.00" style="stroke:none;opacity:1;fill:rgb(91,178,126);" />
    <path d="M 8.5404 18.526 C 8.154759 18.14036 8.426559 17.3734 8.7512 17.0487 9.0693 16.7306 9.8857 16.65478 10.3397 17.03595 L 12.5301 18.80525 12.82094 9.664146 C 12.82094 9.305857 13.42471 8.739877 14.05254 8.739877 14.79871 8.739877 15.36764 9.316096 15.36764 9.695367 L 15.5586 15.04327 20.0645 16.74627 C 20.25033 16.81 20.49544 16.99536 20.49518 17.22225 L 20.49808 21.04985 19.11318 23.37955 19.11318 24.51755 13.23218 24.51755 13.23218 23.37955 z " style="stroke:none;fill-rule:evenodd;opacity:1;fill:rgb(255,255,255);" transform="matrix(1.00 0.00 0.00 1.00 4.00 84.00 ) " id="324" />
    <path d="M 10.482 12.156 C 9.063601 9.8878 10.57304 6.5688 13.2149 6.1474 15.8164 5.52346 18.4832 8.0098 18.0432 10.6485 L 17.97693 11.02591 " style="stroke:rgb(255,255,255);fill:none;stroke-linecap:butt;stroke-miterlimit:9;opacity:1;stroke-width:2;stroke-linejoin:miter;" transform="matrix(1.00 0.00 0.00 1.00 4.00 84.00 ) " id="325" />
    <text id="326" transform="matrix(1.00 0.00 0.00 1.00 0.00 0.00 ) " x="4.00px" y="119.00px" style="stroke:none;clip-path:url(#328_text_clipper);font-family:Microsoft Sans Serif;font-size:8.25pt;opacity:1;">
      <tspan dy="8.25pt" id="330">KeyDown</tspan>
    </text>
  </g>
  <defs id="clips_hatches_and_gradients">
    <clipPath id="70_text_clipper">
      <rect x="804.00" y="39.00" width="53.45" height="13.83" id="71" />
    </clipPath>
    <clipPath id="87_text_clipper">
      <rect x="724.00" y="39.00" width="59.78" height="27.65" id="88" />
    </clipPath>
    <clipPath id="93_text_clipper">
      <rect x="724.00" y="51.45" width="59.78" height="27.65" id="94" />
    </clipPath>
    <clipPath id="107_text_clipper">
      <rect x="644.00" y="39.00" width="19.47" height="13.83" id="108" />
    </clipPath>
    <clipPath id="117_text_clipper">
      <rect x="564.00" y="39.00" width="35.78" height="13.83" id="118" />
    </clipPath>
    <clipPath id="127_text_clipper">
      <rect x="564.00" y="199.00" width="35.78" height="13.83" id="128" />
    </clipPath>
    <clipPath id="141_text_clipper">
      <rect x="484.00" y="39.00" width="47.76" height="13.83" id="142" />
    </clipPath>
    <clipPath id="151_text_clipper">
      <rect x="484.00" y="119.00" width="47.76" height="13.83" id="152" />
    </clipPath>
    <clipPath id="169_text_clipper">
      <rect x="484.00" y="199.00" width="45.31" height="13.83" id="170" />
    </clipPath>
    <clipPath id="180_text_clipper">
      <rect x="484.00" y="279.00" width="45.31" height="13.83" id="181" />
    </clipPath>
    <clipPath id="192_text_clipper">
      <rect x="404.00" y="199.00" width="32.71" height="13.83" id="193" />
    </clipPath>
    <clipPath id="202_text_clipper">
      <rect x="404.00" y="279.00" width="32.71" height="13.83" id="203" />
    </clipPath>
    <clipPath id="212_text_clipper">
      <rect x="324.00" y="39.00" width="76.91" height="41.48" id="213" />
    </clipPath>
    <clipPath id="218_text_clipper">
      <rect x="324.00" y="51.45" width="76.91" height="41.48" id="219" />
    </clipPath>
    <clipPath id="224_text_clipper">
      <rect x="324.00" y="63.90" width="76.91" height="41.48" id="225" />
    </clipPath>
    <clipPath id="232_text_clipper">
      <rect x="324.00" y="119.00" width="77.53" height="41.48" id="233" />
    </clipPath>
    <clipPath id="238_text_clipper">
      <rect x="324.00" y="131.45" width="77.53" height="41.48" id="239" />
    </clipPath>
    <clipPath id="244_text_clipper">
      <rect x="324.00" y="143.90" width="77.53" height="41.48" id="245" />
    </clipPath>
    <clipPath id="253_text_clipper">
      <rect x="244.00" y="39.00" width="54.82" height="13.83" id="254" />
    </clipPath>
    <clipPath id="263_text_clipper">
      <rect x="164.00" y="39.00" width="35.78" height="13.83" id="264" />
    </clipPath>
    <clipPath id="272_text_clipper">
      <rect x="84.00" y="39.00" width="69.36" height="41.48" id="273" />
    </clipPath>
    <clipPath id="278_text_clipper">
      <rect x="84.00" y="51.45" width="69.36" height="41.48" id="279" />
    </clipPath>
    <clipPath id="284_text_clipper">
      <rect x="84.00" y="63.90" width="69.36" height="41.48" id="285" />
    </clipPath>
    <clipPath id="293_text_clipper">
      <rect x="84.00" y="119.00" width="71.81" height="41.48" id="294" />
    </clipPath>
    <clipPath id="299_text_clipper">
      <rect x="84.00" y="131.45" width="71.81" height="41.48" id="300" />
    </clipPath>
    <clipPath id="305_text_clipper">
      <rect x="84.00" y="143.90" width="71.81" height="41.48" id="306" />
    </clipPath>
    <clipPath id="318_text_clipper">
      <rect x="4.00" y="39.00" width="52.15" height="13.83" id="319" />
    </clipPath>
    <clipPath id="328_text_clipper">
      <rect x="4.00" y="119.00" width="52.15" height="13.83" id="329" />
    </clipPath>
  </defs>
</svg>