<?xml version="1.0" standalone="yes"?><!DOCTYPE svg PUBLIC "-//W3C//DTD SVG 1.1//EN" "http://www.w3.org/Graphics/SVG/1.1/DTD/svg11.dtd"[
<!ENTITY E15 'M 11.529 25.444 20.7834 12.908 16.3203 12.908 18.355 4.7687 9.100601 17.3047 13.5637 17.3047 z '><!ENTITY E3 'stroke:rgb(169,169,169);fill:none;stroke-linecap:butt;stroke-miterlimit:9;opacity:1;stroke-width:2;stroke-linejoin:miter;'><!ENTITY E13 'matrix(1.00 0.00 0.00 1.00 0.00 0.00 ) '><!ENTITY E5 'stroke:none;opacity:1;fill:rgb(155,91,179);'><!ENTITY E9 'stroke:rgb(255,255,255);fill:none;stroke-linecap:butt;stroke-miterlimit:9;opacity:1;stroke-width:1.2496;stroke-linejoin:miter;'><!ENTITY E7 'stroke:none;fill-rule:evenodd;opacity:1;fill:rgb(255,255,255);'><!ENTITY E20 'stroke:none;opacity:1;fill:rgb(91,178,126);'><!ENTITY E1 'stroke:rgb(169,169,169);fill:none;stroke-linecap:butt;stroke-miterlimit:9;opacity:1;stroke-width:1;stroke-linejoin:miter;'><!ENTITY E26 'matrix(1.00 0.00 0.00 1.00 4.00 4.00 ) '><!ENTITY E4 'matrix(1.00 0.00 0.00 1.00 164.00 4.00 ) '><!ENTITY E22 'matrix(1.00 0.00 0.00 1.00 84.00 84.00 ) '><!ENTITY E6 'M 11.656 8.2 11.99975 8.7 16.31225 14.7937 11.65605 21.4187 11.28105 21.9187 14.74985 21.9187 14.8436 21.7624 17.9998 17.0124 18.46855 17.7 21.15605 21.7624 21.2498 21.9187 24.7498 21.9187 24.40605 21.4187 19.65605 14.6687 24.06225 8.699997 24.406 8.199997 20.9998 8.199997 20.90605 8.324997 18.68725 11.4187 C 18.46251 11.7285 18.22333 12.1062 17.9685 12.4812 17.77046 12.1547 17.58677 11.8424 17.31225 11.4187 L 15.28105 8.356197 15.1873 8.199997 11.6561 8.199997 z '><!ENTITY E14 'matrix(1.00 0.00 0.00 1.00 164.00 84.00 ) '><!ENTITY E29 'matrix(1.00 0.00 0.00 1.00 4.00 84.00 ) '><!ENTITY E2 'M 10.158 33.2 C 3.4054 31.7591 -1.861 26.4692 -3.271 19.71 '><!ENTITY E19 'matrix(1.00 0.00 0.00 1.00 84.00 4.00 ) '><!ENTITY E18 'M 31.179 5.2 C 34.9985 11.0918 34.9814 18.682 31.13552 24.557 '>
]><svg width="214.6378" height="146.6504" id="SvgGdi_output" xmlns="http://www.w3.org/2000/svg" xmlns:xlink="http://www.w3.org/1999/xlink"><rect id="background" height="100.00%" style="fill:rgb(255,255,255);" width="100.00%" y="0.00" x="0.00" /><g style="shape-rendering:auto;" id="root_group"><line y1="19.00" style="&E1;" id="215" x2="160.00" y2="19.00" x1="118.00" /><line y1="99.00" style="&E1;" id="216" x2="160.00" y2="99.00" x1="118.00" /><line y1="19.00" style="&E1;" id="217" x2="80.00" y2="19.00" x1="38.00" /><line y1="99.00" style="&E1;" id="218" x2="80.00" y2="99.00" x1="38.00" /><path d="&E2;" style="&E3;" transform="&E4;" id="219" /><ellipse id="220" cy="15.00" cx="15.00" transform="&E4;" rx="15.00" ry="15.00" style="&E5;" /><path d="&E6;" style="&E7;" transform="&E4;" id="221" /><path style="&E9;" transform="&E4;" id="222" d="M 7.8593 10.494 8.8954 9.65137 13.0189 14.72177 11.9886 15.5597 " /><path style="&E9;" transform="&E4;" id="223" d="M 5.1002 16.975 7.6877 14.8707 " /><path style="&E7;" transform="&E4;" id="224" d="M 8.8501 16.342 6.484699 13.4335 10.1863 12.8393 9.518199 14.5907 z " /><text id="225" transform="&E13;" x="164.00px" y="39.00px" style="stroke:none;clip-path:url(#227_text_clipper);font-family:Microsoft Sans Serif;fill:rgb(0,0,0);font-size:8.25pt;opacity:1;"><tspan dy="8.25pt" id="229">Events</tspan></text><path d="&E2;" style="&E3;" transform="&E14;" id="231" /><ellipse id="232" cy="15.00" cx="15.00" transform="&E14;" rx="15.00" ry="15.00" style="&E5;" /><path d="&E15;" style="&E7;" transform="&E14;" id="233" /><text id="234" transform="&E13;" x="164.00px" y="119.00px" style="stroke:none;clip-path:url(#236_text_clipper);font-family:Microsoft Sans Serif;fill:rgb(0,0,0);font-size:8.25pt;opacity:1;"><tspan dy="8.25pt" id="238">Message</tspan></text><text id="240" transform="&E13;" x="164.00px" y="131.45px" style="stroke:none;clip-path:url(#242_text_clipper);font-family:Microsoft Sans Serif;fill:rgb(0,0,0);font-size:8.25pt;opacity:1;"><tspan dy="8.25pt" id="244">Writer</tspan></text><path d="&E18;" style="&E3;" transform="&E19;" id="246" /><ellipse id="247" cy="15.00" cx="15.00" transform="&E19;" rx="15.00" ry="15.00" style="&E20;" /><path d="&E15;" style="&E7;" transform="&E19;" id="248" /><text id="249" transform="&E13;" x="84.00px" y="39.00px" style="stroke:none;clip-path:url(#251_text_clipper);font-family:Microsoft Sans Serif;fill:rgb(0,0,0);font-size:8.25pt;opacity:1;"><tspan dy="8.25pt" id="253">Device</tspan></text><ellipse id="255" cy="15.00" cx="15.00" transform="&E22;" rx="15.00" ry="15.00" style="stroke:none;opacity:1;fill:rgb(238,192,75);" /><path d="&E15;" style="&E7;" transform="&E22;" id="256" /><text id="257" transform="&E13;" x="84.00px" y="119.00px" style="stroke:none;clip-path:url(#259_text_clipper);font-family:Microsoft Sans Serif;fill:rgb(0,0,0);font-size:8.25pt;opacity:1;"><tspan dy="8.25pt" id="261">GroupBy</tspan></text><text id="263" transform="&E13;" x="84.00px" y="131.45px" style="stroke:none;clip-path:url(#265_text_clipper);font-family:Microsoft Sans Serif;fill:rgb(0,0,0);font-size:8.25pt;opacity:1;"><tspan dy="8.25pt" id="267">Register</tspan></text><path d="&E18;" style="&E3;" transform="&E26;" id="269" /><ellipse id="270" cy="15.00" cx="15.00" transform="&E26;" rx="15.00" ry="15.00" style="&E20;" /><path d="&E6;" style="&E7;" transform="&E26;" id="271" /><ellipse id="272" cy="12.78" cx="8.79" transform="&E26;" rx="3.00" ry="3.00" style="stroke:none;opacity:1;fill:rgb(255,255,255);" /><text id="273" transform="&E13;" x="4.00px" y="39.00px" style="stroke:none;clip-path:url(#275_text_clipper);font-family:Microsoft Sans Serif;fill:rgb(0,0,0);font-size:8.25pt;opacity:1;"><tspan dy="8.25pt" id="277">Commands</tspan></text><path d="&E18;" style="&E3;" transform="&E29;" id="279" /><ellipse id="280" cy="15.00" cx="15.00" transform="&E29;" rx="15.00" ry="15.00" style="&E20;" /><path style="&E7;" transform="&E29;" id="281" d="M 4.4028 13 4.93347 11.3266 C 6.15637 11.7667 7.04467 12.1477 7.598371 12.4698 7.45224 11.0476 7.37533 10.0696 7.36764 9.5352 L 9.040441 9.5352 C 9.017365 10.3131 8.92891 11.2873 8.775101 12.4581 9.567261 12.0495 10.4748 11.6723 11.4977 11.3266 L 12.02837 13 C 11.05162 13.3302 10.09407 13.5502 9.155771 13.6601 9.624911 14.0766 10.28637 14.819 11.14007 15.8877 L 9.755671 16.8894 C 9.30959 16.2687 8.782761 15.4241 8.175171 14.3554 7.606041 15.4633 7.106171 16.308 6.675471 16.8894 L 5.314171 15.8877 C 6.206311 14.7642 6.844671 14.0216 7.229171 13.6601 6.237041 13.4637 5.294871 13.2437 4.402771 13 z " /><path d="&E6;" style="&E7;" transform="&E29;" id="282" /><text id="283" transform="&E13;" x="4.00px" y="119.00px" style="stroke:none;clip-path:url(#285_text_clipper);font-family:Microsoft Sans Serif;fill:rgb(0,0,0);font-size:8.25pt;opacity:1;"><tspan dy="8.25pt" id="287">Events</tspan></text></g><defs id="clips_hatches_and_gradients"><clipPath id="227_text_clipper"><rect x="164.00" y="39.00" width="38.30" height="13.83" id="228" /></clipPath><clipPath id="236_text_clipper"><rect x="164.00" y="119.00" width="49.64" height="27.65" id="237" /></clipPath><clipPath id="242_text_clipper"><rect x="164.00" y="131.45" width="49.64" height="27.65" id="243" /></clipPath><clipPath id="251_text_clipper"><rect x="84.00" y="39.00" width="38.36" height="13.83" id="252" /></clipPath><clipPath id="259_text_clipper"><rect x="84.00" y="119.00" width="48.38" height="27.65" id="260" /></clipPath><clipPath id="265_text_clipper"><rect x="84.00" y="131.45" width="48.38" height="27.65" id="266" /></clipPath><clipPath id="275_text_clipper"><rect x="4.00" y="39.00" width="61.59" height="13.83" id="276" /></clipPath><clipPath id="285_text_clipper"><rect x="4.00" y="119.00" width="38.30" height="13.83" id="286" /></clipPath></defs></svg>