<?xml version="1.0" standalone="yes"?><!DOCTYPE svg PUBLIC "-//W3C//DTD SVG 1.1//EN" "http://www.w3.org/Graphics/SVG/1.1/DTD/svg11.dtd"[
<!ENTITY E15 'stroke:none;opacity:1;fill:rgb(68,154,223);'><!ENTITY E26 'M 11.529 25.444 20.7834 12.908 16.3203 12.908 18.355 4.7687 9.100601 17.3047 13.5637 17.3047 z '><!ENTITY E24 'matrix(1.00 0.00 0.00 1.00 84.00 4.00 ) '><!ENTITY E21 'matrix(1.00 0.00 0.00 1.00 164.00 164.00 ) '><!ENTITY E13 'matrix(1.00 0.00 0.00 1.00 0.00 0.00 ) '><!ENTITY E7 'stroke:none;fill-rule:evenodd;opacity:1;fill:rgb(255,255,255);'><!ENTITY E18 'M 5.5001 19.484 10.6493 19.484 16.2743 10.2485 19.3728 10.2485 M 14.6769 17.1481 16.3089 19.4828 19.2202 19.4828 M 5.500199 10.2437 10.7586 10.2437 12.1652 12.8707 '><!ENTITY E3 'stroke:rgb(169,169,169);fill:none;stroke-linecap:butt;stroke-miterlimit:9;opacity:1;stroke-width:2;stroke-linejoin:miter;'><!ENTITY E25 'stroke:none;opacity:1;fill:rgb(91,178,126);'><!ENTITY E16 'M 19.156 13.888 19.156 10.3647 19.156 6.841399 25.2585 10.3647 22.2072 12.1264 z '><!ENTITY E17 'M 19.156 22.97 19.156 19.4467 19.156 15.9234 25.2585 19.4467 22.2072 21.2084 z '><!ENTITY E1 'stroke:rgb(169,169,169);fill:none;stroke-linecap:butt;stroke-miterlimit:9;opacity:1;stroke-width:1;stroke-linejoin:miter;'><!ENTITY E4 'matrix(1.00 0.00 0.00 1.00 164.00 4.00 ) '><!ENTITY E29 'matrix(1.00 0.00 0.00 1.00 84.00 84.00 ) '><!ENTITY E6 'M 11.656 8.2 11.99975 8.7 16.31225 14.7937 11.65605 21.4187 11.28105 21.9187 14.74985 21.9187 14.8436 21.7624 17.9998 17.0124 18.46855 17.7 21.15605 21.7624 21.2498 21.9187 24.7498 21.9187 24.40605 21.4187 19.65605 14.6687 24.06225 8.699997 24.406 8.199997 20.9998 8.199997 20.90605 8.324997 18.68725 11.4187 C 18.46251 11.7285 18.22333 12.1062 17.9685 12.4812 17.77046 12.1547 17.58677 11.8424 17.31225 11.4187 L 15.28105 8.356197 15.1873 8.199997 11.6561 8.199997 z '><!ENTITY E14 'matrix(1.00 0.00 0.00 1.00 164.00 84.00 ) '><!ENTITY E19 'stroke:rgb(255,255,255);fill:none;stroke-linecap:butt;stroke-miterlimit:9;opacity:1;stroke-width:2;stroke-linejoin:miter;'><!ENTITY E32 'matrix(1.00 0.00 0.00 1.00 4.00 84.00 ) '><!ENTITY E9 'stroke:rgb(255,255,255);fill:none;stroke-linecap:butt;stroke-miterlimit:9;opacity:1;stroke-width:1.2496;stroke-linejoin:miter;'><!ENTITY E23 'M 31.179 5.2 C 34.9985 11.0918 34.9814 18.682 31.13552 24.557 '>
]><svg width="212.758" height="212.8252" id="SvgGdi_output" xmlns="http://www.w3.org/2000/svg" xmlns:xlink="http://www.w3.org/1999/xlink"><rect id="background" height="100.00%" style="fill:rgb(255,255,255);" width="100.00%" y="0.00" x="0.00" /><g style="shape-rendering:auto;" id="root_group"><line y1="19.00" style="&E1;" id="173" x2="160.00" y2="19.00" x1="118.00" /><line y1="99.00" style="&E1;" id="174" x2="160.00" y2="99.00" x1="118.00" /><line y1="99.00" style="&E1;" id="175" x2="160.00" y2="179.00" x1="118.00" /><line y1="99.00" style="&E1;" id="176" x2="80.00" y2="99.00" x1="38.00" /><path style="&E3;" transform="&E4;" id="177" d="M 10.158 33.2 C 3.4054 31.7591 -1.861 26.4692 -3.271 19.71 " /><ellipse id="178" cy="15.00" cx="15.00" transform="&E4;" rx="15.00" ry="15.00" style="stroke:none;opacity:1;fill:rgb(155,91,179);" /><path d="&E6;" style="&E7;" transform="&E4;" id="179" /><path style="&E9;" transform="&E4;" id="180" d="M 7.8593 10.494 8.8954 9.65137 13.0189 14.72177 11.9886 15.5597 " /><path style="&E9;" transform="&E4;" id="181" d="M 5.1002 16.975 7.6877 14.8707 " /><path style="&E7;" transform="&E4;" id="182" d="M 8.8501 16.342 6.484699 13.4335 10.1863 12.8393 9.518199 14.5907 z " /><text id="183" transform="&E13;" x="164.00px" y="39.00px" style="stroke:none;clip-path:url(#185_text_clipper);font-family:Microsoft Sans Serif;fill:rgb(0,0,0);font-size:8.25pt;opacity:1;"><tspan dy="8.25pt" id="187">Events</tspan></text><ellipse id="189" cy="15.00" cx="15.00" transform="&E14;" rx="15.00" ry="15.00" style="&E15;" /><path d="&E16;" style="&E7;" transform="&E14;" id="190" /><path d="&E17;" style="&E7;" transform="&E14;" id="191" /><path d="&E18;" style="&E19;" transform="&E14;" id="192" /><text id="193" transform="&E13;" x="164.00px" y="119.00px" style="stroke:none;clip-path:url(#195_text_clipper);font-family:Microsoft Sans Serif;fill:rgb(0,0,0);font-size:8.25pt;opacity:1;"><tspan dy="8.25pt" id="197">Seconds</tspan></text><ellipse id="199" cy="15.00" cx="15.00" transform="&E21;" rx="15.00" ry="15.00" style="&E15;" /><path d="&E16;" style="&E7;" transform="&E21;" id="200" /><path d="&E17;" style="&E7;" transform="&E21;" id="201" /><path d="&E18;" style="&E19;" transform="&E21;" id="202" /><text id="203" transform="&E13;" x="164.00px" y="199.00px" style="stroke:none;clip-path:url(#205_text_clipper);font-family:Microsoft Sans Serif;fill:rgb(0,0,0);font-size:8.25pt;opacity:1;"><tspan dy="8.25pt" id="207">Value</tspan></text><path d="&E23;" style="&E3;" transform="&E24;" id="209" /><ellipse id="210" cy="15.00" cx="15.00" transform="&E24;" rx="15.00" ry="15.00" style="&E25;" /><path d="&E26;" style="&E7;" transform="&E24;" id="211" /><ellipse id="212" cy="19.00" cx="84.00" rx="3.00" ry="3.00" style="&E3;" /><ellipse id="213" cy="19.00" cx="84.00" rx="3.00" ry="3.00" style="stroke:none;opacity:1;fill:rgb(255,255,255);" /><text id="214" transform="&E13;" x="84.00px" y="39.00px" style="stroke:none;clip-path:url(#216_text_clipper);font-family:Microsoft Sans Serif;fill:rgb(0,0,0);font-size:8.25pt;opacity:1;"><tspan dy="8.25pt" id="218">Device</tspan></text><ellipse id="220" cy="15.00" cx="15.00" transform="&E29;" rx="15.00" ry="15.00" style="stroke:none;opacity:1;fill:rgb(238,192,75);" /><path d="&E26;" style="&E7;" transform="&E29;" id="221" /><text id="222" transform="&E13;" x="84.00px" y="119.00px" style="stroke:none;clip-path:url(#224_text_clipper);font-family:Microsoft Sans Serif;fill:rgb(0,0,0);font-size:8.25pt;opacity:1;"><tspan dy="8.25pt" id="226">Parse</tspan></text><path d="&E23;" style="&E3;" transform="&E32;" id="228" /><ellipse id="229" cy="15.00" cx="15.00" transform="&E32;" rx="15.00" ry="15.00" style="&E25;" /><path style="&E7;" transform="&E32;" id="230" d="M 4.4028 13 4.93347 11.3266 C 6.15637 11.7667 7.04467 12.1477 7.598371 12.4698 7.45224 11.0476 7.37533 10.0696 7.36764 9.5352 L 9.040441 9.5352 C 9.017365 10.3131 8.92891 11.2873 8.775101 12.4581 9.567261 12.0495 10.4748 11.6723 11.4977 11.3266 L 12.02837 13 C 11.05162 13.3302 10.09407 13.5502 9.155771 13.6601 9.624911 14.0766 10.28637 14.819 11.14007 15.8877 L 9.755671 16.8894 C 9.30959 16.2687 8.782761 15.4241 8.175171 14.3554 7.606041 15.4633 7.106171 16.308 6.675471 16.8894 L 5.314171 15.8877 C 6.206311 14.7642 6.844671 14.0216 7.229171 13.6601 6.237041 13.4637 5.294871 13.2437 4.402771 13 z " /><path d="&E6;" style="&E7;" transform="&E32;" id="231" /><text id="232" transform="&E13;" x="4.00px" y="119.00px" style="stroke:none;clip-path:url(#234_text_clipper);font-family:Microsoft Sans Serif;fill:rgb(0,0,0);font-size:8.25pt;opacity:1;"><tspan dy="8.25pt" id="236">Events</tspan></text></g><defs id="clips_hatches_and_gradients"><clipPath id="185_text_clipper"><rect x="164.00" y="39.00" width="38.30" height="13.83" id="186" /></clipPath><clipPath id="195_text_clipper"><rect x="164.00" y="119.00" width="47.76" height="13.83" id="196" /></clipPath><clipPath id="205_text_clipper"><rect x="164.00" y="199.00" width="32.71" height="13.83" id="206" /></clipPath><clipPath id="216_text_clipper"><rect x="84.00" y="39.00" width="38.36" height="13.83" id="217" /></clipPath><clipPath id="224_text_clipper"><rect x="84.00" y="119.00" width="33.26" height="13.83" id="225" /></clipPath><clipPath id="234_text_clipper"><rect x="4.00" y="119.00" width="38.30" height="13.83" id="235" /></clipPath></defs></svg>