<?xml version="1.0" standalone="yes"?>
<!DOCTYPE svg PUBLIC "-//W3C//DTD SVG 1.1//EN" "http://www.w3.org/Graphics/SVG/1.1/DTD/svg11.dtd"[
<!ENTITY E7 'M 5.5001 19.484 10.6493 19.484 16.2743 10.2485 19.3728 10.2485 M 14.6769 17.1481 16.3089 19.4828 19.2202 19.4828 M 5.500199 10.2437 10.7586 10.2437 12.1652 12.8707 '><!ENTITY E18 'stroke:rgb(169,169,169);fill:none;stroke-linecap:butt;stroke-miterlimit:9;opacity:1;stroke-width:2;stroke-linejoin:miter;'><!ENTITY E3 'stroke:none;opacity:1;fill:rgb(68,154,223);'><!ENTITY E4 'M 19.156 13.888 19.156 10.3647 19.156 6.841399 25.2585 10.3647 22.2072 12.1264 z '><!ENTITY E6 'M 19.156 22.97 19.156 19.4467 19.156 15.9234 25.2585 19.4467 22.2072 21.2084 z '><!ENTITY E13 'matrix(1.00 0.00 0.00 1.00 84.00 4.00 ) '><!ENTITY E15 'M 11.529 25.444 20.7834 12.908 16.3203 12.908 18.355 4.7687 9.100601 17.3047 13.5637 17.3047 z '><!ENTITY E2 'matrix(1.00 0.00 0.00 1.00 164.00 4.00 ) '><!ENTITY E8 'stroke:rgb(255,255,255);fill:none;stroke-linecap:butt;stroke-miterlimit:9;opacity:1;stroke-width:2;stroke-linejoin:miter;'><!ENTITY E5 'stroke:none;fill-rule:evenodd;opacity:1;fill:rgb(255,255,255);'><!ENTITY E19 'matrix(1.00 0.00 0.00 1.00 4.00 4.00 ) '><!ENTITY E1 'stroke:rgb(169,169,169);fill:none;stroke-linecap:butt;stroke-miterlimit:9;opacity:1;stroke-width:1;stroke-linejoin:miter;'><!ENTITY E11 'matrix(1.00 0.00 0.00 1.00 164.00 84.00 ) '><!ENTITY E10 'matrix(1.00 0.00 0.00 1.00 0.00 0.00 ) '>
]>
<svg width="212.758" height="132.8252" id="SvgGdi_output" xmlns="http://www.w3.org/2000/svg" xmlns:xlink="http://www.w3.org/1999/xlink">
  <style>text { fill: #000; } @media (prefers-color-scheme: dark) { text { fill: #eee; } }</style>
  <rect id="background" height="100.00%" style="fill:none;" width="100.00%" y="0.00" x="0.00" />
  <g style="shape-rendering:auto;" id="root_group">
    <line y1="19.00" style="stroke:rgb(169,169,169);fill:none;stroke-linecap:butt;stroke-miterlimit:9;opacity:1;stroke-width:1;stroke-linejoin:miter;" id="2" x2="160.00" y2="19.00" x1="118.00" />
    <line y1="19.00" style="stroke:rgb(169,169,169);fill:none;stroke-linecap:butt;stroke-miterlimit:9;opacity:1;stroke-width:1;stroke-linejoin:miter;" id="3" x2="160.00" y2="99.00" x1="118.00" />
    <line y1="19.00" style="stroke:rgb(169,169,169);fill:none;stroke-linecap:butt;stroke-miterlimit:9;opacity:1;stroke-width:1;stroke-linejoin:miter;" id="4" x2="80.00" y2="19.00" x1="38.00" />
    <ellipse id="37" cy="15.00" cx="15.00" transform="matrix(1.00 0.00 0.00 1.00 164.00 4.00 ) " rx="15.00" ry="15.00" style="stroke:none;opacity:1;fill:rgb(68,154,223);" />
    <path d="M 19.156 13.888 19.156 10.3647 19.156 6.841399 25.2585 10.3647 22.2072 12.1264 z " style="stroke:none;fill-rule:evenodd;opacity:1;fill:rgb(255,255,255);" transform="matrix(1.00 0.00 0.00 1.00 164.00 4.00 ) " id="42" />
    <path d="M 19.156 22.97 19.156 19.4467 19.156 15.9234 25.2585 19.4467 22.2072 21.2084 z " style="stroke:none;fill-rule:evenodd;opacity:1;fill:rgb(255,255,255);" transform="matrix(1.00 0.00 0.00 1.00 164.00 4.00 ) " id="43" />
    <path d="M 5.5001 19.484 10.6493 19.484 16.2743 10.2485 19.3728 10.2485 M 14.6769 17.1481 16.3089 19.4828 19.2202 19.4828 M 5.500199 10.2437 10.7586 10.2437 12.1652 12.8707 " style="stroke:rgb(255,255,255);fill:none;stroke-linecap:butt;stroke-miterlimit:9;opacity:1;stroke-width:2;stroke-linejoin:miter;" transform="matrix(1.00 0.00 0.00 1.00 164.00 4.00 ) " id="44" />
    <text id="45" transform="matrix(1.00 0.00 0.00 1.00 0.00 0.00 ) " x="164.00px" y="39.00px" style="stroke:none;clip-path:url(#47_text_clipper);font-family:Microsoft Sans Serif;font-size:8.25pt;opacity:1;">
      <tspan dy="8.25pt" id="49">Seconds</tspan>
    </text>
    <ellipse id="51" cy="15.00" cx="15.00" transform="matrix(1.00 0.00 0.00 1.00 164.00 84.00 ) " rx="15.00" ry="15.00" style="stroke:none;opacity:1;fill:rgb(68,154,223);" />
    <path d="M 19.156 13.888 19.156 10.3647 19.156 6.841399 25.2585 10.3647 22.2072 12.1264 z " style="stroke:none;fill-rule:evenodd;opacity:1;fill:rgb(255,255,255);" transform="matrix(1.00 0.00 0.00 1.00 164.00 84.00 ) " id="52" />
    <path d="M 19.156 22.97 19.156 19.4467 19.156 15.9234 25.2585 19.4467 22.2072 21.2084 z " style="stroke:none;fill-rule:evenodd;opacity:1;fill:rgb(255,255,255);" transform="matrix(1.00 0.00 0.00 1.00 164.00 84.00 ) " id="53" />
    <path d="M 5.5001 19.484 10.6493 19.484 16.2743 10.2485 19.3728 10.2485 M 14.6769 17.1481 16.3089 19.4828 19.2202 19.4828 M 5.500199 10.2437 10.7586 10.2437 12.1652 12.8707 " style="stroke:rgb(255,255,255);fill:none;stroke-linecap:butt;stroke-miterlimit:9;opacity:1;stroke-width:2;stroke-linejoin:miter;" transform="matrix(1.00 0.00 0.00 1.00 164.00 84.00 ) " id="54" />
    <text id="55" transform="matrix(1.00 0.00 0.00 1.00 0.00 0.00 ) " x="164.00px" y="119.00px" style="stroke:none;clip-path:url(#57_text_clipper);font-family:Microsoft Sans Serif;font-size:8.25pt;opacity:1;">
      <tspan dy="8.25pt" id="59">Value</tspan>
    </text>
    <ellipse id="63" cy="15.00" cx="15.00" transform="matrix(1.00 0.00 0.00 1.00 84.00 4.00 ) " rx="15.00" ry="15.00" style="stroke:none;opacity:1;fill:rgb(238,192,75);" />
    <path d="M 11.529 25.444 20.7834 12.908 16.3203 12.908 18.355 4.7687 9.100601 17.3047 13.5637 17.3047 z " style="stroke:none;fill-rule:evenodd;opacity:1;fill:rgb(255,255,255);" transform="matrix(1.00 0.00 0.00 1.00 84.00 4.00 ) " id="66" />
    <text id="67" transform="matrix(1.00 0.00 0.00 1.00 0.00 0.00 ) " x="84.00px" y="39.00px" style="stroke:none;clip-path:url(#69_text_clipper);font-family:Microsoft Sans Serif;font-size:8.25pt;opacity:1;">
      <tspan dy="8.25pt" id="71">Parse</tspan>
    </text>
    <path style="stroke:rgb(169,169,169);fill:none;stroke-linecap:butt;stroke-miterlimit:9;opacity:1;stroke-width:2;stroke-linejoin:miter;" transform="matrix(1.00 0.00 0.00 1.00 4.00 4.00 ) " id="76" d="M 31.179 5.2 C 34.9985 11.0918 34.9814 18.682 31.13552 24.557 " />
    <ellipse id="77" cy="15.00" cx="15.00" transform="matrix(1.00 0.00 0.00 1.00 4.00 4.00 ) " rx="15.00" ry="15.00" style="stroke:none;opacity:1;fill:rgb(91,178,126);" />
    <path d="M 11.529 25.444 20.7834 12.908 16.3203 12.908 18.355 4.7687 9.100601 17.3047 13.5637 17.3047 z " style="stroke:none;fill-rule:evenodd;opacity:1;fill:rgb(255,255,255);" transform="matrix(1.00 0.00 0.00 1.00 4.00 4.00 ) " id="78" />
    <ellipse id="79" cy="19.00" cx="4.00" rx="3.00" ry="3.00" style="stroke:rgb(169,169,169);fill:none;stroke-linecap:butt;stroke-miterlimit:9;opacity:1;stroke-width:2;stroke-linejoin:miter;" />
    <ellipse id="80" cy="19.00" cx="4.00" rx="3.00" ry="3.00" style="stroke:none;opacity:1;fill:rgb(255,255,255);" />
    <text id="81" transform="matrix(1.00 0.00 0.00 1.00 0.00 0.00 ) " x="4.00px" y="39.00px" style="stroke:none;clip-path:url(#83_text_clipper);font-family:Microsoft Sans Serif;font-size:8.25pt;opacity:1;">
      <tspan dy="8.25pt" id="85">Device</tspan>
    </text>
  </g>
  <defs id="clips_hatches_and_gradients">
    <clipPath id="47_text_clipper">
      <rect x="164.00" y="39.00" width="47.76" height="13.83" id="48" />
    </clipPath>
    <clipPath id="57_text_clipper">
      <rect x="164.00" y="119.00" width="32.71" height="13.83" id="58" />
    </clipPath>
    <clipPath id="69_text_clipper">
      <rect x="84.00" y="39.00" width="33.26" height="13.83" id="70" />
    </clipPath>
    <clipPath id="83_text_clipper">
      <rect x="4.00" y="39.00" width="38.36" height="13.83" id="84" />
    </clipPath>
  </defs>
</svg>