<?xml version="1.0" standalone="yes"?><!DOCTYPE svg PUBLIC "-//W3C//DTD SVG 1.1//EN" "http://www.w3.org/Graphics/SVG/1.1/DTD/svg11.dtd"[
<!ENTITY E7 'stroke:none;opacity:1;fill:rgb(255,255,255);'><!ENTITY E18 'matrix(1.00 0.00 0.00 1.00 84.00 4.00 ) '><!ENTITY E2 'stroke:rgb(169,169,169);fill:none;stroke-linecap:butt;stroke-miterlimit:9;opacity:1;stroke-width:2;stroke-linejoin:miter;'><!ENTITY E5 'M 11.529 25.444 20.7834 12.908 16.3203 12.908 18.355 4.7687 9.100601 17.3047 13.5637 17.3047 z '><!ENTITY E13 'stroke:none;opacity:1;fill:rgb(0,0,0);'><!ENTITY E11 'matrix(1.00 0.00 0.00 1.00 244.00 4.00 ) '><!ENTITY E4 'stroke:none;opacity:1;fill:rgb(91,178,126);'><!ENTITY E1 'M 31.179 5.2 C 34.9985 11.0918 34.9814 18.682 31.13552 24.557 '><!ENTITY E6 'stroke:none;fill-rule:evenodd;opacity:1;fill:rgb(255,255,255);'><!ENTITY E22 'matrix(1.00 0.00 0.00 1.00 4.00 4.00 ) '><!ENTITY E16 'stroke:none;opacity:1;fill:rgb(238,192,75);'><!ENTITY E15 'matrix(1.00 0.00 0.00 1.00 164.00 4.00 ) '><!ENTITY E3 'matrix(1.00 0.00 0.00 1.00 324.00 4.00 ) '><!ENTITY E9 'matrix(1.00 0.00 0.00 1.00 0.00 0.00 ) '>
]><svg width="374.6378" height="66.65038" id="SvgGdi_output" xmlns="http://www.w3.org/2000/svg" xmlns:xlink="http://www.w3.org/1999/xlink"><rect id="background" height="100.00%" style="fill:rgb(255,255,255);" width="100.00%" y="0.00" x="0.00" /><g style="shape-rendering:auto;" id="root_group"><path d="&E1;" style="&E2;" transform="&E3;" id="46" /><ellipse id="47" cy="15.00" cx="15.00" transform="&E3;" rx="15.00" ry="15.00" style="&E4;" /><path d="&E5;" style="&E6;" transform="&E3;" id="48" /><ellipse id="49" cy="19.00" cx="324.00" rx="3.00" ry="3.00" style="&E2;" /><ellipse id="50" cy="19.00" cx="324.00" rx="3.00" ry="3.00" style="&E7;" /><text id="51" transform="&E9;" x="324.00px" y="39.00px" style="stroke:none;clip-path:url(#53_text_clipper);font-family:Microsoft Sans Serif;fill:rgb(0,0,0);font-size:8.25pt;opacity:1;"><tspan dy="8.25pt" id="55">Create</tspan></text><text id="57" transform="&E9;" x="324.00px" y="51.45px" style="stroke:none;clip-path:url(#59_text_clipper);font-family:Microsoft Sans Serif;fill:rgb(0,0,0);font-size:8.25pt;opacity:1;"><tspan dy="8.25pt" id="61">Message</tspan></text><ellipse id="63" cy="15.00" cx="15.00" transform="&E11;" rx="15.00" ry="15.00" style="stroke:none;opacity:1;fill:rgb(68,154,223);" /><path d="&E5;" style="&E6;" transform="&E11;" id="64" /><ellipse id="65" cy="19.00" cx="244.00" rx="3.00" ry="3.00" style="&E2;" /><ellipse id="66" cy="19.00" cx="244.00" rx="3.00" ry="3.00" style="&E13;" /><text id="67" transform="&E9;" x="244.00px" y="39.00px" style="stroke:none;clip-path:url(#69_text_clipper);font-family:Microsoft Sans Serif;fill:rgb(0,0,0);font-size:8.25pt;opacity:1;"><tspan dy="8.25pt" id="71">Format</tspan></text><ellipse id="73" cy="15.00" cx="15.00" transform="&E15;" rx="15.00" ry="15.00" style="&E16;" /><path d="&E5;" style="&E6;" transform="&E15;" id="74" /><ellipse id="75" cy="19.00" cx="164.00" rx="3.00" ry="3.00" style="&E2;" /><ellipse id="76" cy="19.00" cx="164.00" rx="3.00" ry="3.00" style="&E13;" /><text id="77" transform="&E9;" x="164.00px" y="39.00px" style="stroke:none;clip-path:url(#79_text_clipper);font-family:Microsoft Sans Serif;fill:rgb(0,0,0);font-size:8.25pt;opacity:1;"><tspan dy="8.25pt" id="81">Parse</tspan></text><ellipse id="83" cy="15.00" cx="15.00" transform="&E18;" rx="15.00" ry="15.00" style="&E16;" /><path transform="&E18;" id="84" d="M 11.061 10.763 C 11.061 9.349799 12.2452 7.7226 13.7798 7.4008 15.4144 6.98898 17.2874 7.88198 17.9084 9.4683 18.47393 10.8026 17.97233 12.4332 16.8453 13.3125 16.16579 13.95364 15.1393 14.28144 14.7641 15.2029 14.48171 16.1142 14.56073 17.1532 14.56319 18.0326 " style="stroke:rgb(255,255,255);fill:none;stroke-linecap:butt;stroke-miterlimit:9;opacity:1;stroke-width:2.5;stroke-linejoin:miter;" /><ellipse id="85" cy="21.60" cx="14.68" transform="&E18;" rx="1.81" ry="1.81" style="&E7;" /><ellipse id="86" cy="19.00" cx="84.00" rx="3.00" ry="3.00" style="&E2;" /><ellipse id="87" cy="19.00" cx="84.00" rx="3.00" ry="3.00" style="&E13;" /><text id="88" transform="&E9;" x="84.00px" y="39.00px" style="stroke:none;clip-path:url(#90_text_clipper);font-family:Microsoft Sans Serif;fill:rgb(0,0,0);font-size:8.25pt;opacity:1;"><tspan dy="8.25pt" id="92">FilterMessage</tspan></text><path d="&E1;" style="&E2;" transform="&E22;" id="94" /><ellipse id="95" cy="15.00" cx="15.00" transform="&E22;" rx="15.00" ry="15.00" style="&E4;" /><path d="&E5;" style="&E6;" transform="&E22;" id="96" /><ellipse id="97" cy="19.00" cx="4.00" rx="3.00" ry="3.00" style="&E2;" /><ellipse id="98" cy="19.00" cx="4.00" rx="3.00" ry="3.00" style="&E7;" /><text id="99" transform="&E9;" x="4.00px" y="39.00px" style="stroke:none;clip-path:url(#101_text_clipper);font-family:Microsoft Sans Serif;fill:rgb(0,0,0);font-size:8.25pt;opacity:1;"><tspan dy="8.25pt" id="103">Device</tspan></text></g><defs id="clips_hatches_and_gradients"><clipPath id="53_text_clipper"><rect x="324.00" y="39.00" width="49.64" height="27.65" id="54" /></clipPath><clipPath id="59_text_clipper"><rect x="324.00" y="51.45" width="49.64" height="27.65" id="60" /></clipPath><clipPath id="69_text_clipper"><rect x="244.00" y="39.00" width="39.55" height="13.83" id="70" /></clipPath><clipPath id="79_text_clipper"><rect x="164.00" y="39.00" width="33.26" height="13.83" id="80" /></clipPath><clipPath id="90_text_clipper"><rect x="84.00" y="39.00" width="74.95" height="13.83" id="91" /></clipPath><clipPath id="101_text_clipper"><rect x="4.00" y="39.00" width="38.36" height="13.83" id="102" /></clipPath></defs></svg>