<?xml version="1.0" encoding="UTF-8" standalone="no"?>
<!-- Generator: Adobe Illustrator 26.2.1, SVG Export Plug-In . SVG Version: 6.00 Build 0)  -->

<svg
   version="1.1"
   id="Layer_1"
   x="0px"
   y="0px"
   viewBox="0 0 279.68301 105.00019"
   xml:space="preserve"
   sodipodi:docname="dark-logo-aind.svg"
   width="279.68301"
   height="105.00019"
   inkscape:version="1.2.2 (732a01da63, 2022-12-09)"
   xmlns:inkscape="http://www.inkscape.org/namespaces/inkscape"
   xmlns:sodipodi="http://sodipodi.sourceforge.net/DTD/sodipodi-0.dtd"
   xmlns="http://www.w3.org/2000/svg"
   xmlns:svg="http://www.w3.org/2000/svg"><defs
   id="defs39410" /><sodipodi:namedview
   id="namedview39408"
   pagecolor="#000000"
   bordercolor="#666666"
   borderopacity="1.0"
   inkscape:showpageshadow="2"
   inkscape:pageopacity="0"
   inkscape:pagecheckerboard="0"
   inkscape:deskcolor="#000000"
   showgrid="false"
   inkscape:zoom="3.8430564"
   inkscape:cx="158.20741"
   inkscape:cy="25.240327"
   inkscape:window-width="2560"
   inkscape:window-height="1334"
   inkscape:window-x="-11"
   inkscape:window-y="-11"
   inkscape:window-maximized="1"
   inkscape:current-layer="Layer_1" />
<style
   type="text/css"
   id="style39303">
	.st0{fill:#CFCFCE;}
	.st1{fill:#7DC2EB;}
	.st2{fill:#358CCB;}
</style>
<g
   id="g39405"
   transform="matrix(0.63113484,0,0,0.63113484,14.909437,12.349231)">
	<g
   id="g39373">
		<g
   id="g39307">
			<path
   class="st0"
   d="m 200.51,35.53 c -1.43,0 -2.6,-0.24 -3.52,-0.74 -0.92,-0.49 -1.64,-1.11 -2.18,-1.87 -0.54,-0.75 -0.91,-1.57 -1.12,-2.45 -0.2,-0.89 -0.31,-1.73 -0.31,-2.52 V 16.03 h 1.93 v 11.71 c 0,0.77 0.09,1.52 0.27,2.24 0.18,0.72 0.47,1.37 0.87,1.93 0.4,0.56 0.94,1.02 1.6,1.37 0.66,0.35 1.48,0.52 2.44,0.52 0.97,0 1.78,-0.17 2.45,-0.52 0.66,-0.35 1.2,-0.81 1.6,-1.37 0.4,-0.57 0.7,-1.21 0.88,-1.93 0.18,-0.73 0.27,-1.47 0.27,-2.24 V 16.03 h 1.93 v 11.93 c 0,0.79 -0.1,1.63 -0.31,2.52 -0.21,0.88 -0.58,1.71 -1.11,2.45 -0.54,0.76 -1.27,1.37 -2.19,1.87 -0.92,0.49 -2.09,0.73 -3.5,0.73"
   id="path39305" />
		</g>
		<g
   id="g39311">
			<polygon
   class="st0"
   points="219.74,35.05 217.81,35.05 217.81,17.75 211.44,17.75 211.44,16.04 226.11,16.04 226.11,17.75 219.74,17.75 "
   id="polygon39309" />
		</g>
		<g
   id="g39315">
			<polygon
   class="st0"
   points="231.96,33.33 242.15,33.33 242.15,35.05 230.03,35.05 230.03,16.03 241.82,16.03 241.82,17.75 231.96,17.75 231.96,24.28 241.18,24.28 241.18,26 231.96,26 "
   id="polygon39313" />
		</g>
		<g
   id="g39319">
			<path
   class="st1"
   d="m 258.03,27.3 h -2.07 l -1.35,7.75 h -1.26 l 1.35,-7.75 h -1.86 l 0.21,-1.05 h 1.82 l 0.42,-2.39 c 0.07,-0.44 0.19,-0.86 0.35,-1.25 0.17,-0.39 0.38,-0.74 0.65,-1.03 0.27,-0.29 0.59,-0.53 0.97,-0.71 0.38,-0.18 0.82,-0.26 1.32,-0.26 0.16,0 0.33,0.01 0.51,0.03 0.18,0.02 0.35,0.05 0.53,0.1 l -0.3,1.11 c -0.26,-0.07 -0.56,-0.11 -0.88,-0.11 -0.3,0 -0.56,0.06 -0.78,0.17 -0.22,0.11 -0.4,0.27 -0.55,0.48 -0.15,0.2 -0.26,0.45 -0.35,0.72 -0.09,0.28 -0.17,0.57 -0.22,0.89 l -0.39,2.26 h 2.11 z"
   id="path39317" />
		</g>
		<g
   id="g39323">
			<path
   class="st1"
   d="m 263.27,35.28 c -0.59,0 -1.14,-0.09 -1.64,-0.28 -0.5,-0.19 -0.93,-0.44 -1.29,-0.78 -0.36,-0.33 -0.64,-0.73 -0.84,-1.2 -0.2,-0.47 -0.3,-0.98 -0.3,-1.55 0,-0.74 0.13,-1.44 0.38,-2.09 0.26,-0.66 0.62,-1.24 1.08,-1.73 0.46,-0.49 1.02,-0.88 1.66,-1.17 0.64,-0.29 1.34,-0.43 2.1,-0.43 0.6,0 1.15,0.09 1.65,0.27 0.49,0.18 0.92,0.45 1.28,0.78 0.36,0.34 0.63,0.74 0.84,1.2 0.2,0.46 0.3,0.98 0.3,1.54 0,0.75 -0.13,1.46 -0.38,2.12 -0.26,0.67 -0.61,1.24 -1.08,1.74 -0.46,0.49 -1.02,0.88 -1.66,1.16 -0.63,0.27 -1.33,0.42 -2.1,0.42 m 3.91,-5.37 c 0,-0.4 -0.06,-0.78 -0.19,-1.12 -0.13,-0.35 -0.31,-0.64 -0.55,-0.9 -0.24,-0.25 -0.54,-0.45 -0.89,-0.59 -0.35,-0.15 -0.75,-0.22 -1.18,-0.22 -0.55,0 -1.06,0.12 -1.52,0.35 -0.46,0.23 -0.86,0.55 -1.2,0.94 -0.34,0.4 -0.61,0.86 -0.8,1.38 -0.2,0.52 -0.29,1.07 -0.29,1.65 0,0.4 0.07,0.78 0.19,1.12 0.12,0.35 0.31,0.64 0.55,0.9 0.25,0.25 0.54,0.45 0.88,0.59 0.34,0.15 0.74,0.22 1.17,0.22 0.56,0 1.07,-0.12 1.55,-0.35 0.47,-0.23 0.87,-0.54 1.21,-0.93 0.34,-0.39 0.6,-0.84 0.79,-1.37 0.19,-0.53 0.28,-1.08 0.28,-1.67"
   id="path39321" />
		</g>
		<g
   id="g39327">
			<path
   class="st1"
   d="m 272.57,27.27 c 0.05,-0.38 0.1,-0.71 0.12,-1.01 h 1.2 c -0.03,0.24 -0.06,0.5 -0.09,0.79 -0.04,0.29 -0.07,0.53 -0.11,0.72 h 0.04 c 0.32,-0.52 0.74,-0.93 1.24,-1.25 0.5,-0.32 1.07,-0.48 1.69,-0.48 0.16,0 0.3,0.01 0.43,0.02 0.13,0.01 0.26,0.04 0.39,0.07 l -0.3,1.2 c -0.07,-0.03 -0.18,-0.05 -0.35,-0.08 -0.17,-0.02 -0.34,-0.04 -0.52,-0.04 -0.34,0 -0.67,0.06 -0.99,0.19 -0.33,0.13 -0.63,0.32 -0.89,0.59 -0.27,0.27 -0.51,0.61 -0.71,1.03 -0.21,0.42 -0.36,0.92 -0.46,1.51 l -0.79,4.51 h -1.26 l 1.2,-6.86 c 0.05,-0.23 0.11,-0.54 0.16,-0.91"
   id="path39325" />
		</g>
		<g
   id="g39331">
			<path
   class="st0"
   d="M 11.34,35.05 H 9.22 l 8.22,-19.02 h 1.88 l 8.17,19.02 h -2.15 l -2.09,-5 h -9.83 z m 2.79,-6.77 h 8.38 l -4.19,-10.1 z"
   id="path39329" />
		</g>
		<g
   id="g39335">
			<polygon
   class="st0"
   points="33.29,33.33 42.16,33.33 42.16,35.05 31.36,35.05 31.36,16.03 33.29,16.03 "
   id="polygon39333" />
		</g>
		<g
   id="g39339">
			<polygon
   class="st0"
   points="48.06,33.33 56.93,33.33 56.93,35.05 46.13,35.05 46.13,16.03 48.06,16.03 "
   id="polygon39337" />
		</g>
		<g
   id="g39343">
			<polygon
   class="st0"
   points="62.84,33.33 73.02,33.33 73.02,35.05 60.91,35.05 60.91,16.03 72.7,16.03 72.7,17.75 62.84,17.75 62.84,24.28 72.05,24.28 72.05,26 62.84,26 "
   id="polygon39341" />
		</g>
		<g
   id="g39347">
			<polygon
   class="st0"
   points="91.37,32.23 91.42,32.23 91.42,16.03 93.35,16.03 93.35,35.05 90.93,35.05 79.87,18.7 79.81,18.7 79.81,35.05 77.88,35.05 77.88,16.03 80.3,16.03 "
   id="polygon39345" />
		</g>
		<g
   id="g39351">
			<rect
   x="107.27"
   y="16.030001"
   class="st0"
   width="1.9299999"
   height="19.02"
   id="rect39349" />
		</g>
		<g
   id="g39355">
			<polygon
   class="st0"
   points="128.81,32.23 128.87,32.23 128.87,16.03 130.8,16.03 130.8,35.05 128.38,35.05 117.32,18.7 117.26,18.7 117.26,35.05 115.33,35.05 115.33,16.03 117.75,16.03 "
   id="polygon39353" />
		</g>
		<g
   id="g39359">
			<path
   class="st0"
   d="m 146.14,19.09 c -0.42,-0.57 -0.94,-1.03 -1.59,-1.38 -0.64,-0.35 -1.42,-0.53 -2.33,-0.53 -0.47,0 -0.94,0.07 -1.43,0.21 -0.48,0.14 -0.92,0.36 -1.32,0.66 -0.39,0.3 -0.71,0.67 -0.95,1.12 -0.24,0.45 -0.36,0.98 -0.36,1.58 0,0.61 0.12,1.11 0.35,1.51 0.23,0.39 0.54,0.73 0.93,1.01 0.38,0.28 0.82,0.51 1.31,0.69 0.49,0.18 1,0.36 1.54,0.54 0.66,0.21 1.33,0.45 2,0.7 0.67,0.25 1.27,0.58 1.81,0.98 0.53,0.4 0.97,0.91 1.31,1.53 0.34,0.62 0.51,1.4 0.51,2.35 0,0.95 -0.18,1.77 -0.54,2.46 -0.36,0.69 -0.83,1.26 -1.41,1.71 -0.58,0.45 -1.24,0.78 -1.98,1 -0.74,0.21 -1.49,0.32 -2.24,0.32 -0.57,0 -1.15,-0.06 -1.72,-0.18 -0.57,-0.12 -1.12,-0.29 -1.64,-0.52 -0.52,-0.23 -1,-0.53 -1.45,-0.89 -0.45,-0.36 -0.84,-0.77 -1.18,-1.24 l 1.67,-1.23 c 0.41,0.68 0.99,1.25 1.73,1.71 0.74,0.46 1.62,0.69 2.62,0.69 0.48,0 0.98,-0.07 1.48,-0.23 0.5,-0.15 0.95,-0.38 1.35,-0.7 0.4,-0.32 0.74,-0.7 1,-1.16 0.26,-0.46 0.39,-0.99 0.39,-1.6 0,-0.66 -0.13,-1.21 -0.39,-1.65 -0.26,-0.44 -0.61,-0.81 -1.04,-1.1 -0.43,-0.29 -0.92,-0.54 -1.47,-0.74 -0.56,-0.2 -1.14,-0.4 -1.75,-0.59 -0.63,-0.19 -1.24,-0.42 -1.85,-0.67 -0.61,-0.25 -1.16,-0.58 -1.64,-0.98 -0.48,-0.4 -0.87,-0.9 -1.17,-1.49 -0.3,-0.59 -0.44,-1.32 -0.44,-2.18 0,-0.91 0.18,-1.7 0.55,-2.36 0.37,-0.66 0.85,-1.21 1.44,-1.64 0.59,-0.43 1.25,-0.75 1.96,-0.94 0.72,-0.2 1.43,-0.29 2.12,-0.29 1.29,0 2.39,0.23 3.3,0.68 0.91,0.46 1.6,1 2.07,1.63 z"
   id="path39357" />
		</g>
		<g
   id="g39363">
			<polygon
   class="st0"
   points="158.77,35.05 156.83,35.05 156.83,17.75 150.47,17.75 150.47,16.04 165.13,16.04 165.13,17.75 158.77,17.75 "
   id="polygon39361" />
		</g>
		<g
   id="g39367">
			<rect
   x="169.05"
   y="16.030001"
   class="st0"
   width="1.9400001"
   height="19.02"
   id="rect39365" />
		</g>
		<g
   id="g39371">
			<polygon
   class="st0"
   points="183.21,35.05 181.28,35.05 181.28,17.75 174.91,17.75 174.91,16.04 189.58,16.04 189.58,17.75 183.21,17.75 "
   id="polygon39369" />
		</g>
	</g>
	<g
   id="g39403">
		<path
   class="st2"
   d="m 30.36,73.04 h 0.08 V 48.26 h 2.97 V 77.5 H 29.7 L 12.28,52.48 H 12.2 V 77.5 H 9.22 V 48.26 h 3.72 z"
   id="path39375" />
		<path
   class="st2"
   d="M 44.32,74.77 H 59.97 V 77.5 H 41.35 V 48.26 h 18.13 v 2.72 H 44.32 v 9.95 h 14.16 v 2.73 H 44.32 Z"
   id="path39377" />
		<path
   class="st2"
   d="m 86.73,66.6 c 0,4.87 -1.94,11.64 -10.69,11.64 -8.75,0 -10.7,-6.77 -10.7,-11.64 V 48.26 h 2.97 v 18 c 0,8.42 5.49,9.25 7.72,9.25 2.23,0 7.72,-0.83 7.72,-9.25 v -18 h 2.97 V 66.6 Z"
   id="path39379" />
		<path
   class="st2"
   d="M 97.13,77.5 H 94.16 V 48.26 h 9 c 5.95,0 9.62,2.56 9.62,7.8 0,4.05 -2.68,7.14 -7.47,7.56 l 8.42,13.87 h -3.63 l -8.01,-13.58 h -4.96 z m 0,-16.31 h 5.29 c 5.33,0 7.14,-2.31 7.14,-5.12 0,-2.81 -1.82,-5.08 -7.14,-5.08 h -5.29 z"
   id="path39381" />
		<path
   class="st2"
   d="m 118.15,77.5 h -3.47 L 127.4,48.27 h 2.89 l 12.72,29.23 h -3.47 l -3.22,-7.68 h -14.95 z m 4.34,-10.41 h 12.68 l -6.32,-15.36 z"
   id="path39383" />
		<path
   class="st2"
   d="m 149.95,74.77 h 13.63 v 2.73 h -16.6 V 48.26 h 2.97 z"
   id="path39385" />
		<path
   class="st2"
   d="m 178.69,48.26 h 9.7 c 7.31,0 15.36,4.87 15.36,14.62 0,9.75 -8.05,14.62 -15.36,14.62 h -9.7 z m 2.97,26.51 h 5.78 c 8.92,0 13.09,-5.86 13.09,-11.89 0,-6.03 -4.17,-11.89 -13.09,-11.89 h -5.78 z"
   id="path39387" />
		<path
   class="st2"
   d="M 219.07,77.5 H 216.1 V 64.9 L 205.16,48.26 h 3.72 l 8.71,13.79 8.71,-13.79 h 3.72 L 219.07,64.9 Z"
   id="path39389" />
		<path
   class="st2"
   d="m 254.55,73.04 h 0.08 V 48.26 h 2.97 V 77.5 h -3.72 L 236.46,52.48 h -0.08 V 77.5 h -2.97 V 48.26 h 3.72 z"
   id="path39391" />
		<path
   class="st2"
   d="m 265.04,77.5 h -3.47 l 12.72,-29.23 h 2.89 L 289.9,77.5 h -3.47 l -3.22,-7.68 h -14.95 z m 4.33,-10.41 h 12.68 l -6.32,-15.36 z"
   id="path39393" />
		<path
   class="st2"
   d="m 308.27,72.05 9.87,-23.78 h 4.54 V 77.5 h -2.97 V 52.23 h -0.08 L 309.05,77.5 h -1.57 L 296.91,52.23 h -0.08 V 77.5 h -2.97 V 48.26 h 4.54 z"
   id="path39395" />
		<path
   class="st2"
   d="m 333.58,77.5 h -2.97 V 48.26 h 2.97 z"
   id="path39397" />
		<path
   class="st2"
   d="m 365.59,72.87 c -1.94,3.01 -5.99,5.37 -10.82,5.37 -8.71,0 -15.24,-6.48 -15.24,-15.36 0,-8.88 6.52,-15.36 15.24,-15.36 3.63,0 7.56,1.36 10.12,4.62 l -2.6,1.94 c -1.16,-1.9 -4.42,-3.84 -7.51,-3.84 -7.51,0 -12.02,5.91 -12.02,12.63 0,6.73 4.5,12.64 12.02,12.64 3.06,0 6.19,-0.99 8.38,-4.38 z"
   id="path39399" />
		<path
   class="st2"
   d="m 384.42,53.1 c -1.28,-1.9 -3.18,-2.85 -5.66,-2.85 -3.06,0 -6.24,1.61 -6.24,5.29 0,7.89 14.99,3.72 14.99,14.25 0,5.33 -5,8.46 -9.62,8.46 -3.55,0 -6.98,-1.28 -9.21,-4.33 l 2.68,-1.94 c 1.24,2.15 3.59,3.55 6.65,3.55 2.93,0 6.28,-1.9 6.28,-5.33 0,-8.26 -14.99,-3.67 -14.99,-14.37 0,-5.66 4.71,-8.3 9.46,-8.3 3.3,0 5.95,0.91 8.26,3.55 z"
   id="path39401" />
	</g>
</g>
</svg>
