<?xml version="1.0" encoding="UTF-8" standalone="no"?>
<!-- Created with Inkscape (http://www.inkscape.org/) -->

<svg
   width="270"
   height="105"
   viewBox="0 0 270 105"
   version="1.1"
   id="svg31995"
   inkscape:version="1.2.2 (732a01da63, 2022-12-09)"
   sodipodi:docname="dark-logo-cf.svg"
   xmlns:inkscape="http://www.inkscape.org/namespaces/inkscape"
   xmlns:sodipodi="http://sodipodi.sourceforge.net/DTD/sodipodi-0.dtd"
   xmlns="http://www.w3.org/2000/svg"
   xmlns:svg="http://www.w3.org/2000/svg">
  <sodipodi:namedview
     id="namedview31997"
     pagecolor="#000000"
     bordercolor="#666666"
     borderopacity="1.0"
     inkscape:showpageshadow="2"
     inkscape:pageopacity="0"
     inkscape:pagecheckerboard="0"
     inkscape:deskcolor="#000000"
     inkscape:document-units="mm"
     showgrid="false"
     inkscape:zoom="5.3065148"
     inkscape:cx="112.50322"
     inkscape:cy="46.358111"
     inkscape:window-width="2560"
     inkscape:window-height="1334"
     inkscape:window-x="-11"
     inkscape:window-y="-11"
     inkscape:window-maximized="1"
     inkscape:current-layer="layer1" />
  <defs
     id="defs31992" />
  <g
     inkscape:label="Layer 1"
     inkscape:groupmode="layer"
     id="layer1"
     transform="translate(-129.76278,-118.72445)">
    <g
       id="g36174"
       transform="matrix(1.4999938,0,0,1.4999938,-64.880185,-59.361218)">
      <path
         id="path30607"
         style="fill:#ffffff;fill-opacity:1;stroke:none;stroke-width:0.352778"
         d="m 156.65365,133.73749 c -7.21954,0 -13.07208,5.85252 -13.07208,13.07207 0,7.21953 5.85254,13.07207 13.07208,13.07207 2.38399,0 4.61229,-0.64924 6.53603,-1.76269 v 13.74594 h 6.53707 v -6.53604 c 0,-3.61046 2.92558,-6.53707 6.53603,-6.53707 h 2.83342 v -5.44618 h -2.83342 c -3.61045,0 -6.53603,-2.92696 -6.53603,-6.53603 0,-3.61046 2.92558,-6.53604 6.53603,-6.53604 1.80523,0 3.43976,0.73174 4.62349,1.9141 l 4.62039,-4.62194 c -2.36608,-2.3661 -5.63342,-3.82819 -9.24388,-3.82819 -7.21953,0 -13.0731,5.85252 -13.0731,13.07207 v 6.53603 l -1.91409,-1.91409 c -1.18236,1.18235 -2.81672,1.91409 -4.62194,1.91409 -3.60909,0 -6.53604,-2.92696 -6.53604,-6.53603 0,-3.61046 2.92695,-6.53604 6.53604,-6.53604 1.80522,0 3.43958,0.73174 4.62194,1.9141 l 4.62194,-4.62194 c -2.36471,-2.3661 -5.63344,-3.82819 -9.24388,-3.82819 z" />
      <path
         fill-rule="nonzero"
         fill="#231f20"
         fill-opacity="1"
         d="m 209.00234,158.04196 c 1.31052,0 1.7005,-1.12035 1.7005,-2.22691 0,-1.12173 -0.38998,-2.24207 -1.7005,-2.24207 -1.29673,0 -1.68809,1.12034 -1.68809,2.24207 0,1.10656 0.39136,2.22691 1.68809,2.22691 m 0,-5.91454 c 2.20073,0 3.61873,1.45796 3.61873,3.68763 0,2.21312 -1.418,3.67247 -3.61873,3.67247 -2.18694,0 -3.60632,-1.45935 -3.60632,-3.67247 0,-2.22967 1.41938,-3.68763 3.60632,-3.68763"
         id="path30609"
         style="fill:#ffffff;fill-opacity:1;stroke-width:0.352778" />
      <path
         fill-rule="nonzero"
         fill="#231f20"
         fill-opacity="1"
         d="m 220.34497,159.29735 h -1.82314 v -0.97152 h -0.0413 c -0.48507,0.78273 -1.32154,1.16169 -2.13183,1.16169 -2.03949,0 -2.5535,-1.14791 -2.5535,-2.87735 v -4.29396 h 1.91685 v 3.94257 c 0,1.14928 0.339,1.71565 1.23059,1.71565 1.03904,0 1.48415,-0.58015 1.48415,-1.99815 v -3.66007 h 1.91823 z m 0,0"
         id="path30611"
         style="fill:#ffffff;fill-opacity:1;stroke-width:0.352778" />
      <path
         fill-rule="nonzero"
         fill="#231f20"
         fill-opacity="1"
         d="m 221.73541,152.31621 h 1.82177 v 0.97289 h 0.0413 c 0.48507,-0.78272 1.32292,-1.16168 2.13321,-1.16168 2.03949,0 2.55212,1.1479 2.55212,2.87734 v 4.29259 H 226.367 v -3.94257 c 0,-1.1479 -0.33762,-1.71428 -1.22921,-1.71428 -1.04041,0 -1.48552,0.58015 -1.48552,1.99816 v 3.65869 h -1.91685 z m 0,0"
         id="path30613"
         style="fill:#ffffff;fill-opacity:1;stroke-width:0.352778" />
      <path
         fill-rule="nonzero"
         fill="#231f20"
         fill-opacity="1"
         d="m 232.98296,153.57298 c -1.25539,0 -1.68809,1.08038 -1.68809,2.22691 0,1.09554 0.50022,2.24207 1.68809,2.24207 1.26917,0 1.64676,-1.10657 1.64676,-2.25447 0,-1.13413 -0.40514,-2.21451 -1.64676,-2.21451 m 1.67294,4.83416 h -0.0262 c -0.44511,0.75654 -1.22783,1.08038 -2.11943,1.08038 -2.10702,0 -3.13365,-1.81074 -3.13365,-3.74138 0,-1.87688 1.04179,-3.61872 3.09231,-3.61872 0.82545,0 1.63436,0.3514 2.06706,1.04042 h 0.0275 v -3.51125 h 1.91547 v 9.64214 h -1.82314 z m 0,0"
         id="path30615"
         style="fill:#ffffff;fill-opacity:1;stroke-width:0.352778" />
      <path
         fill-rule="nonzero"
         fill="#231f20"
         fill-opacity="1"
         d="m 242.20479,155.88119 c -0.32384,0.28526 -0.99907,0.29766 -1.59301,0.40514 -0.59393,0.12265 -1.13412,0.32384 -1.13412,1.02664 0,0.7152 0.55397,0.89022 1.17546,0.89022 1.49793,0 1.55167,-1.18787 1.55167,-1.6068 z m -4.42901,-1.41662 c 0.10887,-1.79558 1.71566,-2.33715 3.28111,-2.33715 1.39044,0 3.06613,0.31143 3.06613,1.98575 v 3.63113 c 0,0.63528 0.0661,1.27055 0.24254,1.55443 h -1.94441 c -0.0675,-0.21773 -0.12127,-0.44649 -0.13505,-0.67524 -0.60634,0.6339 -1.49931,0.86403 -2.34956,0.86403 -1.32429,0 -2.37711,-0.66146 -2.37711,-2.09324 0,-1.57923 1.18924,-1.95819 2.37711,-2.1208 1.17409,-0.17501 2.26825,-0.13367 2.26825,-0.91777 0,-0.82407 -0.56637,-0.94534 -1.24161,-0.94534 -0.72898,0 -1.20165,0.29766 -1.26917,1.0542 z m 0,0"
         id="path30617"
         style="fill:#ffffff;fill-opacity:1;stroke-width:0.352778" />
      <path
         fill-rule="nonzero"
         fill="#231f20"
         fill-opacity="1"
         d="m 247.9705,152.31621 h 1.40423 v 1.28433 h -1.40423 v 3.45612 c 0,0.64768 0.16261,0.81028 0.81167,0.81028 0.2012,0 0.38998,-0.0138 0.59256,-0.0551 v 1.49931 c -0.32384,0.0551 -0.74139,0.0689 -1.12035,0.0689 -1.17409,0 -2.20072,-0.27147 -2.20072,-1.66191 v -4.11758 h -1.16169 v -1.28433 h 1.16169 v -2.09186 h 1.91684 z m 0,0"
         id="path30619"
         style="fill:#ffffff;fill-opacity:1;stroke-width:0.352778" />
      <path
         fill-rule="nonzero"
         fill="#231f20"
         fill-opacity="1"
         d="m 250.35176,151.2372 h 1.91685 v -1.58061 h -1.91685 z m 0,0"
         id="path30621"
         style="fill:#ffffff;fill-opacity:1;stroke-width:0.352778" />
      <path
         fill-rule="nonzero"
         fill="#231f20"
         fill-opacity="1"
         d="m 198.49205,149.65659 v 9.64076 h 1.91685 v -3.98253 h 3.85712 v -1.64814 h -3.85712 v -2.36333 h 4.47862 v -1.64676 z m 0,0"
         id="path30623"
         style="fill:#ffffff;fill-opacity:1;stroke-width:0.352778" />
      <path
         fill-rule="nonzero"
         fill="#231f20"
         fill-opacity="1"
         d="m 250.35176,159.29735 h 1.91685 v -6.98114 h -1.91685 z m 0,0"
         id="path30625"
         style="fill:#ffffff;fill-opacity:1;stroke-width:0.352778" />
      <path
         fill-rule="nonzero"
         fill="#231f20"
         fill-opacity="1"
         d="m 257.10414,158.04196 c 1.30914,0 1.69912,-1.12035 1.69912,-2.22691 0,-1.12173 -0.38998,-2.24207 -1.69912,-2.24207 -1.29811,0 -1.68947,1.12034 -1.68947,2.24207 0,1.10656 0.39136,2.22691 1.68947,2.22691 m 0,-5.91454 c 2.19935,0 3.61735,1.45796 3.61735,3.68763 0,2.21312 -1.418,3.67247 -3.61735,3.67247 -2.18832,0 -3.6077,-1.45935 -3.6077,-3.67247 0,-2.22967 1.41938,-3.68763 3.6077,-3.68763"
         id="path30627"
         style="fill:#ffffff;fill-opacity:1;stroke-width:0.352778" />
      <path
         fill-rule="nonzero"
         fill="#231f20"
         fill-opacity="1"
         d="m 261.89558,152.31621 h 1.82452 v 0.97289 h 0.0386 c 0.48783,-0.78272 1.32429,-1.16168 2.1332,-1.16168 2.0395,0 2.55213,1.1479 2.55213,2.87734 v 4.29259 h -1.91823 v -3.94257 c 0,-1.1479 -0.33624,-1.71428 -1.22783,-1.71428 -1.04042,0 -1.48415,0.58015 -1.48415,1.99816 v 3.65869 h -1.91822 z m 0,0"
         id="path30629"
         style="fill:#ffffff;fill-opacity:1;stroke-width:0.352778" />
      <path
         fill-rule="nonzero"
         fill="#231f20"
         fill-opacity="1"
         d="m 208.43183,133.50874 h 1.91685 v 3.63251 h 0.0414 c 0.48507,-0.78273 1.32291,-1.16169 2.03811,-1.16169 2.03812,0 2.55213,1.14791 2.55213,2.87597 v 4.29397 h -1.91685 v -3.94257 c 0,-1.14791 -0.33762,-1.71428 -1.22921,-1.71428 -1.04042,0 -1.48553,0.58015 -1.48553,1.99816 v 3.65869 h -1.91685 z m 0,0"
         id="path30631"
         style="fill:#ffffff;fill-opacity:1;stroke-width:0.352778" />
      <path
         fill-rule="nonzero"
         fill="#231f20"
         fill-opacity="1"
         d="m 220.71842,139.73334 c -0.32384,0.28525 -0.99908,0.29766 -1.59301,0.40514 -0.59394,0.12127 -1.13413,0.32384 -1.13413,1.02802 0,0.71382 0.55398,0.88884 1.17409,0.88884 1.49931,0 1.55305,-1.18787 1.55305,-1.60542 z m -4.42901,-1.418 c 0.10886,-1.79421 1.71566,-2.33578 3.28111,-2.33578 1.39044,0 3.06613,0.31144 3.06613,1.98576 v 3.63251 c 0,0.63389 0.0675,1.26779 0.24253,1.55305 h -1.94441 c -0.0675,-0.21773 -0.12126,-0.44649 -0.13504,-0.67524 -0.60772,0.63389 -1.49931,0.86265 -2.34956,0.86265 -1.32429,0 -2.37574,-0.66008 -2.37574,-2.09186 0,-1.57924 1.18787,-1.95819 2.37574,-2.1208 1.17409,-0.17502 2.26825,-0.13367 2.26825,-0.91778 0,-0.82406 -0.56637,-0.94533 -1.24161,-0.94533 -0.72898,0 -1.20303,0.29766 -1.26918,1.05282 z m 0,0"
         id="path30633"
         style="fill:#ffffff;fill-opacity:1;stroke-width:0.352778" />
      <path
         fill-rule="nonzero"
         fill="#231f20"
         fill-opacity="1"
         d="m 224.10702,136.16836 h 1.81074 v 0.94533 h 0.0262 c 0.49885,-0.7152 1.22921,-1.13413 2.1332,-1.13413 0.87781,0 1.66192,0.32384 2.0395,1.16169 0.40514,-0.60771 1.13412,-1.16169 2.10702,-1.16169 1.48552,0 2.55075,0.68902 2.55075,2.49839 v 4.67155 h -1.91685 v -3.95635 c 0,-0.93018 -0.0813,-1.7005 -1.17409,-1.7005 -1.08176,0 -1.28296,0.89021 -1.28296,1.7694 v 3.88745 h -1.91823 v -3.91501 c 0,-0.81029 0.0538,-1.74184 -1.16168,-1.74184 -0.37758,0 -1.29536,0.24254 -1.29536,1.60679 v 4.05006 h -1.91822 z m 0,0"
         id="path30635"
         style="fill:#ffffff;fill-opacity:1;stroke-width:0.352778" />
      <path
         fill-rule="nonzero"
         fill="#231f20"
         fill-opacity="1"
         d="m 241.40553,139.6796 c 0,-1.10657 -0.44648,-2.25447 -1.67432,-2.25447 -1.25677,0 -1.66191,1.12034 -1.66191,2.25447 0,1.13412 0.43271,2.2145 1.67432,2.2145 1.25677,0 1.66191,-1.08038 1.66191,-2.2145 m -5.18556,-3.51124 h 1.82315 v 0.89159 h 0.0262 c 0.45888,-0.74139 1.21543,-1.07901 2.07946,-1.07901 2.18832,0 3.17362,1.76803 3.17362,3.7524 0,1.86449 -1.02664,3.60495 -3.06614,3.60495 -0.83647,0 -1.63297,-0.3638 -2.09186,-1.05282 h -0.0275 v 3.32245 h -1.91685 z m 0,0"
         id="path30637"
         style="fill:#ffffff;fill-opacity:1;stroke-width:0.352778" />
      <path
         fill-rule="nonzero"
         fill="#231f20"
         fill-opacity="1"
         d="m 248.80422,139.73334 c -0.32522,0.28525 -1.00045,0.29766 -1.59439,0.40514 -0.59256,0.12127 -1.13275,0.32384 -1.13275,1.02802 0,0.71382 0.55259,0.88884 1.17409,0.88884 1.49931,0 1.55305,-1.18787 1.55305,-1.60542 z m -4.42901,-1.418 c 0.10886,-1.79421 1.71565,-2.33578 3.2811,-2.33578 1.39044,0 3.06476,0.31144 3.06476,1.98576 v 3.63251 c 0,0.63389 0.0675,1.26779 0.24254,1.55305 h -1.94442 c -0.0662,-0.21773 -0.11989,-0.44649 -0.13367,-0.67524 -0.60771,0.63389 -1.4993,0.86265 -2.34955,0.86265 -1.3243,0 -2.37712,-0.66008 -2.37712,-2.09186 0,-1.57924 1.18925,-1.95819 2.37712,-2.1208 1.17409,-0.17502 2.26825,-0.13367 2.26825,-0.91778 0,-0.82406 -0.56775,-0.94533 -1.24161,-0.94533 -0.73036,0 -1.20303,0.29766 -1.26917,1.05282 z m 0,0"
         id="path30639"
         style="fill:#ffffff;fill-opacity:1;stroke-width:0.352778" />
      <path
         fill-rule="nonzero"
         fill="#231f20"
         fill-opacity="1"
         d="m 252.19281,133.51012 h 1.91823 v 9.64076 h -1.91823 z m 0,0"
         id="path30641"
         style="fill:#ffffff;fill-opacity:1;stroke-width:0.352778" />
      <path
         fill-rule="nonzero"
         fill="#231f20"
         fill-opacity="1"
         d="m 255.60897,136.16973 h 1.91823 v 6.98115 h -1.91823 z m 1.91823,-1.08038 h -1.91823 v -1.58061 h 1.91823 z m 0,0"
         id="path30643"
         style="fill:#ffffff;fill-opacity:1;stroke-width:0.352778" />
      <path
         fill-rule="nonzero"
         fill="#231f20"
         fill-opacity="1"
         d="m 259.02513,136.16836 h 1.81074 v 0.94533 h 0.0262 c 0.49885,-0.7152 1.22783,-1.13413 2.1332,-1.13413 0.87781,0 1.66192,0.32384 2.03812,1.16169 0.40652,-0.60771 1.13413,-1.16169 2.1084,-1.16169 1.48415,0 2.55075,0.68902 2.55075,2.49839 v 4.67155 h -1.91685 v -3.95635 c 0,-0.93018 -0.0813,-1.7005 -1.17409,-1.7005 -1.08176,0 -1.28296,0.89021 -1.28296,1.7694 v 3.88745 h -1.91823 v -3.91501 c 0,-0.81029 0.0551,-1.74184 -1.1603,-1.74184 -0.37896,0 -1.29674,0.24254 -1.29674,1.60679 v 4.05006 h -1.91823 z m 0,0"
         id="path30645"
         style="fill:#ffffff;fill-opacity:1;stroke-width:0.352778" />
      <path
         fill-rule="nonzero"
         fill="#231f20"
         fill-opacity="1"
         d="m 275.4858,139.73334 c -0.32522,0.28525 -1.00046,0.29766 -1.59302,0.40514 -0.59531,0.12127 -1.1355,0.32384 -1.1355,1.02802 0,0.71382 0.55397,0.88884 1.17546,0.88884 1.49793,0 1.55306,-1.18787 1.55306,-1.60542 z m -4.42902,-1.418 c 0.10749,-1.79421 1.71428,-2.33578 3.28111,-2.33578 1.39044,0 3.06476,0.31144 3.06476,1.98576 v 3.63251 c 0,0.63389 0.0675,1.26779 0.24253,1.55305 h -1.94441 c -0.0661,-0.21773 -0.11989,-0.44649 -0.13367,-0.67524 -0.60772,0.63389 -1.49931,0.86265 -2.35093,0.86265 -1.32292,0 -2.37574,-0.66008 -2.37574,-2.09186 0,-1.57924 1.18787,-1.95819 2.37574,-2.1208 1.17546,-0.17502 2.26963,-0.13367 2.26963,-0.91778 0,-0.82406 -0.56776,-0.94533 -1.24162,-0.94533 -0.73036,0 -1.20303,0.29766 -1.26917,1.05282 z m 0,0"
         id="path30647"
         style="fill:#ffffff;fill-opacity:1;stroke-width:0.352778" />
      <path
         fill-rule="nonzero"
         fill="#231f20"
         fill-opacity="1"
         d="m 285.37046,143.1495 h -1.82452 v -0.97152 h -0.04 c -0.48645,0.78273 -1.32292,1.16031 -2.1332,1.16031 -2.03812,0 -2.55213,-1.14653 -2.55213,-2.87597 v -4.29396 h 1.91685 v 3.94394 c 0,1.14791 0.33762,1.71428 1.22921,1.71428 1.04042,0 1.48553,-0.58015 1.48553,-1.99815 v -3.66007 h 1.91823 z m 0,0"
         id="path30649"
         style="fill:#ffffff;fill-opacity:1;stroke-width:0.352778" />
      <path
         fill-rule="nonzero"
         fill="#231f20"
         fill-opacity="1"
         d="m 290.08611,137.42513 c -1.25677,0 -1.6881,1.08038 -1.6881,2.22691 0,1.09416 0.50023,2.24206 1.6881,2.24206 1.27055,0 1.64813,-1.10794 1.64813,-2.25447 0,-1.13412 -0.40652,-2.2145 -1.64813,-2.2145 m 1.67569,4.83278 h -0.0276 c -0.44648,0.75792 -1.22921,1.08176 -2.1208,1.08176 -2.10702,0 -3.13228,-1.81074 -3.13228,-3.74138 0,-1.87689 1.03904,-3.61873 3.09232,-3.61873 0.82407,0 1.63435,0.3514 2.0643,1.04042 h 0.0276 v -3.51124 h 1.91685 v 9.64214 h -1.82039 z m 0,0"
         id="path30651"
         style="fill:#ffffff;fill-opacity:1;stroke-width:0.352778" />
      <path
         fill-rule="nonzero"
         fill="#231f20"
         fill-opacity="1"
         d="m 205.32022,139.42742 c -0.23702,1.25263 -0.87918,2.25584 -2.39227,2.25584 -1.9265,0 -2.47496,-1.64537 -2.47496,-3.31142 0,-1.75149 0.54846,-3.39549 2.47496,-3.39549 1.30913,0 1.94717,0.74001 2.26963,1.78594 h 1.94165 c -0.25493,-2.209 -1.93338,-3.44096 -4.03627,-3.44096 -2.9614,0 -4.61091,2.20899 -4.61091,5.04775 0,2.76021 1.64951,4.96921 4.61091,4.96921 2.34404,0 3.90123,-1.52549 4.1162,-3.91087 z m 0,0"
         id="path30653"
         style="fill:#ffffff;fill-opacity:1;stroke-width:0.352778" />
    </g>
  </g>
</svg>
