<?xml version="1.0" encoding="UTF-8" standalone="no"?>
<svg
   id="Layer_1"
   data-name="Layer 1"
   viewBox="0 0 176.457 105"
   version="1.1"
   sodipodi:docname="dark-logo-neurogears.svg"
   inkscape:version="1.2.2 (732a01da63, 2022-12-09)"
   width="176.457"
   height="105"
   xmlns:inkscape="http://www.inkscape.org/namespaces/inkscape"
   xmlns:sodipodi="http://sodipodi.sourceforge.net/DTD/sodipodi-0.dtd"
   xmlns="http://www.w3.org/2000/svg"
   xmlns:svg="http://www.w3.org/2000/svg"
   xmlns:rdf="http://www.w3.org/1999/02/22-rdf-syntax-ns#"
   xmlns:cc="http://creativecommons.org/ns#"
   xmlns:dc="http://purl.org/dc/elements/1.1/">
  <metadata
     id="metadata39">
    <rdf:RDF>
      <cc:Work
         rdf:about="">
        <dc:format>image/svg+xml</dc:format>
        <dc:type
           rdf:resource="http://purl.org/dc/dcmitype/StillImage" />
      </cc:Work>
    </rdf:RDF>
  </metadata>
  <sodipodi:namedview
     pagecolor="#000000"
     bordercolor="#666666"
     borderopacity="1"
     objecttolerance="10"
     gridtolerance="10"
     guidetolerance="10"
     inkscape:pageopacity="0"
     inkscape:pageshadow="2"
     inkscape:window-width="2560"
     inkscape:window-height="1334"
     id="namedview37"
     showgrid="false"
     inkscape:zoom="7.28"
     inkscape:cx="41.208791"
     inkscape:cy="51.098901"
     inkscape:window-x="-11"
     inkscape:window-y="-11"
     inkscape:window-maximized="1"
     inkscape:current-layer="Layer_1"
     inkscape:showpageshadow="2"
     inkscape:pagecheckerboard="0"
     inkscape:deskcolor="#000000" />
  <defs
     id="defs4">
    <style
       id="style2">.cls-1{fill:#fff;}</style>
  </defs>
  <g
     id="g39929"
     transform="matrix(0.27520072,0,0,0.27520072,7.0623186,10.890906)">
    <polygon
       class="cls-1"
       points="308.02,60.97 289.46,60.97 283.62,67.08 283.62,60.97 274.44,60.97 274.44,105.77 284.17,105.77 284.17,74.42 289.38,69.12 303.38,69.12 306.08,71.82 306.08,105.77 315.81,105.77 315.81,68.94 "
       id="polygon6" />
    <path
       class="cls-1"
       d="m 345.22,71.25 2.69,-2.68 h 17.26 l 2.59,2.68 v 7.89 h -22.54 z m 28.3,26.92 h -25.61 l -2.69,-2.6 v -8.91 h 32.39 V 68.94 l -7.8,-8 h -26.54 l -7.79,8 V 97.8 l 7.79,8 h 30.25 z"
       id="path8" />
    <polygon
       class="cls-1"
       points="403.3,105.78 421.77,105.78 427.7,99.74 427.7,105.78 436.88,105.78 436.88,60.97 427.15,60.97 427.15,92.41 421.95,97.61 407.85,97.61 405.25,94.92 405.25,60.97 395.51,60.97 395.51,97.8 "
       id="polygon10" />
    <polygon
       class="cls-1"
       points="458.23,60.97 458.23,105.78 467.96,105.78 467.96,75.44 473.17,70.24 485.13,70.24 485.13,60.97 473.9,60.97 467.41,67.63 467.41,60.97 "
       id="polygon12" />
    <path
       class="cls-1"
       d="m 510.46,69.12 h 17.35 l 2.59,2.7 v 23.1 l -2.59,2.7 h -17.35 l -2.6,-2.7 V 71.82 Z M 498,68.94 V 97.8 l 7.79,8 h 26.63 l 7.79,-8 V 68.94 l -7.79,-8 h -26.6 z"
       id="path14" />
    <path
       class="cls-1"
       d="m 291.53,163 -2.78,-3.62 5,-23.65 4.37,-3.62 h 15.49 l 4.63,6 -4,18.93 -7.12,5.96 z m 36.93,-37.2 h -7.15 l -1.39,6.5 -4.91,-6.5 H 295.9 l -9.19,7.6 -5.93,28.21 5.93,7.71 h 19.11 l 7.15,-6 -3.35,15.5 -4.26,3.62 h -25.42 l -1.31,6.4 h 28.95 l 9.19,-7.71 z"
       id="path16" />
    <path
       class="cls-1"
       d="m 352.84,135.27 4.35,-3.62 h 18.65 l 2.69,3.62 -1.76,8.54 H 351 Z m 23.38,28.13 h -25.71 l -2.87,-3.54 2.13,-10.2 h 33.3 l 3.44,-16.25 -5.85,-7.6 h -25.78 l -9.19,7.6 -5.94,28.21 5.94,7.71 h 29.22 z"
       id="path18" />
    <path
       class="cls-1"
       d="m 407.2,163.39 -2.78,-3.53 1.67,-8.07 4.26,-3.62 h 22.09 l -2,9.28 -7.24,5.94 z m 21.25,5.94 h 7.14 l 7.52,-35.92 -5.85,-7.6 h -29 l -1.31,5.84 h 25.53 l 2.78,3.62 -1.58,7.06 H 408.4 l -9.09,7.7 -2.5,11.59 5.93,7.71 H 422 l 7.7,-6.4 z"
       id="path20" />
    <polygon
       class="cls-1"
       points="466.76,125.81 457.58,169.33 465.1,169.33 471.5,138.89 478.73,132.96 490.24,132.96 491.71,125.81 480.67,125.81 472.42,132.68 473.9,125.81 "
       id="polygon22" />
    <polygon
       class="cls-1"
       points="506.46,150.12 523.35,150.12 526.15,153.73 524.84,159.86 520.57,163.39 496.17,163.39 494.96,169.33 522.98,169.33 532.08,161.62 534.21,151.42 528.37,143.71 511.48,143.71 508.69,140.09 509.71,135.27 514.07,131.65 534.86,131.65 536.06,125.81 511.66,125.81 502.48,133.41 500.62,142.51 "
       id="polygon24" />
    <path
       class="cls-1"
       d="M 206.23,201.59 H 69.3 A 19.66,19.66 0 0 1 49.66,182 V 45 A 19.66,19.66 0 0 1 69.3,25.38 H 206.23 A 19.67,19.67 0 0 1 225.88,45 v 137 a 19.67,19.67 0 0 1 -19.65,19.59 z M 69.3,32.38 A 12.66,12.66 0 0 0 56.66,45 V 182 A 12.66,12.66 0 0 0 69.3,194.59 H 206.23 A 12.66,12.66 0 0 0 218.88,182 V 45 A 12.66,12.66 0 0 0 206.23,32.36 Z m 68.47,127 a 45.67,45.67 0 1 1 45.68,-45.68 45.33,45.33 0 0 1 -45.68,45.64 z m 0,-84.35 A 38.68,38.68 0 1 0 165,86.24 38.73,38.73 0 0 0 137.77,75 Z"
       id="path26" />
    <path
       class="cls-1"
       d="M 69.43,178.82 A 19.87,19.87 0 0 1 61.79,177.27 19.33,19.33 0 0 1 49.66,159.13 V 45 A 19.66,19.66 0 0 1 69.3,25.38 H 183.41 A 19.64,19.64 0 0 1 197.3,58.91 L 167.51,88.7 165,86.23 a 38.68,38.68 0 0 0 -54.7,54.69 l 2.47,2.48 -29.58,29.6 a 19.38,19.38 0 0 1 -13.76,5.82 z M 69.3,32.38 A 12.66,12.66 0 0 0 56.66,45 v 114.13 a 12.64,12.64 0 0 0 21.58,8.94 L 103,143.3 A 45.68,45.68 0 0 1 167.4,78.9 L 192.35,54 a 12.64,12.64 0 0 0 -8.94,-21.58 z"
       id="path28" />
    <path
       class="cls-1"
       d="M 206.23,201.59 H 92.13 A 19.64,19.64 0 0 1 78.24,168.07 l 29.63,-29.64 2.48,2.5 A 38.67,38.67 0 1 0 165,86.24 L 162.51,83.76 192.35,54 a 19.64,19.64 0 0 1 33.53,13.89 V 182 a 19.67,19.67 0 0 1 -19.65,19.59 z M 108,148.26 83.19,173 a 12.64,12.64 0 0 0 8.94,21.57 h 114.1 A 12.66,12.66 0 0 0 218.88,182 V 67.85 A 12.64,12.64 0 0 0 197.3,58.91 L 172.37,83.84 A 45.68,45.68 0 0 1 108,148.26 Z"
       id="path30" />
    <path
       class="cls-1"
       d="m 171.49,79.76 a 47.81,47.81 0 1 0 14.12,33.9 47.64,47.64 0 0 0 -14.12,-33.9 z m -33.72,76.08 A 42.17,42.17 0 1 1 180,113.66 42,42 0 0 1 137.77,155.84 Z"
       id="path32" />
    <path
       class="cls-1"
       d="m 175.49,75.76 a 53.48,53.48 0 1 0 15.78,37.9 53.31,53.31 0 0 0 -15.78,-37.9 z m -37.72,80.08 A 42.17,42.17 0 1 1 180,113.66 42,42 0 0 1 137.77,155.84 Z"
       id="path34" />
  </g>
</svg>
