<?xml version="1.0" encoding="UTF-8" standalone="no"?>
<!-- Created with Inkscape (http://www.inkscape.org/) -->

<svg
   width="158.47"
   height="104.99966"
   viewBox="0 0 158.47 104.99967"
   version="1.1"
   id="svg6520"
   inkscape:version="1.2.2 (732a01da63, 2022-12-09)"
   sodipodi:docname="dark-logo-oeps.svg"
   xmlns:inkscape="http://www.inkscape.org/namespaces/inkscape"
   xmlns:sodipodi="http://sodipodi.sourceforge.net/DTD/sodipodi-0.dtd"
   xmlns="http://www.w3.org/2000/svg"
   xmlns:svg="http://www.w3.org/2000/svg">
  <sodipodi:namedview
     id="namedview6522"
     pagecolor="#000000"
     bordercolor="#666666"
     borderopacity="1"
     inkscape:showpageshadow="2"
     inkscape:pageopacity="0"
     inkscape:pagecheckerboard="false"
     inkscape:deskcolor="#000000"
     inkscape:document-units="mm"
     showgrid="false"
     inkscape:zoom="3.7522728"
     inkscape:cx="-3.731072"
     inkscape:cy="68.225317"
     inkscape:window-width="2560"
     inkscape:window-height="1334"
     inkscape:window-x="-11"
     inkscape:window-y="-11"
     inkscape:window-maximized="1"
     inkscape:current-layer="layer1" />
  <defs
     id="defs6517" />
  <g
     inkscape:label="Layer 1"
     inkscape:groupmode="layer"
     id="layer1"
     transform="translate(-123.21467,-148.33768)">
    <g
       aria-label="oeps"
       id="text4074"
       style="font-size:86.2691px;font-family:Miso, Miso;isolation:isolate;fill:#ffffff;stroke-width:0.563847"
       class="cls-97">
      <path
         d="m 155.15815,210.21296 c 6.12511,0 11.21498,-5.00361 11.21498,-11.21498 v -17.25382 c 0,-6.21138 -5.08987,-11.21499 -11.21498,-11.21499 -6.21137,0 -11.21498,5.00361 -11.21498,11.21499 v 17.25382 c 0,6.21137 5.00361,11.21498 11.21498,11.21498 z m 0,-34.50764 c 3.36449,0 6.03884,2.67434 6.03884,6.03884 v 17.25382 c 0,3.36449 -2.67435,6.03883 -6.03884,6.03883 -3.36449,0 -6.03884,-2.67434 -6.03884,-6.03883 v -17.25382 c 0,-3.3645 2.67435,-6.03884 6.03884,-6.03884 z"
         id="path712" />
      <path
         d="m 183.28183,209.35027 c 4.22718,1.72538 9.05825,0.77642 12.25021,-2.41554 0.51762,-0.51761 0.77642,-1.1215 0.77642,-1.81165 0,-0.77642 -0.2588,-1.3803 -0.77642,-1.81165 -0.51761,-0.51761 -1.1215,-0.77642 -1.89792,-0.77642 -0.69015,0 -1.29404,0.25881 -1.81165,0.77642 -1.72538,1.72538 -4.22719,2.243 -6.55645,1.29404 -2.32927,-0.94896 -3.70957,-3.19196 -3.70957,-5.60749 v -6.03884 h 14.66574 c 1.46658,0 2.58808,-1.1215 2.58808,-2.58807 v -8.62691 c 0,-6.21138 -5.00361,-11.21499 -11.21499,-11.21499 -6.21137,0 -11.21498,5.00361 -11.21498,11.21499 v 17.25382 c 0,4.57226 2.67434,8.62691 6.90153,10.35229 z m 4.31345,-33.64495 c 3.3645,0 6.03884,2.67434 6.03884,6.03884 v 6.03883 h -12.07767 v -6.03883 c 0,-3.3645 2.67434,-6.03884 6.03883,-6.03884 z"
         id="path714" />
      <path
         d="m 211.75064,227.46678 c 1.3803,0 2.58807,-1.1215 2.58807,-2.58807 v -15.01083 h 6.03884 c 6.1251,0 11.21498,-5.00361 11.21498,-11.21498 v -16.56367 c 0,-6.21137 -5.08988,-11.21498 -11.21498,-11.21498 h -8.62691 c -1.46658,0 -2.58808,1.1215 -2.58808,2.58807 v 51.41639 c 0,1.46657 1.1215,2.58807 2.58808,2.58807 z m 14.66574,-45.37755 v 16.56367 c 0,3.36449 -2.67434,6.03884 -6.03883,6.03884 h -6.03884 V 176.0504 h 6.03884 c 3.36449,0 6.03883,2.67434 6.03883,6.03883 z"
         id="path716" />
      <path
         d="m 254.02253,203.57024 c -1.3803,1.20777 -2.93315,1.63911 -4.57226,1.3803 -1.72538,-0.2588 -3.01942,-1.20776 -3.96838,-2.67434 -0.69015,-1.29403 -2.24299,-1.63911 -3.53703,-0.94896 -1.29404,0.69015 -1.63911,2.243 -0.94896,3.53703 1.63911,2.84688 4.31345,4.65854 7.67795,5.26242 3.19196,0.43135 6.38391,-0.43135 8.79945,-2.76061 2.41553,-2.15673 3.70957,-5.17615 3.45076,-8.54064 -0.25881,-3.3645 -1.81165,-6.12511 -4.48599,-8.1093 l -8.02303,-5.60749 c -1.3803,-0.94896 -2.15673,-2.24299 -2.24299,-3.88211 -0.0863,-1.63911 0.43134,-3.01942 1.63911,-4.14091 1.20777,-1.1215 2.67434,-1.55285 4.31345,-1.29404 1.63912,0.25881 2.93315,1.1215 3.70957,2.5018 0.69016,1.29404 2.243,1.63912 3.53704,0.94896 1.29403,-0.69015 1.63911,-2.24299 0.94896,-3.53703 -1.63912,-2.76061 -4.31346,-4.48599 -7.41914,-5.08988 -3.10569,-0.43134 -6.21138,0.51762 -8.54065,2.67435 -2.32926,2.07045 -3.6233,5.08987 -3.36449,8.28183 0.25881,3.10569 1.72538,5.95257 4.39972,7.76422 l 8.02303,5.69376 c 1.46657,1.03523 2.243,2.41553 2.32927,4.14091 0.17253,1.72539 -0.43135,3.19196 -1.72539,4.39973 z"
         id="path718" />
    </g>
  </g>
</svg>
