<?xml version="1.0" encoding="UTF-8" standalone="no"?>
<svg
   id="Layer_1"
   data-name="Layer 1"
   viewBox="0 0 176.457 105"
   version="1.1"
   sodipodi:docname="light-logo-neurogears.svg"
   inkscape:version="1.2.2 (732a01da63, 2022-12-09)"
   width="176.457"
   height="105"
   xmlns:inkscape="http://www.inkscape.org/namespaces/inkscape"
   xmlns:sodipodi="http://sodipodi.sourceforge.net/DTD/sodipodi-0.dtd"
   xmlns="http://www.w3.org/2000/svg"
   xmlns:svg="http://www.w3.org/2000/svg">
  <sodipodi:namedview
     id="namedview8835"
     pagecolor="#ffffff"
     bordercolor="#666666"
     borderopacity="1.0"
     inkscape:showpageshadow="2"
     inkscape:pageopacity="0.0"
     inkscape:pagecheckerboard="0"
     inkscape:deskcolor="#d1d1d1"
     showgrid="false"
     inkscape:zoom="7.28"
     inkscape:cx="48.626374"
     inkscape:cy="53.434066"
     inkscape:window-width="2560"
     inkscape:window-height="1334"
     inkscape:window-x="-11"
     inkscape:window-y="-11"
     inkscape:window-maximized="1"
     inkscape:current-layer="Layer_1" />
  <defs
     id="defs8778">
    <style
       id="style8776">.cls-1{fill:#141212;}.cls-2,.cls-4{fill:none;stroke:#141212;stroke-miterlimit:10;}.cls-3{fill:#fff;}.cls-4{stroke-width:7px;}.cls-5{fill:#64bb90;}.cls-6{fill:#048e66;}.cls-7{fill:#231f20;}</style>
  </defs>
  <g
     id="g38245"
     transform="matrix(0.2752013,0,0,0.2752013,7.0592519,10.926667)">
    <polygon
       class="cls-1"
       points="289.37,68.99 303.38,68.99 306.07,71.68 306.07,105.64 315.81,105.64 315.81,68.8 308.02,60.83 289.46,60.83 283.61,66.94 283.61,60.83 274.43,60.83 274.43,105.64 284.17,105.64 284.17,74.28 "
       id="polygon8780" />
    <path
       class="cls-1"
       d="m 345.21,71.11 2.7,-2.68 h 17.25 l 2.6,2.68 V 79 H 345.21 Z M 373.52,98 h -25.61 l -2.7,-2.59 v -8.89 h 32.4 V 68.8 l -7.81,-8 h -26.53 l -7.79,8 v 28.86 l 7.79,8 h 30.25 z"
       id="path8782" />
    <polygon
       class="cls-1"
       points="421.95,97.48 407.85,97.48 405.25,94.78 405.25,60.83 395.5,60.83 395.5,97.66 403.29,105.64 421.76,105.64 427.7,99.61 427.7,105.64 436.88,105.64 436.88,60.83 427.14,60.83 427.14,92.27 "
       id="polygon8784" />
    <polygon
       class="cls-1"
       points="458.22,60.83 458.22,105.64 467.96,105.64 467.96,75.3 473.16,70.11 485.12,70.11 485.12,60.83 473.9,60.83 467.41,67.5 467.41,60.83 "
       id="polygon8786" />
    <path
       class="cls-1"
       d="m 510.45,69 h 17.36 l 2.59,2.69 v 23.1 l -2.59,2.7 h -17.36 l -2.59,-2.7 V 71.68 Z M 498,68.8 v 28.86 l 7.8,8 h 26.63 l 7.79,-8 V 68.8 l -7.79,-8 h -26.61 z"
       id="path8788" />
    <path
       class="cls-1"
       d="m 291.53,162.87 -2.78,-3.61 5,-23.66 4.37,-3.61 h 15.5 l 4.63,6 -4,18.92 -7.14,5.93 z m 36.93,-37.2 h -7.15 l -1.39,6.5 -4.91,-6.5 H 295.9 l -9.2,7.6 -5.93,28.21 5.93,7.71 h 19.12 l 7.14,-6 -3.34,15.49 -4.26,3.62 h -25.43 l -1.3,6.4 h 28.94 l 9.2,-7.7 z"
       id="path8790" />
    <path
       class="cls-1"
       d="m 352.84,135.13 4.35,-3.61 h 18.65 l 2.69,3.61 -1.76,8.55 H 351 Z m 23.38,28.13 h -25.71 l -2.87,-3.54 2.13,-10.2 h 33.3 l 3.43,-16.25 -5.84,-7.6 h -25.78 l -9.2,7.6 -5.93,28.22 5.93,7.7 h 29.23 z"
       id="path8792" />
    <path
       class="cls-1"
       d="m 407.2,163.26 -2.79,-3.54 1.68,-8.07 4.25,-3.62 h 22.1 l -2,9.28 -7.24,5.95 z m 21.25,5.93 h 7.14 l 7.52,-35.92 -5.85,-7.6 h -29.05 l -1.3,5.85 h 25.53 l 2.78,3.61 -1.58,7.06 H 408.4 l -9.1,7.7 -2.49,11.6 5.93,7.7 H 422 l 7.7,-6.4 z"
       id="path8794" />
    <polygon
       class="cls-1"
       points="466.75,125.67 457.57,169.19 465.09,169.19 471.49,138.76 478.73,132.82 490.23,132.82 491.71,125.67 480.67,125.67 472.41,132.54 473.9,125.67 "
       id="polygon8796" />
    <polygon
       class="cls-1"
       points="506.46,149.98 523.35,149.98 526.14,153.6 524.84,159.72 520.57,163.26 496.16,163.26 494.96,169.19 522.98,169.19 532.07,161.49 534.2,151.28 528.37,143.58 511.47,143.58 508.69,139.96 509.71,135.13 514.07,131.52 534.86,131.52 536.06,125.67 511.66,125.67 502.48,133.28 500.62,142.37 "
       id="polygon8798" />
    <path
       class="cls-2"
       d="M 85.46,45 A 16.11,16.11 0 1 1 69.36,28.89 16.1,16.1 0 0 1 85.46,45 Z"
       id="path8800" />
    <path
       class="cls-2"
       d="M 222.37,44.86 A 16.11,16.11 0 1 1 206.26,28.75 16.11,16.11 0 0 1 222.37,44.86 Z"
       id="path8802" />
    <path
       class="cls-2"
       d="M 199.58,44.86 A 16.11,16.11 0 1 1 183.47,28.75 16.11,16.11 0 0 1 199.58,44.86 Z"
       id="path8804" />
    <path
       class="cls-2"
       d="m 153.88,113.53 a 16.11,16.11 0 1 1 -16.11,-16.11 16.11,16.11 0 0 1 16.11,16.11 z"
       id="path8806" />
    <path
       class="cls-2"
       d="M 222.37,67.65 A 16.11,16.11 0 1 1 206.26,51.54 16.11,16.11 0 0 1 222.37,67.65 Z"
       id="path8808" />
    <path
       class="cls-2"
       d="M 53.17,181.85 A 16.11,16.11 0 1 1 69.28,198 16.11,16.11 0 0 1 53.17,181.85 Z"
       id="path8810" />
    <path
       class="cls-2"
       d="M 76,181.85 A 16.11,16.11 0 1 1 92.07,198 16.11,16.11 0 0 1 76,181.85 Z"
       id="path8812" />
    <path
       class="cls-2"
       d="m 190.12,182.11 a 16.11,16.11 0 1 1 16.11,16.11 16.12,16.12 0 0 1 -16.11,-16.11 z"
       id="path8814" />
    <path
       class="cls-2"
       d="M 53.17,159.06 A 16.11,16.11 0 1 1 69.28,175.17 16.11,16.11 0 0 1 53.17,159.06 Z"
       id="path8816" />
    <path
       class="cls-3"
       d="M 222.37,44.89 V 181.82 A 16.14,16.14 0 0 1 206.23,198 H 69.3 A 16.13,16.13 0 0 1 53.17,181.87 V 44.89 A 16.14,16.14 0 0 1 69.3,28.75 h 136.93 a 16.14,16.14 0 0 1 16.14,16.14"
       id="path8818" />
    <rect
       class="cls-4"
       x="53.169998"
       y="28.75"
       width="169.2"
       height="169.2"
       rx="16.139999"
       id="rect8820" />
    <path
       class="cls-5"
       d="M 194.82,56.3 80.71,170.41 C 70.55,180.57 53.17,173.41 53.17,159 V 44.89 A 16.14,16.14 0 0 1 69.3,28.75 h 114.11 c 14.38,0 21.58,17.38 11.41,27.55"
       id="path8822" />
    <path
       class="cls-4"
       d="M 194.82,56.3 80.71,170.41 C 70.55,180.57 53.17,173.41 53.17,159 V 44.89 A 16.14,16.14 0 0 1 69.3,28.75 h 114.11 c 14.38,0 21.59,17.38 11.41,27.55 z"
       id="path8824" />
    <path
       class="cls-6"
       d="M 222.37,67.71 V 181.82 A 16.14,16.14 0 0 1 206.23,198 H 92.12 C 77.75,198 70.55,180.63 80.71,170.46 L 194.82,56.3 c 10.17,-10.17 27.55,-3 27.55,11.41"
       id="path8826" />
    <path
       class="cls-4"
       d="M 222.37,67.71 V 181.82 A 16.14,16.14 0 0 1 206.23,198 H 92.12 C 77.75,198 70.55,180.63 80.71,170.46 L 194.82,56.3 C 205,46.13 222.37,53.33 222.37,67.71 Z"
       id="path8828" />
    <path
       class="cls-3"
       d="m 137.77,161.37 a 47.84,47.84 0 1 1 47.84,-47.84 47.89,47.89 0 0 1 -47.84,47.84"
       id="path8830" />
    <path
       class="cls-7"
       d="m 137.77,71.35 a 42.18,42.18 0 1 1 -42.18,42.18 42.19,42.19 0 0 1 42.18,-42.18 m 0,-11.33 a 53.51,53.51 0 1 0 53.5,53.51 A 53.57,53.57 0 0 0 137.77,60"
       id="path8832" />
  </g>
</svg>
