<?xml version="1.0" encoding="UTF-8" standalone="no"?>
<!-- Created with Inkscape (http://www.inkscape.org/) -->

<svg
   width="248.877"
   height="105"
   viewBox="0 0 248.87702 105"
   version="1.1"
   id="svg31995"
   inkscape:version="1.2.2 (732a01da63, 2022-12-09)"
   sodipodi:docname="light-logo-swc.svg"
   xmlns:inkscape="http://www.inkscape.org/namespaces/inkscape"
   xmlns:sodipodi="http://sodipodi.sourceforge.net/DTD/sodipodi-0.dtd"
   xmlns="http://www.w3.org/2000/svg"
   xmlns:svg="http://www.w3.org/2000/svg">
  <sodipodi:namedview
     id="namedview31997"
     pagecolor="#ffffff"
     bordercolor="#666666"
     borderopacity="1.0"
     inkscape:showpageshadow="2"
     inkscape:pageopacity="0.0"
     inkscape:pagecheckerboard="0"
     inkscape:deskcolor="#d1d1d1"
     inkscape:document-units="mm"
     showgrid="false"
     inkscape:zoom="3.7522727"
     inkscape:cx="197.21381"
     inkscape:cy="34.912174"
     inkscape:window-width="2560"
     inkscape:window-height="1334"
     inkscape:window-x="-11"
     inkscape:window-y="-11"
     inkscape:window-maximized="1"
     inkscape:current-layer="layer1"
     showguides="true" />
  <defs
     id="defs31992" />
  <g
     inkscape:label="Layer 1"
     inkscape:groupmode="layer"
     id="layer1"
     transform="translate(-129.76278,-118.72445)">
    <g
       id="g44261"
       transform="matrix(0.08398766,0,0,-0.08398766,150.49078,198.43546)">
      <path
         d="m 0,86.4531 27.1445,2.668 c 1.6368,-9.2109 4.9493,-15.9688 9.9453,-20.2813 4.9961,-4.3203 11.7383,-6.4765 20.2188,-6.4765 8.9844,0 15.7578,1.9219 20.3125,5.7617 4.5547,3.8398 6.8359,8.3281 6.8359,13.4766 0,3.2929 -0.9609,6.1015 -2.875,8.4179 -1.9179,2.3243 -5.2617,4.336 -10.039,6.0547 -3.2657,1.1328 -10.711,3.1641 -22.3399,6.0938 -14.957,3.738 -25.4531,8.34 -31.4843,13.801 -8.48442,7.683 -12.72271,17.039 -12.72271,28.094 0,7.097 1.99219,13.75 5.98441,19.941 3.9883,6.191 9.7383,10.902 17.2461,14.141 7.5117,3.238 16.5781,4.851 27.1992,4.851 17.3437,0 30.3984,-3.836 39.164,-11.516 8.7692,-7.679 13.3712,-17.933 13.8082,-30.757 l -27.9019,-1.231 c -1.1953,7.168 -3.7539,12.324 -7.6797,15.469 -3.9297,3.144 -9.8203,4.707 -17.6758,4.707 -8.1054,0 -14.4531,-1.68 -19.0429,-5.039 -2.9532,-2.156 -4.4297,-5.051 -4.4297,-8.672 0,-3.301 1.3828,-6.121 4.1484,-8.469 3.5195,-2.984 12.0703,-6.093 25.6406,-9.336 13.5743,-3.23 23.6133,-6.582 30.1172,-10.039 6.5039,-3.465 11.5938,-8.191 15.2738,-14.187 3.675,-5.9963 5.511,-13.4065 5.511,-22.2385 0,-7.9961 -2.203,-15.4883 -6.597,-22.4687 -4.399,-6.9844 -10.6214,-12.168 -18.6682,-15.5665 -8.043,-3.3984 -18.0665,-5.0976 -30.0665,-5.0976 -17.4726,0 -30.8906,4.082 -40.25,12.2383 C 7.41406,58.9531 1.82031,70.8398 0,86.4531"
         style="fill:#060706;fill-opacity:1;fill-rule:nonzero;stroke:none"
         id="path44263" />
      <path
         d="m 185.094,89.5898 c -3.395,-1.1328 -8.77,-2.5 -16.125,-4.0937 -7.348,-1.5781 -12.156,-3.1328 -14.418,-4.6563 -3.457,-2.4804 -5.188,-5.625 -5.188,-9.4335 0,-3.7383 1.383,-6.9805 4.149,-9.7071 2.765,-2.7344 6.285,-4.1015 10.558,-4.1015 4.774,0 9.332,1.5898 13.668,4.7656 3.203,2.4101 5.309,5.3633 6.317,8.8594 0.691,2.2851 1.039,6.6289 1.039,13.0351 z m -35.446,21.7192 -24.039,4.375 c 2.704,9.777 7.356,17.011 13.954,21.711 6.597,4.695 16.398,7.039 29.406,7.039 11.816,0 20.617,-1.407 26.398,-4.231 5.781,-2.832 9.848,-6.414 12.207,-10.762 2.352,-4.343 3.535,-12.332 3.535,-23.945 l -0.285,-31.2265 c 0,-8.8867 0.426,-15.4414 1.27,-19.6679 0.851,-4.2188 2.437,-8.7422 4.761,-13.5664 h -26.203 c -0.691,1.7773 -1.543,4.414 -2.547,7.9023 -0.441,1.5898 -0.75,2.6328 -0.941,3.1406 -4.523,-4.4414 -9.367,-7.7695 -14.519,-10 -5.149,-2.2148 -10.649,-3.3281 -16.493,-3.3281 -10.308,0 -18.425,2.8203 -24.367,8.4766 -5.941,5.6445 -8.91,12.7851 -8.91,21.4257 0,5.7032 1.355,10.8008 4.055,15.2735 2.703,4.4805 6.488,7.9101 11.359,10.2851 4.871,2.3829 11.891,4.461 21.066,6.2381 12.383,2.344 20.958,4.539 25.739,6.571 v 2.668 c 0,5.136 -1.262,8.808 -3.778,10.996 -2.511,2.187 -7.253,3.281 -14.23,3.281 -4.715,0 -8.391,-0.938 -11.027,-2.805 -2.641,-1.875 -4.782,-5.164 -6.411,-9.851"
         style="fill:#060706;fill-opacity:1;fill-rule:nonzero;stroke:none"
         id="path44265" />
      <path
         d="M 234.32,41.0352 V 142.148 h 26.493 V 41.0352 Z m 0,114.8238 v 24.762 h 26.493 V 155.859 H 234.32"
         style="fill:#060706;fill-opacity:1;fill-rule:nonzero;stroke:none"
         id="path44267" />
      <path
         d="m 376.113,41.0352 h -26.484 v 51.6015 c 0,10.9183 -0.566,17.9883 -1.699,21.1913 -1.129,3.203 -2.969,5.692 -5.512,7.473 -2.547,1.773 -5.609,2.664 -9.191,2.664 -4.59,0 -8.707,-1.27 -12.348,-3.809 -3.649,-2.539 -6.145,-5.898 -7.496,-10.09 -1.352,-4.187 -2.028,-11.9293 -2.028,-23.2301 V 41.0352 H 284.867 V 142.148 h 24.606 v -14.843 c 8.734,11.425 19.73,17.129 32.992,17.129 5.84,0 11.183,-1.055 16.019,-3.184 4.84,-2.129 8.504,-4.844 10.985,-8.145 2.484,-3.3 4.215,-7.042 5.183,-11.23 0.977,-4.187 1.461,-10.195 1.461,-17.996 V 41.0352"
         style="fill:#060706;fill-opacity:1;fill-rule:nonzero;stroke:none"
         id="path44269" />
      <path
         d="m 388.824,69.8828 26.582,4.1016 c 1.125,-5.2149 3.422,-9.1602 6.879,-11.8555 3.457,-2.7031 8.297,-4.0547 14.516,-4.0547 6.851,0 12.004,1.2735 15.461,3.8125 2.324,1.7735 3.484,4.1602 3.484,7.1367 0,2.0313 -0.629,3.7188 -1.883,5.0469 -1.32,1.2735 -4.273,2.4453 -8.863,3.5274 -21.363,4.7656 -34.906,9.1132 -40.625,13.0468 -7.922,5.4571 -11.875,13.0465 -11.875,22.7535 0,8.758 3.422,16.122 10.273,22.09 6.844,5.965 17.469,8.946 31.86,8.946 13.695,0 23.879,-2.246 30.543,-6.758 6.66,-4.5 11.246,-11.172 13.762,-19.988 l -24.985,-4.668 c -1.066,3.933 -3.094,6.953 -6.078,9.043 -2.98,2.097 -7.238,3.14 -12.773,3.14 -6.973,0 -11.965,-0.984 -14.985,-2.945 -2.012,-1.399 -3.015,-3.215 -3.015,-5.434 0,-1.902 0.878,-3.523 2.64,-4.851 2.387,-1.778 10.633,-4.285 24.738,-7.52 14.11,-3.242 23.961,-7.2069 29.551,-11.9022 5.535,-4.7695 8.297,-11.3985 8.297,-19.9063 0,-9.2656 -3.832,-17.2343 -11.5,-23.8945 -7.664,-6.6719 -19.008,-10 -34.027,-10 -13.637,0 -24.43,2.793 -32.375,8.3789 -7.957,5.5859 -13.153,13.1758 -15.602,22.7539"
         style="fill:#060706;fill-opacity:1;fill-rule:nonzero;stroke:none"
         id="path44271" />
      <path
         d="m 525.859,93.7891 c 0,-10.4766 1.637,-18.2227 4.903,-23.2422 4.586,-7.1094 10.683,-10.6641 18.285,-10.6641 5.848,0 10.824,2.5274 14.941,7.5781 4.117,5.0391 6.18,12.9883 6.18,23.8477 0,11.5504 -2.078,19.8824 -6.227,24.9924 -4.144,5.117 -9.461,7.664 -15.929,7.664 -6.348,0 -11.625,-2.488 -15.832,-7.473 -4.215,-4.976 -6.321,-12.554 -6.321,-22.7029 z M 499.563,41.0352 V 180.621 h 26.488 v -50.269 c 8.168,9.382 17.844,14.082 29.031,14.082 12.191,0 22.277,-4.454 30.262,-13.371 7.976,-8.922 11.965,-21.727 11.965,-38.4263 0,-17.2656 -4.067,-30.5586 -12.207,-39.8945 C 576.969,43.418 567.086,38.75 555.461,38.75 c -5.719,0 -11.359,1.4453 -16.922,4.3359 -5.559,2.8829 -10.355,7.1485 -14.375,12.8047 V 41.0352 h -24.601"
         style="fill:#060706;fill-opacity:1;fill-rule:nonzero;stroke:none"
         id="path44273" />
      <path
         d="m 678.715,41.0352 v 15.1367 c -3.649,-5.3906 -8.438,-9.6485 -14.375,-12.7539 -5.938,-3.1133 -12.207,-4.668 -18.805,-4.668 -6.726,0 -12.758,1.4922 -18.097,4.4727 -5.344,2.9882 -9.208,7.1757 -11.594,12.5703 -2.391,5.3984 -3.582,12.8593 -3.582,22.3711 V 142.148 H 638.75 V 95.6836 c 0,-14.2188 0.484,-22.9297 1.461,-26.1328 0.973,-3.2031 2.75,-5.7422 5.324,-7.6172 2.574,-1.875 5.848,-2.8125 9.801,-2.8125 4.527,0 8.582,1.2617 12.164,3.7695 3.578,2.5 6.031,5.6172 7.355,9.3282 1.317,3.7109 1.977,12.8007 1.977,27.2734 V 142.148 H 703.32 V 41.0352 h -24.605"
         style="fill:#060706;fill-opacity:1;fill-rule:nonzero;stroke:none"
         id="path44275" />
      <path
         d="M 754.176,41.0352 H 727.688 V 142.148 h 24.601 v -14.375 c 4.211,6.797 7.992,11.27 11.359,13.426 3.36,2.16 7.176,3.235 11.454,3.235 6.031,0 11.839,-1.68 17.437,-5.039 l -8.203,-23.332 c -4.457,2.921 -8.609,4.386 -12.441,4.386 -3.707,0 -6.852,-1.035 -9.422,-3.097 -2.578,-2.071 -4.606,-5.797 -6.082,-11.192 -1.481,-5.398 -2.215,-16.6952 -2.215,-33.8944 V 41.0352"
         style="fill:#060706;fill-opacity:1;fill-rule:nonzero;stroke:none"
         id="path44277" />
      <path
         d="m 796.234,142.148 h 28.184 l 23.945,-71.7886 23.379,71.7886 h 27.43 L 863.824,44.8438 857.512,27.2266 C 855.18,21.3281 852.969,16.8164 850.863,13.7109 848.754,10.5977 846.34,8.07422 843.605,6.14453 840.867,4.19922 837.512,2.69531 833.516,1.62109 829.527,0.535156 825.02,0 819.988,0 814.902,0 809.902,0.535156 805.004,1.62109 l -2.359,20.93751 c 4.148,-0.8203 7.886,-1.2305 11.218,-1.2305 6.157,0 10.711,1.8242 13.672,5.4688 2.949,3.6523 5.215,8.3008 6.781,13.957 L 796.234,142.148"
         style="fill:#060706;fill-opacity:1;fill-rule:nonzero;stroke:none"
         id="path44279" />
      <path
         d="M 982.523,41.0352 948.867,180.621 h 29.137 l 21.254,-95.8866 25.772,95.8866 h 33.85 l 24.72,-97.496 21.63,97.496 h 28.66 L 1099.66,41.0352 h -30.2 L 1041.38,145.391 1013.39,41.0352 h -30.867"
         style="fill:#060706;fill-opacity:1;fill-rule:nonzero;stroke:none"
         id="path44281" />
      <path
         d="m 1198.11,100.254 c -0.19,7.742 -2.21,13.633 -6.06,17.668 -3.85,4.031 -8.52,6.043 -14.04,6.043 -5.9,0 -10.77,-2.129 -14.62,-6.375 -3.84,-4.262 -5.73,-10.031 -5.67,-17.336 z m -1.54,-27.0313 26.93,-4.4844 c -3.47,-9.7735 -8.93,-17.2149 -16.4,-22.3203 -7.47,-5.1094 -16.81,-7.668 -28.03,-7.668 -17.76,0 -30.91,5.7422 -39.43,17.2344 -6.73,9.2031 -10.1,20.8242 -10.1,34.8437 0,16.7619 4.42,29.8869 13.27,39.3749 8.85,9.492 20.04,14.231 33.57,14.231 15.19,0 27.18,-4.961 35.96,-14.891 8.78,-9.941 12.98,-25.156 12.6,-45.6563 h -67.7 c 0.19,-7.9414 2.37,-14.1133 6.54,-18.5273 4.16,-4.4141 9.35,-6.6094 15.58,-6.6094 4.23,0 7.78,1.1328 10.67,3.418 2.89,2.2851 5.06,5.9687 6.54,11.0547"
         style="fill:#060706;fill-opacity:1;fill-rule:nonzero;stroke:none"
         id="path44283" />
      <path
         d="M 1243.06,41.0352 V 180.621 h 27.02 V 41.0352 h -27.02"
         style="fill:#060706;fill-opacity:1;fill-rule:nonzero;stroke:none"
         id="path44285" />
      <path
         d="M 1293.88,41.0352 V 180.621 h 27.03 V 41.0352 h -27.03"
         style="fill:#060706;fill-opacity:1;fill-rule:nonzero;stroke:none"
         id="path44287" />
      <path
         d="m 1433.75,112.258 -26.63,-4.758 c -0.9,5.266 -2.94,9.227 -6.11,11.895 -3.18,2.668 -7.3,4.003 -12.36,4.003 -6.73,0 -12.1,-2.304 -16.11,-6.906 -4,-4.597 -6.01,-12.304 -6.01,-23.0936 0,-11.9921 2.03,-20.4687 6.11,-25.4218 4.07,-4.9493 9.54,-7.418 16.39,-7.418 5.13,0 9.33,1.4453 12.6,4.3242 3.27,2.8906 5.58,7.8594 6.92,14.9024 l 26.55,-4.4727 c -2.76,-12.0586 -8.05,-21.1719 -15.87,-27.3242 -7.82,-6.1641 -18.3,-9.2383 -31.45,-9.2383 -14.93,0 -26.84,4.668 -35.72,13.9922 -8.88,9.3359 -13.32,22.2461 -13.32,38.7617 0,16.6871 4.45,29.6871 13.37,38.9841 8.91,9.297 20.97,13.946 36.15,13.946 12.44,0 22.34,-2.649 29.67,-7.95 7.34,-5.293 12.62,-13.379 15.82,-24.226"
         style="fill:#060706;fill-opacity:1;fill-rule:nonzero;stroke:none"
         id="path44289" />
      <path
         d="m 1471.79,91.5938 c 0,-10.0313 2.4,-17.7071 7.2,-23.0391 4.82,-5.332 10.75,-7.9961 17.8,-7.9961 7.05,0 12.97,2.6641 17.74,7.9961 4.78,5.332 7.16,13.0781 7.16,23.2305 0,9.9028 -2.38,17.5238 -7.16,22.8558 -4.77,5.332 -10.69,7.996 -17.74,7.996 -7.05,0 -12.98,-2.664 -17.8,-7.996 -4.8,-5.332 -7.2,-13.02 -7.2,-23.0472 z m -27.71,1.4335 c 0,8.8747 2.22,17.4807 6.64,25.8007 4.43,8.313 10.7,14.656 18.8,19.043 8.12,4.375 17.17,6.563 27.17,6.563 15.45,0 28.11,-4.961 37.99,-14.891 9.87,-9.941 14.8,-22.492 14.8,-37.668 0,-15.293 -4.98,-27.9687 -14.95,-38.0352 -9.97,-10.0625 -22.52,-15.0898 -37.65,-15.0898 -9.36,0 -18.29,2.0898 -26.78,6.2891 -8.5,4.1797 -14.95,10.3203 -19.38,18.4179 -4.42,8.0977 -6.64,17.9493 -6.64,29.5703"
         style="fill:#060706;fill-opacity:1;fill-rule:nonzero;stroke:none"
         id="path44291" />
      <path
         d="m 1564.72,142.148 h 24.9 v -13.796 c 8.92,10.718 19.52,16.082 31.84,16.082 6.53,0 12.2,-1.329 17.02,-3.996 4.8,-2.665 8.75,-6.7 11.82,-12.086 4.49,5.386 9.33,9.421 14.52,12.086 5.2,2.667 10.75,3.996 16.64,3.996 7.5,0 13.85,-1.504 19.04,-4.524 5.19,-3.008 9.07,-7.437 11.64,-13.277 1.85,-4.32 2.79,-11.301 2.79,-20.949 V 41.0352 h -27.03 v 57.7929 c 0,10.0269 -0.93,16.5039 -2.78,19.4259 -2.5,3.809 -6.35,5.711 -11.55,5.711 -3.78,0 -7.34,-1.145 -10.67,-3.43 -3.33,-2.281 -5.74,-5.633 -7.21,-10.039 -1.48,-4.41 -2.21,-11.3749 -2.21,-20.9062 V 41.0352 h -27.02 v 55.4101 c 0,9.8437 -0.48,16.1917 -1.45,19.0427 -0.96,2.864 -2.45,4.989 -4.47,6.387 -2.02,1.395 -4.76,2.09 -8.23,2.09 -4.17,0 -7.92,-1.113 -11.25,-3.328 -3.33,-2.231 -5.72,-5.434 -7.15,-9.621 -1.45,-4.192 -2.17,-11.1332 -2.17,-20.848 V 41.0352 h -27.02 V 142.148"
         style="fill:#060706;fill-opacity:1;fill-rule:nonzero;stroke:none"
         id="path44293" />
      <path
         d="m 1798.63,100.254 c -0.18,7.742 -2.2,13.633 -6.05,17.668 -3.85,4.031 -8.53,6.043 -14.04,6.043 -5.9,0 -10.78,-2.129 -14.62,-6.375 -3.84,-4.262 -5.74,-10.031 -5.68,-17.336 z m -1.53,-27.0313 26.92,-4.4844 c -3.45,-9.7735 -8.92,-17.2149 -16.39,-22.3203 -7.47,-5.1094 -16.82,-7.668 -28.03,-7.668 -17.76,0 -30.91,5.7422 -39.43,17.2344 -6.73,9.2031 -10.1,20.8242 -10.1,34.8437 0,16.7619 4.42,29.8869 13.27,39.3749 8.85,9.492 20.04,14.231 33.56,14.231 15.2,0 27.18,-4.961 35.97,-14.891 8.78,-9.941 12.98,-25.156 12.6,-45.6563 h -67.71 c 0.2,-7.9414 2.38,-14.1133 6.55,-18.5273 4.16,-4.4141 9.35,-6.6094 15.57,-6.6094 4.23,0 7.8,1.1328 10.68,3.418 2.89,2.2851 5.07,5.9687 6.54,11.0547"
         style="fill:#060706;fill-opacity:1;fill-rule:nonzero;stroke:none"
         id="path44295" />
      <path
         d="m 1980.82,92.3516 27.32,-8.6602 c -4.18,-15.2344 -11.15,-26.5508 -20.89,-33.9453 -9.74,-7.3945 -22.1,-11.0938 -37.08,-11.0938 -18.54,0 -33.77,6.336 -45.71,18.9922 -11.93,12.668 -17.9,29.9844 -17.9,51.9455 0,23.23 6,41.277 17.99,54.133 12,12.847 27.77,19.273 47.33,19.273 17.08,0 30.94,-5.043 41.61,-15.137 6.34,-5.964 11.1,-14.539 14.28,-25.711 l -27.9,-6.66 c -1.65,7.239 -5.09,12.95 -10.33,17.141 -5.23,4.187 -11.6,6.277 -19.09,6.277 -10.35,0 -18.74,-3.711 -25.19,-11.133 -6.44,-7.429 -9.65,-19.46 -9.65,-36.093 0,-17.6487 3.16,-30.2152 9.51,-37.6956 6.34,-7.5 14.6,-11.2422 24.76,-11.2422 7.48,0 13.93,2.3867 19.33,7.1406 5.39,4.7656 9.27,12.2578 11.61,22.4688"
         style="fill:#060706;fill-opacity:1;fill-rule:nonzero;stroke:none"
         id="path44297" />
      <path
         d="m 2085.4,100.254 c -0.19,7.742 -2.2,13.633 -6.01,17.668 -3.8,4.031 -8.43,6.043 -13.89,6.043 -5.84,0 -10.67,-2.129 -14.47,-6.375 -3.81,-4.262 -5.69,-10.031 -5.63,-17.336 z m -1.52,-27.0313 26.66,-4.4844 c -3.44,-9.7735 -8.85,-17.2149 -16.24,-22.3203 -7.4,-5.1094 -16.65,-7.668 -27.76,-7.668 -17.58,0 -30.59,5.7422 -39.03,17.2344 -6.67,9.2031 -10,20.8242 -10,34.8437 0,16.7619 4.37,29.8869 13.13,39.3749 8.76,9.492 19.84,14.231 33.24,14.231 15.04,0 26.91,-4.961 35.6,-14.891 8.7,-9.941 12.86,-25.156 12.48,-45.6563 h -67.03 c 0.19,-7.9414 2.35,-14.1133 6.48,-18.5273 4.12,-4.4141 9.26,-6.6094 15.42,-6.6094 4.19,0 7.71,1.1328 10.56,3.418 2.86,2.2851 5.02,5.9687 6.49,11.0547"
         style="fill:#060706;fill-opacity:1;fill-rule:nonzero;stroke:none"
         id="path44299" />
      <path
         d="m 2221.85,41.0352 h -26.76 v 51.6015 c 0,10.9183 -0.57,17.9883 -1.72,21.1913 -1.13,3.203 -3,5.692 -5.57,7.473 -2.57,1.773 -5.66,2.664 -9.27,2.664 -4.64,0 -8.8,-1.27 -12.49,-3.809 -3.68,-2.539 -6.2,-5.898 -7.56,-10.09 -1.37,-4.187 -2.04,-11.9293 -2.04,-23.2301 V 41.0352 h -26.76 V 142.148 h 24.84 v -14.843 c 8.83,11.425 19.93,17.129 33.33,17.129 5.91,0 11.3,-1.055 16.18,-3.184 4.9,-2.129 8.6,-4.844 11.1,-8.145 2.51,-3.3 4.25,-7.042 5.24,-11.23 0.98,-4.187 1.48,-10.195 1.48,-17.996 V 41.0352"
         style="fill:#060706;fill-opacity:1;fill-rule:nonzero;stroke:none"
         id="path44301" />
      <path
         d="M 2292.43,142.148 V 120.82 h -18.28 V 80.0781 c 0,-8.2617 0.17,-13.0664 0.52,-14.4336 0.35,-1.3593 1.14,-2.4922 2.38,-3.3789 1.24,-0.8867 2.74,-1.3281 4.52,-1.3281 2.48,0 6.07,0.8594 10.76,2.5703 l 2.29,-20.7539 c -6.22,-2.6758 -13.27,-4.0039 -21.14,-4.0039 -4.83,0 -9.17,0.8125 -13.04,2.4336 -3.88,1.6094 -6.72,3.7109 -8.53,6.2773 -1.8,2.5664 -3.06,6.0469 -3.76,10.4297 -0.57,3.1055 -0.86,9.3946 -0.86,18.8477 V 120.82 h -12.28 v 21.328 h 12.28 v 20.098 l 26.86,15.613 v -35.711 h 18.28"
         style="fill:#060706;fill-opacity:1;fill-rule:nonzero;stroke:none"
         id="path44303" />
      <path
         d="M 2338.55,41.0352 H 2311.8 V 142.148 h 24.85 v -14.375 c 4.25,6.797 8.08,11.27 11.48,13.426 3.39,2.16 7.24,3.235 11.56,3.235 6.09,0 11.97,-1.68 17.61,-5.039 l -8.28,-23.332 c -4.51,2.921 -8.7,4.386 -12.56,4.386 -3.75,0 -6.93,-1.035 -9.53,-3.097 -2.6,-2.071 -4.64,-5.797 -6.14,-11.192 -1.49,-5.398 -2.24,-16.6952 -2.24,-33.8944 V 41.0352"
         style="fill:#060706;fill-opacity:1;fill-rule:nonzero;stroke:none"
         id="path44305" />
      <path
         d="m 2443.07,100.254 c -0.2,7.742 -2.2,13.633 -6.01,17.668 -3.81,4.031 -8.44,6.043 -13.9,6.043 -5.84,0 -10.66,-2.129 -14.47,-6.375 -3.81,-4.262 -5.68,-10.031 -5.62,-17.336 z m -1.53,-27.0313 26.66,-4.4844 c -3.43,-9.7735 -8.84,-17.2149 -16.24,-22.3203 -7.39,-5.1094 -16.65,-7.668 -27.75,-7.668 -17.59,0 -30.6,5.7422 -39.03,17.2344 -6.67,9.2031 -10,20.8242 -10,34.8437 0,16.7619 4.37,29.8869 13.13,39.3749 8.76,9.492 19.83,14.231 33.23,14.231 15.04,0 26.92,-4.961 35.61,-14.891 8.7,-9.941 12.86,-25.156 12.48,-45.6563 h -67.03 c 0.18,-7.9414 2.34,-14.1133 6.47,-18.5273 4.12,-4.4141 9.27,-6.6094 15.42,-6.6094 4.19,0 7.72,1.1328 10.57,3.418 2.86,2.2851 5.02,5.9687 6.48,11.0547"
         style="fill:#060706;fill-opacity:1;fill-rule:nonzero;stroke:none"
         id="path44307" />
      <path
         d="m 415.227,288.391 h -20 v 399.984 h 20 V 288.391"
         style="fill:#2c54ad;fill-opacity:1;fill-rule:nonzero;stroke:none"
         id="path44309" />
      <path
         d="m 655.227,288.391 h -40 v 399.984 h 40 V 288.391"
         style="fill:#2c54ad;fill-opacity:1;fill-rule:nonzero;stroke:none"
         id="path44311" />
      <path
         d="m 895.227,288.391 h -40 v 399.984 h 40 V 288.391"
         style="fill:#2c54ad;fill-opacity:1;fill-rule:nonzero;stroke:none"
         id="path44313" />
      <path
         d="m 1065.22,288.391 h -20 v 399.984 h 20 V 288.391"
         style="fill:#2c54ad;fill-opacity:1;fill-rule:nonzero;stroke:none"
         id="path44315" />
      <path
         d="m 1185.22,288.391 h -20 v 399.984 h 20 V 288.391"
         style="fill:#2c54ad;fill-opacity:1;fill-rule:nonzero;stroke:none"
         id="path44317" />
      <path
         d="m 1305.22,288.391 h -20 v 399.984 h 20 V 288.391"
         style="fill:#2c54ad;fill-opacity:1;fill-rule:nonzero;stroke:none"
         id="path44319" />
      <path
         d="m 1425.22,288.391 h -20 v 399.984 h 20 V 288.391"
         style="fill:#2c54ad;fill-opacity:1;fill-rule:nonzero;stroke:none"
         id="path44321" />
      <path
         d="m 1615.22,288.391 h -40 v 399.984 h 40 V 288.391"
         style="fill:#2c54ad;fill-opacity:1;fill-rule:nonzero;stroke:none"
         id="path44323" />
      <path
         d="m 1855.22,288.391 h -40 v 399.984 h 40 V 288.391"
         style="fill:#2c54ad;fill-opacity:1;fill-rule:nonzero;stroke:none"
         id="path44325" />
      <path
         d="m 535.227,318.391 h -40 v 339.984 h 40 V 318.391"
         style="fill:#2c54ad;fill-opacity:1;fill-rule:nonzero;stroke:none"
         id="path44327" />
      <path
         d="m 775.227,318.391 h -40 v 339.984 h 40 V 318.391"
         style="fill:#2c54ad;fill-opacity:1;fill-rule:nonzero;stroke:none"
         id="path44329" />
      <path
         d="m 1005.22,318.391 h -29.993 v 339.984 h 29.993 V 318.391"
         style="fill:#2c54ad;fill-opacity:1;fill-rule:nonzero;stroke:none"
         id="path44331" />
      <path
         d="m 1125.22,308.391 h -20 v 359.984 h 20 V 308.391"
         style="fill:#2c54ad;fill-opacity:1;fill-rule:nonzero;stroke:none"
         id="path44333" />
      <path
         d="m 1245.22,308.391 h -20 v 359.984 h 20 V 308.391"
         style="fill:#2c54ad;fill-opacity:1;fill-rule:nonzero;stroke:none"
         id="path44335" />
      <path
         d="m 1365.22,308.391 h -20 v 359.984 h 20 V 308.391"
         style="fill:#2c54ad;fill-opacity:1;fill-rule:nonzero;stroke:none"
         id="path44337" />
      <path
         d="m 1495.22,318.391 h -30 v 339.984 h 30 V 318.391"
         style="fill:#2c54ad;fill-opacity:1;fill-rule:nonzero;stroke:none"
         id="path44339" />
      <path
         d="m 1735.22,318.391 h -40 v 339.984 h 40 V 318.391"
         style="fill:#2c54ad;fill-opacity:1;fill-rule:nonzero;stroke:none"
         id="path44341" />
      <path
         d="m 1975.22,318.391 h -40 v 339.984 h 40 V 318.391"
         style="fill:#2c54ad;fill-opacity:1;fill-rule:nonzero;stroke:none"
         id="path44343" />
      <path
         d="m 2075.22,288.391 h -20 v 399.984 h 20 V 288.391"
         style="fill:#2c54ad;fill-opacity:1;fill-rule:nonzero;stroke:none"
         id="path44345" />
    </g>
  </g>
</svg>
