<?xml version="1.0" encoding="UTF-8" standalone="no"?>
<!-- Created with Inkscape (http://www.inkscape.org/) -->

<svg
   width="270"
   height="105"
   viewBox="0 0 270.00002 105"
   version="1.1"
   id="svg31995"
   inkscape:version="1.2.2 (732a01da63, 2022-12-09)"
   sodipodi:docname="light-logo-cf.svg"
   xmlns:inkscape="http://www.inkscape.org/namespaces/inkscape"
   xmlns:sodipodi="http://sodipodi.sourceforge.net/DTD/sodipodi-0.dtd"
   xmlns="http://www.w3.org/2000/svg"
   xmlns:svg="http://www.w3.org/2000/svg">
  <sodipodi:namedview
     id="namedview31997"
     pagecolor="#ffffff"
     bordercolor="#666666"
     borderopacity="1.0"
     inkscape:showpageshadow="2"
     inkscape:pageopacity="0.0"
     inkscape:pagecheckerboard="0"
     inkscape:deskcolor="#d1d1d1"
     inkscape:document-units="mm"
     showgrid="false"
     inkscape:zoom="3.7522727"
     inkscape:cx="69.291338"
     inkscape:cy="34.912174"
     inkscape:window-width="2560"
     inkscape:window-height="1334"
     inkscape:window-x="-11"
     inkscape:window-y="-11"
     inkscape:window-maximized="1"
     inkscape:current-layer="layer1"
     showguides="true" />
  <defs
     id="defs31992" />
  <g
     inkscape:label="Layer 1"
     inkscape:groupmode="layer"
     id="layer1"
     transform="translate(-129.76278,-118.72445)">
    <g
       id="g31929"
       transform="matrix(1.4999917,0,0,1.49999,402.82515,75.606072)">
      <path
         fill-rule="nonzero"
         fill="#ed153e"
         fill-opacity="1"
         d="m -155.15143,63.36715 c 3.61045,0 6.53603,-2.926955 6.53603,-6.536037 0,-3.61046 -2.92558,-6.536035 -6.53603,-6.536035 -3.60909,0 -6.53604,2.925575 -6.53604,6.536035 0,3.609082 2.92695,6.536037 6.53604,6.536037"
         id="path30603"
         style="stroke-width:0.352778" />
      <path
         fill-rule="nonzero"
         fill="#231f20"
         fill-opacity="1"
         d="m -135.54195,50.295078 c 1.80523,0 3.43958,0.731738 4.62332,1.914095 l 4.62056,-4.62194 c -2.36609,-2.366092 -5.63342,-3.82819 -9.24388,-3.82819 -7.21954,0 -13.07345,5.852528 -13.07345,13.07207 v 6.536037 l 2.70784,2.707845 c -0.80339,0.802015 -1.71841,1.491036 -2.70784,2.065679 v 13.74593 h 6.53741 v -6.536037 c 0,-3.610459 2.92558,-6.53741 6.53604,-6.53741 h 2.83325 V 63.36715 h -2.83325 c -3.61046,0 -6.53604,-2.926955 -6.53604,-6.536037 0,-3.61046 2.92558,-6.536035 6.53604,-6.536035"
         id="path30605"
         style="stroke-width:0.352778" />
      <path
         fill-rule="nonzero"
         fill="#00adef"
         fill-opacity="1"
         d="m -150.52949,61.453053 c -1.18236,1.182358 -2.81671,1.914097 -4.62194,1.914097 -3.60909,0 -6.53604,-2.926955 -6.53604,-6.536037 0,-3.61046 2.92695,-6.536035 6.53604,-6.536035 1.80523,0 3.43958,0.731738 4.62194,1.914095 l 4.62193,-4.62194 c -2.36471,-2.366092 -5.63342,-3.82819 -9.24387,-3.82819 -7.21954,0 -13.07208,5.852528 -13.07208,13.07207 0,7.219544 5.85254,13.072071 13.07208,13.072071 2.384,0 4.61229,-0.649055 6.53603,-1.76251 0.98943,-0.574643 1.90445,-1.263664 2.70784,-2.065679 z m 0,0"
         id="path30607"
         style="stroke-width:0.352778" />
      <path
         fill-rule="nonzero"
         fill="#231f20"
         fill-opacity="1"
         d="m -102.80252,68.063504 c 1.31052,0 1.7005,-1.120348 1.7005,-2.226909 0,-1.121724 -0.38998,-2.242069 -1.7005,-2.242069 -1.29673,0 -1.68809,1.120345 -1.68809,2.242069 0,1.106561 0.39136,2.226909 1.68809,2.226909 m 0,-5.914541 c 2.20073,0 3.618731,1.457963 3.618731,3.687632 0,2.213126 -1.418001,3.672469 -3.618731,3.672469 -2.18694,0 -3.60632,-1.459343 -3.60632,-3.672469 0,-2.229669 1.41938,-3.687632 3.60632,-3.687632"
         id="path30609"
         style="stroke-width:0.352778" />
      <path
         fill-rule="nonzero"
         fill="#231f20"
         fill-opacity="1"
         d="m -91.459886,69.318896 h -1.823145 v -0.971519 h -0.04134 c -0.485069,0.782726 -1.321537,1.161687 -2.131825,1.161687 -2.039497,0 -2.553505,-1.147903 -2.553505,-2.877344 v -4.293965 h 1.916854 v 3.942567 c 0,1.149283 0.338995,1.715657 1.230588,1.715657 1.039039,0 1.484146,-0.580154 1.484146,-1.998154 v -3.66007 h 1.918229 z m 0,0"
         id="path30611"
         style="stroke-width:0.352778" />
      <path
         fill-rule="nonzero"
         fill="#231f20"
         fill-opacity="1"
         d="m -90.069447,62.337755 h 1.821769 v 0.972894 h 0.04134 c 0.48507,-0.782726 1.322917,-1.161686 2.133205,-1.161686 2.039497,0 2.552125,1.147907 2.552125,2.877343 v 4.29259 h -1.91685 v -3.942567 c 0,-1.147907 -0.337618,-1.714281 -1.229208,-1.714281 -1.040419,0 -1.485526,0.580153 -1.485526,1.998158 v 3.65869 h -1.916853 z m 0,0"
         id="path30613"
         style="stroke-width:0.352778" />
      <path
         fill-rule="nonzero"
         fill="#231f20"
         fill-opacity="1"
         d="m -78.821897,63.594526 c -1.255395,0 -1.688098,1.080382 -1.688098,2.22691 0,1.09554 0.500228,2.242068 1.688098,2.242068 1.269171,0 1.646756,-1.106565 1.646756,-2.254472 0,-1.134124 -0.405144,-2.214506 -1.646756,-2.214506 m 1.672936,4.834156 h -0.02618 c -0.445107,0.756543 -1.227833,1.080382 -2.119426,1.080382 -2.107018,0 -3.133658,-1.810741 -3.133658,-3.741374 0,-1.876887 1.041799,-3.618727 3.09232,-3.618727 0.825443,0 1.634352,0.351398 2.067055,1.040419 h 0.02755 V 59.67814 h 1.915471 v 9.642135 h -1.823145 z m 0,0"
         id="path30615"
         style="stroke-width:0.352778" />
      <path
         fill-rule="nonzero"
         fill="#231f20"
         fill-opacity="1"
         d="m -69.600067,65.90274 c -0.323839,0.285253 -0.999077,0.297657 -1.59301,0.405141 -0.593937,0.122647 -1.134128,0.323839 -1.134128,1.02664 0,0.7152 0.553974,0.890213 1.175466,0.890213 1.49793,0 1.551672,-1.18787 1.551672,-1.606793 z m -4.429016,-1.416625 c 0.108868,-1.795582 1.715661,-2.337152 3.281112,-2.337152 1.390439,0 3.066133,0.311435 3.066133,1.985754 v 3.631131 c 0,0.635275 0.06615,1.27055 0.242535,1.554427 h -1.944412 c -0.06752,-0.217731 -0.121268,-0.446486 -0.135047,-0.675241 -0.606337,0.633899 -1.499306,0.86403 -2.349557,0.86403 -1.324292,0 -2.377115,-0.661458 -2.377115,-2.093239 0,-1.57923 1.189249,-1.958191 2.377115,-2.120801 1.174091,-0.175009 2.268252,-0.133671 2.268252,-0.917772 0,-0.824068 -0.566374,-0.945335 -1.241612,-0.945335 -0.728983,0 -1.201649,0.297656 -1.269174,1.054198 z m 0,0"
         id="path30617"
         style="stroke-width:0.352778" />
      <path
         fill-rule="nonzero"
         fill="#231f20"
         fill-opacity="1"
         d="m -63.834355,62.337755 h 1.404221 v 1.28433 h -1.404221 v 3.456122 c 0,0.647675 0.162609,0.810284 0.811664,0.810284 0.201196,0 0.389985,-0.01379 0.592557,-0.05512 v 1.499305 c -0.323839,0.05512 -0.741383,0.0689 -1.120344,0.0689 -1.174091,0 -2.200727,-0.271473 -2.200727,-1.661911 v -4.11758 h -1.161687 v -1.28433 h 1.161687 v -2.091863 h 1.91685 z m 0,0"
         id="path30619"
         style="stroke-width:0.352778" />
      <path
         fill-rule="nonzero"
         fill="#231f20"
         fill-opacity="1"
         d="m -61.453105,61.25875 h 1.916853 v -1.58061 h -1.916853 z m 0,0"
         id="path30621"
         style="stroke-width:0.352778" />
      <path
         fill-rule="nonzero"
         fill="#231f20"
         fill-opacity="1"
         d="m -113.31281,59.67814 v 9.640756 h 1.91685 v -3.98253 h 3.85712 v -1.648135 h -3.85712 v -2.363335 h 4.47862 V 59.67814 Z m 0,0"
         id="path30623"
         style="stroke-width:0.352778" />
      <path
         fill-rule="nonzero"
         fill="#231f20"
         fill-opacity="1"
         d="m -61.453105,69.318896 h 1.916853 v -6.981141 h -1.916853 z m 0,0"
         id="path30625"
         style="stroke-width:0.352778" />
      <path
         fill-rule="nonzero"
         fill="#231f20"
         fill-opacity="1"
         d="m -54.700716,68.063504 c 1.309134,0 1.699119,-1.120348 1.699119,-2.226909 0,-1.121724 -0.389985,-2.242069 -1.699119,-2.242069 -1.298113,0 -1.689478,1.120345 -1.689478,2.242069 0,1.106561 0.391365,2.226909 1.689478,2.226909 m 0,-5.914541 c 2.199347,0 3.617348,1.457963 3.617348,3.687632 0,2.213126 -1.418001,3.672469 -3.617348,3.672469 -2.188327,0 -3.607707,-1.459343 -3.607707,-3.672469 0,-2.229669 1.41938,-3.687632 3.607707,-3.687632"
         id="path30627"
         style="stroke-width:0.352778" />
      <path
         fill-rule="nonzero"
         fill="#231f20"
         fill-opacity="1"
         d="m -49.909278,62.337755 h 1.824521 v 0.972894 h 0.03859 c 0.487825,-0.782726 1.324292,-1.161686 2.133201,-1.161686 2.039497,0 2.552129,1.147907 2.552129,2.877343 v 4.29259 h -1.918229 v -3.942567 c 0,-1.147907 -0.336243,-1.714281 -1.227833,-1.714281 -1.040419,0 -1.484147,0.580153 -1.484147,1.998158 v 3.65869 h -1.918229 z m 0,0"
         id="path30629"
         style="stroke-width:0.352778" />
      <path
         fill-rule="nonzero"
         fill="#231f20"
         fill-opacity="1"
         d="m -103.37303,43.530288 h 1.91685 v 3.632509 h 0.0414 c 0.48507,-0.782726 1.32291,-1.161686 2.038114,-1.161686 2.03812,0 2.552128,1.147906 2.552128,2.875966 v 4.293967 h -1.916853 v -3.942568 c 0,-1.147905 -0.337619,-1.714279 -1.229209,-1.714279 -1.04042,0 -1.48553,0.580154 -1.48553,1.998155 v 3.658692 h -1.91685 z m 0,0"
         id="path30631"
         style="stroke-width:0.352778" />
      <path
         fill-rule="nonzero"
         fill="#231f20"
         fill-opacity="1"
         d="m -91.086439,49.754887 c -0.323839,0.285254 -0.999077,0.297656 -1.59301,0.405143 -0.593937,0.121268 -1.134128,0.323839 -1.134128,1.028017 0,0.713823 0.553974,0.888834 1.174091,0.888834 1.499305,0 1.553047,-1.187869 1.553047,-1.605414 z m -4.429015,-1.418001 c 0.108867,-1.794206 1.71566,-2.335775 3.281112,-2.335775 1.390438,0 3.066133,0.311437 3.066133,1.985753 v 3.632509 c 0,0.633897 0.06753,1.267795 0.242534,1.553049 h -1.944412 c -0.06752,-0.21773 -0.121267,-0.446485 -0.135047,-0.675239 -0.607716,0.633898 -1.499305,0.862652 -2.349556,0.862652 -1.324293,0 -2.375736,-0.66008 -2.375736,-2.091862 0,-1.579232 1.187869,-1.958192 2.375736,-2.120801 1.17409,-0.175011 2.268251,-0.13367 2.268251,-0.917773 0,-0.824067 -0.566374,-0.945335 -1.241612,-0.945335 -0.728983,0 -1.203028,0.297657 -1.269174,1.052822 z m 0,0"
         id="path30633"
         style="stroke-width:0.352778" />
      <path
         fill-rule="nonzero"
         fill="#231f20"
         fill-opacity="1"
         d="m -87.697842,46.189902 h 1.810741 v 0.945334 h 0.02618 c 0.498849,-0.715201 1.229212,-1.134125 2.133205,-1.134125 0.87781,0 1.661912,0.323839 2.039497,1.161686 0.40514,-0.607715 1.134124,-1.161686 2.107018,-1.161686 1.485526,0 2.550749,0.689019 2.550749,2.498383 v 4.67155 h -1.91685 v -3.956348 c 0,-0.930176 -0.0813,-1.700499 -1.17409,-1.700499 -1.081758,0 -1.282954,0.890213 -1.282954,1.769401 v 3.887446 h -1.918229 v -3.915007 c 0,-0.810286 0.05375,-1.74184 -1.161683,-1.74184 -0.377586,0 -1.295358,0.242535 -1.295358,1.606793 v 4.050054 h -1.918229 z m 0,0"
         id="path30635"
         style="stroke-width:0.352778" />
      <path
         fill-rule="nonzero"
         fill="#231f20"
         fill-opacity="1"
         d="m -70.399327,49.701144 c 0,-1.106565 -0.446486,-2.254471 -1.674319,-2.254471 -1.256771,0 -1.661911,1.120345 -1.661911,2.254471 0,1.134125 0.432703,2.214507 1.674315,2.214507 1.256771,0 1.661915,-1.080382 1.661915,-2.214507 m -5.185559,-3.511242 h 1.823145 v 0.891591 h 0.02618 c 0.458886,-0.741385 1.215428,-1.079004 2.079459,-1.079004 2.188323,0 3.17362,1.768023 3.17362,3.752398 0,1.864486 -1.026639,3.604948 -3.066136,3.604948 -0.836468,0 -1.632973,-0.363802 -2.091859,-1.052821 h -0.02755 v 3.32245 h -1.91685 z m 0,0"
         id="path30637"
         style="stroke-width:0.352778" />
      <path
         fill-rule="nonzero"
         fill="#231f20"
         fill-opacity="1"
         d="m -63.000642,49.754887 c -0.325216,0.285254 -1.000453,0.297656 -1.59439,0.405143 -0.592557,0.121268 -1.132748,0.323839 -1.132748,1.028017 0,0.713823 0.552594,0.888834 1.17409,0.888834 1.499305,0 1.553048,-1.187869 1.553048,-1.605414 z m -4.429013,-1.418001 c 0.108864,-1.794206 1.715658,-2.335775 3.281109,-2.335775 1.390438,0 3.064757,0.311437 3.064757,1.985753 v 3.632509 c 0,0.633897 0.06752,1.267795 0.242535,1.553049 h -1.944413 c -0.06615,-0.21773 -0.119891,-0.446485 -0.133671,-0.675239 -0.607712,0.633898 -1.499305,0.862652 -2.349553,0.862652 -1.324296,0 -2.377119,-0.66008 -2.377119,-2.091862 0,-1.579232 1.18925,-1.958192 2.377119,-2.120801 1.174087,-0.175011 2.268249,-0.13367 2.268249,-0.917773 0,-0.824067 -0.56775,-0.945335 -1.241612,-0.945335 -0.73036,0 -1.203026,0.297657 -1.269171,1.052822 z m 0,0"
         id="path30639"
         style="stroke-width:0.352778" />
      <path
         fill-rule="nonzero"
         fill="#231f20"
         fill-opacity="1"
         d="m -59.612046,43.531667 h 1.918229 v 9.640755 h -1.918229 z m 0,0"
         id="path30641"
         style="stroke-width:0.352778" />
      <path
         fill-rule="nonzero"
         fill="#231f20"
         fill-opacity="1"
         d="m -56.195887,46.19128 h 1.918229 v 6.981142 h -1.918229 z m 1.918229,-1.080382 h -1.918229 v -1.58061 h 1.918229 z m 0,0"
         id="path30643"
         style="stroke-width:0.352778" />
      <path
         fill-rule="nonzero"
         fill="#231f20"
         fill-opacity="1"
         d="m -52.779732,46.189902 h 1.810742 v 0.945334 h 0.02618 c 0.498849,-0.715201 1.227832,-1.134125 2.133205,-1.134125 0.877809,0 1.661911,0.323839 2.038117,1.161686 0.40652,-0.607715 1.134124,-1.161686 2.108397,-1.161686 1.484147,0 2.55075,0.689019 2.55075,2.498383 v 4.67155 h -1.91685 v -3.956348 c 0,-0.930176 -0.08131,-1.700499 -1.174091,-1.700499 -1.081757,0 -1.282954,0.890213 -1.282954,1.769401 v 3.887446 h -1.918229 v -3.915007 c 0,-0.810286 0.05512,-1.74184 -1.160307,-1.74184 -0.378961,0 -1.296734,0.242535 -1.296734,1.606793 v 4.050054 h -1.918229 z m 0,0"
         id="path30645"
         style="stroke-width:0.352778" />
      <path
         fill-rule="nonzero"
         fill="#231f20"
         fill-opacity="1"
         d="m -36.319064,49.754887 c -0.325219,0.285254 -1.000457,0.297656 -1.593014,0.405143 -0.595312,0.121268 -1.135503,0.323839 -1.135503,1.028017 0,0.713823 0.55397,0.888834 1.175466,0.888834 1.497929,0 1.553051,-1.187869 1.553051,-1.605414 z m -4.429016,-1.418001 c 0.107488,-1.794206 1.714278,-2.335775 3.281109,-2.335775 1.390442,0 3.064757,0.311437 3.064757,1.985753 v 3.632509 c 0,0.633897 0.06753,1.267795 0.242534,1.553049 h -1.944412 c -0.06615,-0.21773 -0.119888,-0.446485 -0.133671,-0.675239 -0.607713,0.633898 -1.499305,0.862652 -2.350932,0.862652 -1.322917,0 -2.375736,-0.66008 -2.375736,-2.091862 0,-1.579232 1.187866,-1.958192 2.375736,-2.120801 1.175466,-0.175011 2.269631,-0.13367 2.269631,-0.917773 0,-0.824067 -0.567754,-0.945335 -1.241616,-0.945335 -0.730359,0 -1.203025,0.297657 -1.269171,1.052822 z m 0,0"
         id="path30647"
         style="stroke-width:0.352778" />
      <path
         fill-rule="nonzero"
         fill="#231f20"
         fill-opacity="1"
         d="m -26.434396,53.171044 h -1.824525 v -0.971517 h -0.03996 c -0.486449,0.782725 -1.322917,1.160308 -2.133202,1.160308 -2.038121,0 -2.552128,-1.146528 -2.552128,-2.875966 v -4.293967 h 1.916849 v 3.943945 c 0,1.147906 0.337623,1.71428 1.229212,1.71428 1.04042,0 1.485526,-0.580154 1.485526,-1.998155 v -3.66007 h 1.91823 z m 0,0"
         id="path30649"
         style="stroke-width:0.352778" />
      <path
         fill-rule="nonzero"
         fill="#231f20"
         fill-opacity="1"
         d="m -21.718752,47.446673 c -1.256771,0 -1.688095,1.080382 -1.688095,2.22691 0,1.094162 0.500228,2.242068 1.688095,2.242068 1.270553,0 1.648135,-1.107943 1.648135,-2.25447 0,-1.134126 -0.40652,-2.214508 -1.648135,-2.214508 m 1.675694,4.83278 h -0.02755 c -0.446486,0.757921 -1.229212,1.08176 -2.120801,1.08176 -2.107022,0 -3.132282,-1.810742 -3.132282,-3.741374 0,-1.876888 1.039043,-3.618728 3.092319,-3.618728 0.824068,0 1.634353,0.3514 2.064301,1.040419 h 0.02755 v -3.511242 h 1.916849 v 9.642134 h -1.820389 z m 0,0"
         id="path30651"
         style="stroke-width:0.352778" />
      <path
         fill-rule="nonzero"
         fill="#231f20"
         fill-opacity="1"
         d="m -106.48464,49.448962 c -0.23702,1.252637 -0.87918,2.255849 -2.39227,2.255849 -1.9265,0 -2.47496,-1.645378 -2.47496,-3.311426 0,-1.751486 0.54846,-3.395486 2.47496,-3.395486 1.30913,0 1.94717,0.740007 2.26963,1.785938 h 1.94165 c -0.25493,-2.208996 -1.93338,-3.440962 -4.03627,-3.440962 -2.9614,0 -4.61091,2.208995 -4.61091,5.047754 0,2.760211 1.64951,4.969206 4.61091,4.969206 2.34404,0 3.90123,-1.525488 4.1162,-3.910873 z m 0,0"
         id="path30653"
         style="stroke-width:0.352778" />
    </g>
  </g>
</svg>
